<svg xmlns="http://www.w3.org/2000/svg" xmlns:xlink="http://www.w3.org/1999/xlink" width="55" height="55" viewBox="2.2 1.7 55 55"><g fill="none" stroke="#A26415" stroke-miterlimit="10"><circle cx="-240.2" cy="29.2" r="26.2"/><path d="M-227.9 31.2l-3.4 12.9h-19.2l-3.8-12.9M-241.1 44.1V31.5M-247.9 44.1l-1.6-12.6M-244.4 44.1l-.9-12.6M-233.6 44.1l1.7-12.6M-237.3 44.1l.8-12.6M-243.8 17c-3.4.7-6.2 2.8-7.6 5.6-2.4 1.3-3.9 3.6-3.9 6.3 0 .4 0 .8.1 1.2M-227 30.1c.9-4.8-1.4-6.2-3.7-7.5-1.2-2.4-3.5-4.3-6.3-5.3M-254.3 31.2h26.4M-237.2 17.5c0 1.8-1.4 3.2-3.2 3.2s-3.2-1.4-3.2-3.2 1.4-3.2 3.2-3.2c1.8 0 3.2 1.4 3.2 3.2"/><circle cx="-231.6" cy="11.4" r="1"/><path d="M-240.4 16.1s2.1-6.6 7.6-5.1M-250.1 28.6s-.3-2.9 1.7-3.8"/></g><g fill="none" stroke="#A26415" stroke-miterlimit="10"><circle cx="-171.7" cy="29.2" r="26.2"/><g stroke-linecap="round"><path d="M-169.2 40.3l5.2 4.5c1.2 1.1 3.1 1 4.2-.3l.1-.2c1.1-1.2 1-3.1-.3-4.2l-5.3-4.8c-1.7-5.4-.1-6.3-.1-6.3l5.9-2.6c1.5-.7 2.3-2.2 1.8-3.8l-.1-.2c-.5-1.5-2.2-2.3-3.8-1.8l-5.7 2v-2.2c.8-1 1.4-2.3 1.4-3.7 0-3.2-2.6-5.7-5.7-5.7-3.2 0-5.7 2.6-5.7 5.7 0 1.4.5 2.7 1.4 3.7v2.2l-5.7-2c-1.5-.5-3.2.3-3.8 1.8l-.1.2c-.5 1.5.2 3.1 1.8 3.8l5.9 2.6s1.6 1-.1 6.3l-5.3 4.8c-1.2 1.1-1.3 3-.3 4.2l.1.2c1.1 1.2 3 1.3 4.2.3l5.2-4.5h4.8z"/><circle cx="-173.5" cy="15.2" r="1"/><circle cx="-169.9" cy="15.2" r="1"/><circle cx="-171.7" cy="31.7" r="1.5"/><circle cx="-171.7" cy="26.1" r="1.5"/><path d="M-169.5 18.4c-.3 1-1.2 1.7-2.2 1.7-1.1 0-2-.8-2.2-1.8M-178.8 21.8l-2.6 5.8M-181.9 38.9l4 4.1M-164.3 21.8l2.5 5.6M-161.9 38.9l-4 4.1"/></g></g><path fill="#A26415" d="M29.7 56.7c-15.16 0-27.5-12.34-27.5-27.5S14.54 1.7 29.7 1.7s27.5 12.34 27.5 27.5-12.34 27.5-27.5 27.5zm0-54C15.09 2.7 3.2 14.59 3.2 29.2s11.89 26.5 26.5 26.5 26.5-11.89 26.5-26.5S44.31 2.7 29.7 2.7z"/><path fill="#A26415" d="M43.92 46.6c-.05 0-.1-.01-.15-.02l-30.09-9.17a.495.495 0 0 1-.35-.48V26.62c0-.16.07-.31.2-.4s.29-.12.44-.08L44.06 35c.21.06.36.26.36.48V46.1c0 .16-.08.31-.2.4-.09.07-.19.1-.3.1zM14.33 36.56l29.09 8.87v-9.57l-29.09-8.57v9.27z"/><path fill="#A26415" d="M13.83 27.12a.496.496 0 0 1-.39-.8c3.1-4.02 8.96-5.33 12.18-5.76.28-.04.52.16.56.43.04.27-.16.52-.43.56-3.07.4-8.64 1.64-11.52 5.37-.1.14-.25.2-.4.2zM43.92 35.78c-.14 0-.27-.06-.37-.17L30.82 21.35h-1.43c-.28 0-.5-.22-.5-.5s.22-.5.5-.5h1.65c.14 0 .28.06.37.17l12.88 14.43c.18.21.17.52-.04.71-.09.08-.21.12-.33.12zM43.82 41.55c-.04 0-.08 0-.12-.01-1.03-.26-1.43-.91-1.76-1.44-.29-.47-.52-.84-1.16-1.04-.64-.2-1.04-.01-1.54.23-.56.27-1.26.6-2.27.28-1-.25-1.41-.91-1.73-1.43-.29-.47-.52-.84-1.16-1.04-.64-.2-1.04-.01-1.54.23-.56.27-1.26.6-2.27.28-1-.25-1.41-.91-1.73-1.43-.29-.47-.52-.84-1.16-1.04-.64-.2-1.04-.01-1.54.23-.56.27-1.26.6-2.27.28-1-.25-1.41-.91-1.73-1.43-.29-.47-.52-.84-1.16-1.04-.64-.2-1.04-.01-1.54.23-.56.27-1.26.6-2.27.28-1-.25-1.41-.91-1.73-1.43-.29-.47-.52-.84-1.15-1.04a.506.506 0 0 1-.33-.63c.08-.26.36-.41.63-.33.99.31 1.39.96 1.71 1.47.3.48.51.83 1.15.99.67.21 1.06.02 1.57-.22.56-.27 1.26-.6 2.27-.28.99.31 1.39.96 1.71 1.47.3.48.51.83 1.15.99.67.21 1.06.02 1.57-.22.56-.27 1.26-.6 2.27-.28.99.31 1.39.96 1.71 1.47.3.48.51.83 1.15.99.66.21 1.06.02 1.57-.22.56-.27 1.26-.6 2.27-.28.99.31 1.39.96 1.71 1.47.3.48.51.83 1.15.99.66.21 1.06.02 1.57-.22.56-.27 1.26-.6 2.27-.28.99.31 1.39.96 1.71 1.47.3.48.51.83 1.15.99.27.07.43.34.36.61a.51.51 0 0 1-.49.38z"/><path fill="#A26415" d="M29.18 27.85h-3.3c-.28 0-.5-.22-.5-.5V16.63c0-.28.22-.5.5-.5h3.3c.28 0 .5.22.5.5v10.72a.5.5 0 0 1-.5.5zm-2.79-1h2.3v-9.72h-2.3v9.72z"/><path fill="#A26415" d="M27.64 16.82a.45.45 0 0 1-.25-.07c-1.12-.64-3.04-2.47-2.29-4.81.03-.08.07-.16.14-.22.01-.01 1.05-1.01 1.92-3.9.05-.17.19-.3.37-.34.18-.04.36.02.48.15.1.11 2.39 2.64 2.13 5.46-.13 1.41-.87 2.63-2.19 3.62-.1.07-.2.11-.31.11zm-1.62-4.47c-.46 1.67.97 2.9 1.59 3.35.92-.77 1.43-1.68 1.53-2.7.15-1.58-.71-3.12-1.32-3.98-.73 2.05-1.52 3.03-1.8 3.33z"/><g fill="none" stroke="#A26415" stroke-miterlimit="10"><circle cx="-112.1" cy="29.2" r="26.2"/><path stroke-linecap="round" stroke-linejoin="round" d="M-92.5 46.5V35.1h-39.2v11M-96.4 35V22.8h-31.3V35"/><path stroke-linecap="round" stroke-linejoin="round" d="M-131.5 44.2c.7.3 1.6.5 2.5.5 2.6 0 4.8-1.7 5.6-4 .8 2.3 3 4 5.6 4s4.8-1.7 5.6-4c.8 2.3 3 4 5.6 4s4.8-1.7 5.6-4c.8 2.3 3 4 5.6 4 1 0 1.9-.2 2.7-.6M-127.5 31.1c2.2-.3 4-1.7 4.7-3.7.8 2.2 2.9 3.8 5.4 3.8s4.6-1.6 5.4-3.8c.8 2.2 2.9 3.8 5.4 3.8s4.6-1.6 5.4-3.8c.7 2.1 2.6 3.6 4.9 3.8M-117.4 16.5c-.2-.4-.4-.9-.4-1.4 0-1.6 1.3-3 3-3 1.3 0 2.3.8 2.8 1.9.4-1.1 1.5-1.9 2.8-1.9 1.6 0 3 1.3 3 3 0 .5-.1 1-.4 1.4l-5.3 5.5-5.5-5.5z"/></g><g fill="none" stroke="#A26415" stroke-miterlimit="10"><circle cx="-49.6" cy="29.2" r="26.2"/><g stroke-linecap="round" stroke-linejoin="round"><path d="M-60.2 18.3l-1.9 1.9v8.6l15.7 15.7 13.2-13.1-15.6-15.7h-8.4l-1 1.1M-57 20.9l2.9 2.9M-67.6 10.3L-57 20.9"/><path d="M-54.6 20.1c1.9 0 3.5 1.5 3.5 3.5s-1.5 3.5-3.5 3.5-3.5-1.5-3.5-3.5c0-1 .4-1.9 1.1-2.5"/></g></g><g><defs><circle id="a" cx="-299.8" cy="29.2" r="26.2"/></defs><clipPath id="b"><use xlink:href="#a" overflow="visible"/></clipPath><path clip-path="url(#b)" fill="none" stroke="#A26415" stroke-miterlimit="10" d="M-297.8 45.8v-4.3l5.1-.9c3.4-1 5.1-3.3 3.8-6l-8.4-21.9c-1.3-2.8-3.5-2.8-4.9 0l-8.4 21.9c-1.3 2.8-.7 5.1 2.8 6l6.2.9v4.3"/><defs><circle id="c" cx="-299.8" cy="29.2" r="26.2"/></defs><clipPath id="d"><use xlink:href="#c" overflow="visible"/></clipPath><path clip-path="url(#d)" fill="none" stroke="#A26415" stroke-miterlimit="10" d="M-302.5 45.8h5.5V49h-5.5z"/><g><defs><circle id="e" cx="-299.8" cy="29.2" r="26.2"/></defs><clipPath id="f"><use xlink:href="#e" overflow="visible"/></clipPath><path clip-path="url(#f)" fill="none" stroke="#A26415" stroke-miterlimit="10" d="M-296 73.3h-7.4l.9-24.3h5.5z"/></g><g><defs><circle id="g" cx="-299.8" cy="29.2" r="26.2"/></defs><clipPath id="h"><use xlink:href="#g" overflow="visible"/></clipPath><path clip-path="url(#h)" fill="none" stroke="#A26415" stroke-miterlimit="10" d="M-299.1 23.9l-7.1 9.9"/></g><g><defs><circle id="i" cx="-299.8" cy="29.2" r="26.2"/></defs><clipPath id="j"><use xlink:href="#i" overflow="visible"/></clipPath><path clip-path="url(#j)" fill="none" stroke="#A26415" stroke-miterlimit="10" d="M-300.3 29.8l-3.8 5.4"/></g><g><circle fill="none" stroke="#A26415" stroke-miterlimit="10" cx="-299.8" cy="29.2" r="26.2"/></g><circle fill="none" stroke="#A26415" stroke-miterlimit="10" cx="-299.8" cy="29.2" r="26.2"/></g><g><circle fill="none" stroke="#A26415" stroke-miterlimit="10" cx="-362.8" cy="29.2" r="26.2"/><path fill="#A26415" d="M-357.7 46.7c1.3-1.2 2.1-2.9 2.1-4.7s-.8-6-2-9.9c-.6-1.9-1.4-3.7-2.2-5.1-.5-.8-1-1.4-1.6-1.8.1-.1.2-.2.2-.3V9c0-.2-.2-.4-.3-.3h-2.3c-.2 0-.3.2-.3.3v15.9c0 .1.1.2.2.3-.6.4-1.1 1.1-1.6 1.9-.8 1.3-1.6 3.2-2.2 5.1-1.2 3.8-2 8-2 9.9 0 3.4 2.7 6.1 6.1 6.6.7.1 1.3.1 1.9 0 1.4-.3 2.9-.9 4-2zm-.5-.4c-.5.4-1.1.8-1.7 1.1.2-.2.4-.4.6-.7.9-1.2 1.4-2.9 1.4-4.7s-.5-6-1.3-9.8c-.4-1.9-.9-3.7-1.5-5 0-.1-.1-.2-.1-.3.1.2.3.4.4.6.8 1.3 1.5 3 2.1 4.9 1.2 3.8 2 8 2 9.6 0 1.7-.7 3.2-1.9 4.3zm-2.3.7c-.4.3-.8.6-1.2.8.2-.3.3-.7.4-1.2.3-1.2.5-2.8.5-4.6s-.2-6-.5-9.8c-.1-1.9-.3-3.7-.5-5-.1-.4-.1-.7-.2-1 .2.3.4.7.6 1.2.5 1.3 1 3 1.4 4.9.8 3.8 1.3 8 1.3 9.7s-.5 3.2-1.3 4.3c-.1.3-.3.5-.5.7zm-2 .8l-.2.2c-.1 0-.2-.1-.4-.3-.2-.3-.4-.7-.5-1.3-.3-1.1-.5-2.7-.5-4.4s.2-5.9.5-9.7c.2-1.9.3-3.7.5-5 .1-.6.2-1.2.3-1.5.1.3.2.9.3 1.5.2 1.3.4 3.1.5 5 .3 3.8.5 8 .5 9.7s-.2 3.3-.5 4.4c-.1.6-.3 1-.5 1.3.1 0 0 .1 0 .1zm-1.4 0c-.7-.3-1.3-.8-1.8-1.5-.8-1.1-1.3-2.6-1.3-4.3s.5-5.9 1.3-9.7c.4-1.9.9-3.6 1.4-4.9.2-.5.4-.9.6-1.2-.1.3-.1.6-.2 1-.2 1.3-.4 3.1-.5 5-.3 3.8-.5 8-.5 9.8s.2 3.4.5 4.6c.2.5.4.8.5 1.2zm-1.8-.4c-2.1-1-3.6-3-3.6-5.3 0-1.6.8-5.9 2-9.6.6-1.9 1.3-3.6 2.1-4.9.1-.2.3-.4.4-.6 0 .1-.1.2-.1.3-.6 1.3-1 3.1-1.5 5-.8 3.8-1.3 8-1.3 9.8v.1c0 1.8.5 3.4 1.4 4.6.2.1.4.3.6.6zm3.7-22.8h-1.6V9.4h1.6v15.2z"/></g></svg>