<svg xmlns="http://www.w3.org/2000/svg" xmlns:xlink="http://www.w3.org/1999/xlink" width="55" height="55" viewBox="2.2 1.7 55 55"><g fill="none" stroke="#A26415" stroke-miterlimit="10"><circle cx="226.6" cy="29.2" r="26.2"/><path d="M238.9 31.2l-3.4 12.9h-19.2l-3.8-12.9M225.7 44.1V31.5M218.9 44.1l-1.7-12.6M222.3 44.1l-.8-12.6M233.2 44.1l1.6-12.6M229.5 44.1l.8-12.6M223 17c-3.4.7-6.2 2.8-7.6 5.6-2.4 1.3-3.9 3.6-3.9 6.3 0 .4 0 .8.1 1.2M239.7 30.1c.9-4.8-1.4-6.2-3.7-7.5-1.2-2.4-3.5-4.3-6.3-5.3M212.5 31.2h26.4M229.6 17.5c0 1.8-1.4 3.2-3.2 3.2s-3.2-1.4-3.2-3.2 1.4-3.2 3.2-3.2c1.7 0 3.2 1.4 3.2 3.2"/><circle cx="235.2" cy="11.4" r="1"/><path d="M226.4 16.1s2.1-6.6 7.6-5.1M216.7 28.6s-.3-2.9 1.7-3.8"/></g><g fill="#A26415"><path d="M29.7 56.7c-15.16 0-27.5-12.34-27.5-27.5S14.54 1.7 29.7 1.7s27.5 12.34 27.5 27.5-12.34 27.5-27.5 27.5zm0-54C15.09 2.7 3.2 14.59 3.2 29.2s11.89 26.5 26.5 26.5 26.5-11.89 26.5-26.5S44.31 2.7 29.7 2.7z"/><path d="M19.78 46.58c-1.04 0-2.02-.43-2.71-1.17l-.16-.27c-1.18-1.47-1.01-3.68.39-4.97l5.47-4.86c1.5-4.76.27-5.79.25-5.8l-6-2.63c-1.84-.8-2.73-2.71-2.13-4.53l.13-.27c.54-1.35 1.92-2.28 3.41-2.28.38 0 .75.06 1.11.18l5.22 1.83v-1.38a6.21 6.21 0 0 1-1.44-4c0-3.46 2.92-6.37 6.37-6.37a6.38 6.38 0 0 1 6.37 6.37c0 1.36-.51 2.77-1.44 3.99v1.39l5.21-1.83c1.96-.61 3.97.41 4.56 2.17l.08.14c.61 1.92-.25 3.73-2.09 4.59l-6.09 2.68c.02 0-1.13 1 .34 5.75l5.36 4.75c.74.63 1.19 1.51 1.25 2.47.06.93-.24 1.82-.86 2.51l-.14.25c-.68.8-1.67 1.27-2.7 1.27-.87 0-1.7-.32-2.34-.91l-5.09-4.4h-4.8l-5.22 4.51c-.64.53-1.46.82-2.31.82zm-1.93-1.8c.91.94 2.6 1.04 3.59.21l5.49-4.75h4.74v-.7l6.19 5.35c1.01.92 2.67.81 3.58-.21l.15-.26c.46-.5.69-1.15.64-1.83-.04-.69-.37-1.33-.91-1.78l-5.57-4.94-.04-.13c-1.78-5.66-.21-6.89.13-7.08l6.12-2.7c1.36-.64 2-1.97 1.58-3.31l-.07-.13c-.45-1.33-1.95-2.03-3.32-1.6l-6.52 2.29v-3.15l.11-.14c.86-1.07 1.33-2.32 1.33-3.5 0-2.96-2.41-5.37-5.37-5.37-2.91 0-5.37 2.46-5.37 5.37 0 1.3.47 2.54 1.31 3.48l.13.14v3.16l-6.54-2.29c-.25-.08-.51-.12-.78-.12-1.09 0-2.1.68-2.5 1.69l-.12.24c-.42 1.27.23 2.63 1.61 3.23l6.08 2.68c.27.16 1.99 1.43.17 7.1l-.04.13-5.67 5.04c-1.01.92-1.13 2.59-.26 3.63l.13.25z"/><path d="M27.74 16.3c-.84 0-1.53-.69-1.53-1.53 0-.84.69-1.53 1.53-1.53.84 0 1.53.69 1.53 1.53 0 .85-.68 1.53-1.53 1.53zm0-2.06c-.29 0-.53.24-.53.53s.24.53.53.53.53-.24.53-.53-.24-.53-.53-.53zM31.45 16.3c-.84 0-1.53-.69-1.53-1.53 0-.84.69-1.53 1.53-1.53.84 0 1.53.69 1.53 1.53 0 .85-.68 1.53-1.53 1.53zm0-2.06c-.29 0-.53.24-.53.53s.24.53.53.53c.29 0 .53-.24.53-.53s-.24-.53-.53-.53zM29.7 33.82c-1.13 0-2.05-.92-2.05-2.05s.92-2.05 2.05-2.05 2.05.92 2.05 2.05-.92 2.05-2.05 2.05zm0-3.09a1.05 1.05 0 1 0 0 2.1 1.05 1.05 0 0 0 0-2.1zM29.7 28.05c-1.13 0-2.05-.92-2.05-2.05s.92-2.05 2.05-2.05 2.05.92 2.05 2.05-.92 2.05-2.05 2.05zm0-3.09a1.05 1.05 0 1 0 0 2.1 1.05 1.05 0 0 0 0-2.1zM29.7 20.32c-1.34 0-2.5-.95-2.76-2.26a.5.5 0 0 1 .98-.2c.17.84.92 1.45 1.78 1.45.81 0 1.54-.57 1.79-1.4.08-.26.36-.41.62-.34.26.08.42.36.33.62-.37 1.27-1.5 2.13-2.74 2.13zM19.6 28.05c-.07 0-.14-.02-.21-.05a.493.493 0 0 1-.24-.66l2.78-5.98c.12-.25.41-.36.66-.24.25.12.36.41.24.66l-2.78 5.98c-.08.18-.26.29-.45.29zM23.31 43.92a.47.47 0 0 1-.35-.15l-4.23-4.22c-.2-.2-.2-.51 0-.71s.51-.2.71 0l4.23 4.22c.2.2.2.51 0 .71-.1.1-.23.15-.36.15zM39.9 27.85c-.19 0-.37-.11-.45-.29l-2.68-5.77a.49.49 0 0 1 .24-.66.49.49 0 0 1 .66.24l2.68 5.77c.12.25.01.55-.24.66-.07.03-.14.05-.21.05zM35.57 43.92a.47.47 0 0 1-.35-.15c-.2-.2-.2-.51 0-.71l4.22-4.22c.2-.2.51-.2.71 0s.2.51 0 .71l-4.22 4.22c-.1.1-.23.15-.36.15z"/></g><circle fill="none" stroke="#A26415" stroke-miterlimit="10" cx="423" cy="29.2" r="26.2"/><path fill="none" stroke="#A26415" stroke-linecap="round" stroke-linejoin="round" stroke-miterlimit="10" d="M407.7 36.7l29.2 8.9V35.3l-29.2-8.6zM419.2 21.3c-3.8.5-8.8 1.9-11.5 5.4M436.9 35.1l-12.5-14h-1.6"/><path fill="none" stroke="#A26415" stroke-linecap="round" stroke-linejoin="round" stroke-miterlimit="10" d="M407.9 30.7c1.6.5 1.2 2 2.8 2.4 1.6.5 2.1-1 3.7-.5s1.2 2 2.8 2.4c1.6.5 2.1-1 3.7-.5s1.2 2 2.8 2.4c1.6.5 2.1-1 3.7-.5s1.2 2 2.8 2.4c1.6.5 2.1-1 3.7-.5s1.2 2 2.8 2.4M419.3 17h3.2v10.4h-3.2zM421 16.7s-2.8-1.6-2-4.1c0 0 1.1-1 2-4 0 0 4.5 4.8 0 8.1z"/><g fill="none" stroke="#A26415" stroke-miterlimit="10"><circle cx="-112.1" cy="29.2" r="26.2"/><path stroke-linecap="round" stroke-linejoin="round" d="M-92.5 46.5V35.1h-39.2v11M-96.4 35V22.8h-31.3V35"/><path stroke-linecap="round" stroke-linejoin="round" d="M-131.5 44.2c.7.3 1.6.5 2.5.5 2.6 0 4.8-1.7 5.6-4 .8 2.3 3 4 5.6 4s4.8-1.7 5.6-4c.8 2.3 3 4 5.6 4s4.8-1.7 5.6-4c.8 2.3 3 4 5.6 4 1 0 1.9-.2 2.7-.6M-127.5 31.1c2.2-.3 4-1.7 4.7-3.7.8 2.2 2.9 3.8 5.4 3.8s4.6-1.6 5.4-3.8c.8 2.2 2.9 3.8 5.4 3.8s4.6-1.6 5.4-3.8c.7 2.1 2.6 3.6 4.9 3.8M-117.4 16.5c-.2-.4-.4-.9-.4-1.4 0-1.6 1.3-3 3-3 1.3 0 2.3.8 2.8 1.9.4-1.1 1.5-1.9 2.8-1.9 1.6 0 3 1.3 3 3 0 .5-.1 1-.4 1.4l-5.3 5.5-5.5-5.5z"/></g><g fill="none" stroke="#A26415" stroke-miterlimit="10"><circle cx="-49.6" cy="29.2" r="26.2"/><g stroke-linecap="round" stroke-linejoin="round"><path d="M-60.2 18.3l-1.9 1.9v8.6l15.7 15.7 13.2-13.1-15.6-15.7h-8.4l-1 1.1M-57 20.9l2.9 2.9M-67.6 10.3L-57 20.9"/><path d="M-54.6 20.1c1.9 0 3.5 1.5 3.5 3.5s-1.5 3.5-3.5 3.5-3.5-1.5-3.5-3.5c0-1 .4-1.9 1.1-2.5"/></g></g><g><defs><circle id="a" cx="292.1" cy="29.2" r="26.2"/></defs><clipPath id="b"><use xlink:href="#a" overflow="visible"/></clipPath><path clip-path="url(#b)" fill="none" stroke="#A26415" stroke-miterlimit="10" d="M294 45.8v-4.3l5.1-.9c3.4-1 5.1-3.3 3.8-6l-8.4-21.9c-1.3-2.8-3.5-2.8-4.9 0l-8.4 21.9c-1.3 2.8-.7 5.1 2.8 6l6.2.9v4.3"/><defs><circle id="c" cx="292.1" cy="29.2" r="26.2"/></defs><clipPath id="d"><use xlink:href="#c" overflow="visible"/></clipPath><path clip-path="url(#d)" fill="none" stroke="#A26415" stroke-miterlimit="10" d="M289.3 45.8h5.5V49h-5.5z"/><g><defs><circle id="e" cx="292.1" cy="29.2" r="26.2"/></defs><clipPath id="f"><use xlink:href="#e" overflow="visible"/></clipPath><path clip-path="url(#f)" fill="none" stroke="#A26415" stroke-miterlimit="10" d="M295.8 73.3h-7.4l.9-24.3h5.5z"/></g><g><defs><circle id="g" cx="292.1" cy="29.2" r="26.2"/></defs><clipPath id="h"><use xlink:href="#g" overflow="visible"/></clipPath><path clip-path="url(#h)" fill="none" stroke="#A26415" stroke-miterlimit="10" d="M292.7 23.9l-7.1 9.9"/></g><g><defs><circle id="i" cx="292.1" cy="29.2" r="26.2"/></defs><clipPath id="j"><use xlink:href="#i" overflow="visible"/></clipPath><path clip-path="url(#j)" fill="none" stroke="#A26415" stroke-miterlimit="10" d="M291.6 29.8l-3.9 5.4"/></g><g><circle fill="none" stroke="#A26415" stroke-miterlimit="10" cx="292.1" cy="29.2" r="26.2"/></g><circle fill="none" stroke="#A26415" stroke-miterlimit="10" cx="292.1" cy="29.2" r="26.2"/></g><g><circle fill="none" stroke="#A26415" stroke-miterlimit="10" cx="357.5" cy="29.2" r="26.2"/><path fill="#A26415" d="M362.6 46.7c1.3-1.2 2.1-2.9 2.1-4.7s-.8-6-2-9.9c-.6-1.9-1.4-3.7-2.2-5.1-.5-.8-1-1.4-1.6-1.8.1-.1.2-.2.2-.3V9c0-.2-.2-.4-.3-.3h-2.3c-.2 0-.3.2-.3.3v15.9c0 .1.1.2.2.3-.6.4-1.1 1.1-1.6 1.9-.8 1.3-1.6 3.2-2.2 5.1-1.2 3.8-2 8-2 9.9 0 3.4 2.7 6.1 6.1 6.6.7.1 1.3.1 1.9 0 1.4-.3 2.9-.9 4-2zm-.5-.4c-.5.4-1.1.8-1.7 1.1.2-.2.4-.4.6-.7.9-1.2 1.4-2.9 1.4-4.7s-.5-6-1.3-9.8c-.4-1.9-.9-3.7-1.5-5 0-.1-.1-.2-.1-.3.1.2.3.4.4.6.8 1.3 1.5 3 2.1 4.9 1.2 3.8 2 8 2 9.6 0 1.7-.7 3.2-1.9 4.3zm-2.3.7c-.4.3-.8.6-1.2.8.2-.3.3-.7.4-1.2.3-1.2.5-2.8.5-4.6s-.2-6-.5-9.8c-.1-1.9-.3-3.7-.5-5-.1-.4-.1-.7-.2-1 .2.3.4.7.6 1.2.5 1.3 1 3 1.4 4.9.8 3.8 1.3 8 1.3 9.7s-.5 3.2-1.3 4.3c0 .3-.2.5-.5.7zm-2 .8l-.2.2c-.1 0-.2-.1-.4-.3-.2-.3-.4-.7-.5-1.3-.3-1.1-.5-2.7-.5-4.4s.2-5.9.5-9.7c.2-1.9.3-3.7.5-5 .1-.6.2-1.2.3-1.5.1.3.2.9.3 1.5.2 1.3.4 3.1.5 5 .3 3.8.5 8 .5 9.7s-.2 3.3-.5 4.4c-.1.6-.3 1-.5 1.3.1 0 0 .1 0 .1zm-1.4 0c-.7-.3-1.3-.8-1.8-1.5-.8-1.1-1.3-2.6-1.3-4.3s.5-5.9 1.3-9.7c.4-1.9.9-3.6 1.4-4.9.2-.5.4-.9.6-1.2-.1.3-.1.6-.2 1-.2 1.3-.4 3.1-.5 5-.3 3.8-.5 8-.5 9.8s.2 3.4.5 4.6c.2.5.4.8.5 1.2zm-1.8-.4c-2.1-1-3.6-3-3.6-5.3 0-1.6.8-5.9 2-9.6.6-1.9 1.3-3.6 2.1-4.9.1-.2.3-.4.4-.6 0 .1-.1.2-.1.3-.6 1.3-1 3.1-1.5 5-.8 3.8-1.3 8-1.3 9.8v.1c0 1.8.5 3.4 1.4 4.6.2.1.4.3.6.6zm3.8-22.8h-1.6V9.4h1.6v15.2z"/></g></svg>