<svg xmlns="http://www.w3.org/2000/svg" xmlns:xlink="http://www.w3.org/1999/xlink" width="55" height="55" viewBox="2.2 1.7 55 55"><g fill="#A26415"><path d="M29.7 56.7c-15.16 0-27.5-12.34-27.5-27.5S14.54 1.7 29.7 1.7s27.5 12.34 27.5 27.5-12.34 27.5-27.5 27.5zm0-54C15.09 2.7 3.2 14.59 3.2 29.2s11.89 26.5 26.5 26.5 26.5-11.89 26.5-26.5S44.31 2.7 29.7 2.7z"/><path d="M39.26 45.05H18.71L14.69 31.4l.96-.28 3.81 12.93h19.02l3.31-12.91.97.24z"/><path d="M28.17 31.57h1v12.98h-1zM20.513 31.506l1.75 12.982-.99.133-1.75-12.98zM24.946 31.54l.825 12.983-.997.064-.825-12.984zM37.646 31.5l.99.132-1.74 12.983-.99-.132zM32.906 31.54l.998.063-.813 12.984-.997-.063zM13.76 30.25c-.12-.47-.12-.92-.12-1.36 0-2.84 1.55-5.39 4.14-6.86 1.54-2.97 4.56-5.17 8.11-5.9l.2.98c-3.3.68-6.1 2.74-7.49 5.5l-.07.14-.14.07c-2.39 1.29-3.76 3.5-3.76 6.05 0 .39 0 .76.09 1.12l-.96.26zM43.69 30.22l-.98-.18c.88-4.69-1.38-5.97-3.57-7.2l-.13-.07-.07-.14c-1.16-2.32-3.42-4.22-6.21-5.21l.34-.94c2.98 1.06 5.41 3.09 6.7 5.57 2.23 1.25 4.91 2.88 3.92 8.17z"/><path d="M15.17 30.76h27.1v1h-27.1zM29.39 20.94a3.76 3.76 0 0 1-3.8-3.8c0-2.13 1.67-3.8 3.8-3.8s3.8 1.67 3.8 3.8-1.67 3.8-3.8 3.8zm0-6.59c-1.57 0-2.8 1.23-2.8 2.8s1.23 2.8 2.8 2.8 2.8-1.23 2.8-2.8-1.23-2.8-2.8-2.8zM38.56 12.39c-.84 0-1.53-.69-1.53-1.53 0-.84.69-1.53 1.53-1.53s1.53.69 1.53 1.53c0 .84-.68 1.53-1.53 1.53zm0-2.06c-.29 0-.53.24-.53.53s.24.53.53.53.53-.24.53-.53-.24-.53-.53-.53z"/><path d="M29.87 15.85l-.95-.3c.02-.07 2.37-7.24 8.44-5.59l-.26.96c-5.14-1.39-7.15 4.67-7.23 4.93zM19 28.63c-.01-.14-.32-3.36 2.04-4.42l.41.91c-1.7.77-1.46 3.38-1.46 3.41l-.99.1z"/></g><g fill="none" stroke="#A26415" stroke-miterlimit="10"><circle cx="-171.7" cy="29.2" r="26.2"/><g stroke-linecap="round"><path d="M-169.2 40.3l5.2 4.5c1.2 1.1 3.1 1 4.2-.3l.1-.2c1.1-1.2 1-3.1-.3-4.2l-5.3-4.8c-1.7-5.4-.1-6.3-.1-6.3l5.9-2.6c1.5-.7 2.3-2.2 1.8-3.8l-.1-.2c-.5-1.5-2.2-2.3-3.8-1.8l-5.7 2v-2.2c.8-1 1.4-2.3 1.4-3.7 0-3.2-2.6-5.7-5.7-5.7-3.2 0-5.7 2.6-5.7 5.7 0 1.4.5 2.7 1.4 3.7v2.2l-5.7-2c-1.5-.5-3.2.3-3.8 1.8l-.1.2c-.5 1.5.2 3.1 1.8 3.8l5.9 2.6s1.6 1-.1 6.3l-5.3 4.8c-1.2 1.1-1.3 3-.3 4.2l.1.2c1.1 1.2 3 1.3 4.2.3l5.2-4.5h4.8z"/><circle cx="-173.5" cy="15.2" r="1"/><circle cx="-169.9" cy="15.2" r="1"/><circle cx="-171.7" cy="31.7" r="1.5"/><circle cx="-171.7" cy="26.1" r="1.5"/><path d="M-169.5 18.4c-.3 1-1.2 1.7-2.2 1.7-1.1 0-2-.8-2.2-1.8M-178.8 21.8l-2.6 5.8M-181.9 38.9l4 4.1M-164.3 21.8l2.5 5.6M-161.9 38.9l-4 4.1"/></g></g><circle fill="none" stroke="#A26415" stroke-miterlimit="10" cx="423" cy="29.2" r="26.2"/><path fill="none" stroke="#A26415" stroke-linecap="round" stroke-linejoin="round" stroke-miterlimit="10" d="M407.7 36.7l29.2 8.9V35.3l-29.2-8.6zM419.2 21.3c-3.8.5-8.8 1.9-11.5 5.4M436.9 35.1l-12.5-14h-1.6"/><path fill="none" stroke="#A26415" stroke-linecap="round" stroke-linejoin="round" stroke-miterlimit="10" d="M407.9 30.7c1.6.5 1.2 2 2.8 2.4 1.6.5 2.1-1 3.7-.5s1.2 2 2.8 2.4c1.6.5 2.1-1 3.7-.5s1.2 2 2.8 2.4c1.6.5 2.1-1 3.7-.5s1.2 2 2.8 2.4c1.6.5 2.1-1 3.7-.5s1.2 2 2.8 2.4M419.3 17h3.2v10.4h-3.2zM421 16.7s-2.8-1.6-2-4.1c0 0 1.1-1 2-4 0 0 4.5 4.8 0 8.1z"/><g fill="none" stroke="#A26415" stroke-miterlimit="10"><circle cx="-112.1" cy="29.2" r="26.2"/><path stroke-linecap="round" stroke-linejoin="round" d="M-92.5 46.5V35.1h-39.2v11M-96.4 35V22.8h-31.3V35"/><path stroke-linecap="round" stroke-linejoin="round" d="M-131.5 44.2c.7.3 1.6.5 2.5.5 2.6 0 4.8-1.7 5.6-4 .8 2.3 3 4 5.6 4s4.8-1.7 5.6-4c.8 2.3 3 4 5.6 4s4.8-1.7 5.6-4c.8 2.3 3 4 5.6 4 1 0 1.9-.2 2.7-.6M-127.5 31.1c2.2-.3 4-1.7 4.7-3.7.8 2.2 2.9 3.8 5.4 3.8s4.6-1.6 5.4-3.8c.8 2.2 2.9 3.8 5.4 3.8s4.6-1.6 5.4-3.8c.7 2.1 2.6 3.6 4.9 3.8M-117.4 16.5c-.2-.4-.4-.9-.4-1.4 0-1.6 1.3-3 3-3 1.3 0 2.3.8 2.8 1.9.4-1.1 1.5-1.9 2.8-1.9 1.6 0 3 1.3 3 3 0 .5-.1 1-.4 1.4l-5.3 5.5-5.5-5.5z"/></g><g fill="none" stroke="#A26415" stroke-miterlimit="10"><circle cx="-49.6" cy="29.2" r="26.2"/><g stroke-linecap="round" stroke-linejoin="round"><path d="M-60.2 18.3l-1.9 1.9v8.6l15.7 15.7 13.2-13.1-15.6-15.7h-8.4l-1 1.1M-57 20.9l2.9 2.9M-67.6 10.3L-57 20.9"/><path d="M-54.6 20.1c1.9 0 3.5 1.5 3.5 3.5s-1.5 3.5-3.5 3.5-3.5-1.5-3.5-3.5c0-1 .4-1.9 1.1-2.5"/></g></g><g><defs><circle id="a" cx="292.1" cy="29.2" r="26.2"/></defs><clipPath id="b"><use xlink:href="#a" overflow="visible"/></clipPath><path clip-path="url(#b)" fill="none" stroke="#A26415" stroke-miterlimit="10" d="M294 45.8v-4.3l5.1-.9c3.4-1 5.1-3.3 3.8-6l-8.4-21.9c-1.3-2.8-3.5-2.8-4.9 0l-8.4 21.9c-1.3 2.8-.7 5.1 2.8 6l6.2.9v4.3"/><defs><circle id="c" cx="292.1" cy="29.2" r="26.2"/></defs><clipPath id="d"><use xlink:href="#c" overflow="visible"/></clipPath><path clip-path="url(#d)" fill="none" stroke="#A26415" stroke-miterlimit="10" d="M289.3 45.8h5.5V49h-5.5z"/><g><defs><circle id="e" cx="292.1" cy="29.2" r="26.2"/></defs><clipPath id="f"><use xlink:href="#e" overflow="visible"/></clipPath><path clip-path="url(#f)" fill="none" stroke="#A26415" stroke-miterlimit="10" d="M295.8 73.3h-7.4l.9-24.3h5.5z"/></g><g><defs><circle id="g" cx="292.1" cy="29.2" r="26.2"/></defs><clipPath id="h"><use xlink:href="#g" overflow="visible"/></clipPath><path clip-path="url(#h)" fill="none" stroke="#A26415" stroke-miterlimit="10" d="M292.7 23.9l-7.1 9.9"/></g><g><defs><circle id="i" cx="292.1" cy="29.2" r="26.2"/></defs><clipPath id="j"><use xlink:href="#i" overflow="visible"/></clipPath><path clip-path="url(#j)" fill="none" stroke="#A26415" stroke-miterlimit="10" d="M291.6 29.8l-3.9 5.4"/></g><g><circle fill="none" stroke="#A26415" stroke-miterlimit="10" cx="292.1" cy="29.2" r="26.2"/></g><circle fill="none" stroke="#A26415" stroke-miterlimit="10" cx="292.1" cy="29.2" r="26.2"/></g><g><circle fill="none" stroke="#A26415" stroke-miterlimit="10" cx="357.5" cy="29.2" r="26.2"/><path fill="#A26415" d="M362.6 46.7c1.3-1.2 2.1-2.9 2.1-4.7s-.8-6-2-9.9c-.6-1.9-1.4-3.7-2.2-5.1-.5-.8-1-1.4-1.6-1.8.1-.1.2-.2.2-.3V9c0-.2-.2-.4-.3-.3h-2.3c-.2 0-.3.2-.3.3v15.9c0 .1.1.2.2.3-.6.4-1.1 1.1-1.6 1.9-.8 1.3-1.6 3.2-2.2 5.1-1.2 3.8-2 8-2 9.9 0 3.4 2.7 6.1 6.1 6.6.7.1 1.3.1 1.9 0 1.4-.3 2.9-.9 4-2zm-.5-.4c-.5.4-1.1.8-1.7 1.1.2-.2.4-.4.6-.7.9-1.2 1.4-2.9 1.4-4.7s-.5-6-1.3-9.8c-.4-1.9-.9-3.7-1.5-5 0-.1-.1-.2-.1-.3.1.2.3.4.4.6.8 1.3 1.5 3 2.1 4.9 1.2 3.8 2 8 2 9.6 0 1.7-.7 3.2-1.9 4.3zm-2.3.7c-.4.3-.8.6-1.2.8.2-.3.3-.7.4-1.2.3-1.2.5-2.8.5-4.6s-.2-6-.5-9.8c-.1-1.9-.3-3.7-.5-5-.1-.4-.1-.7-.2-1 .2.3.4.7.6 1.2.5 1.3 1 3 1.4 4.9.8 3.8 1.3 8 1.3 9.7s-.5 3.2-1.3 4.3c0 .3-.2.5-.5.7zm-2 .8l-.2.2c-.1 0-.2-.1-.4-.3-.2-.3-.4-.7-.5-1.3-.3-1.1-.5-2.7-.5-4.4s.2-5.9.5-9.7c.2-1.9.3-3.7.5-5 .1-.6.2-1.2.3-1.5.1.3.2.9.3 1.5.2 1.3.4 3.1.5 5 .3 3.8.5 8 .5 9.7s-.2 3.3-.5 4.4c-.1.6-.3 1-.5 1.3.1 0 0 .1 0 .1zm-1.4 0c-.7-.3-1.3-.8-1.8-1.5-.8-1.1-1.3-2.6-1.3-4.3s.5-5.9 1.3-9.7c.4-1.9.9-3.6 1.4-4.9.2-.5.4-.9.6-1.2-.1.3-.1.6-.2 1-.2 1.3-.4 3.1-.5 5-.3 3.8-.5 8-.5 9.8s.2 3.4.5 4.6c.2.5.4.8.5 1.2zm-1.8-.4c-2.1-1-3.6-3-3.6-5.3 0-1.6.8-5.9 2-9.6.6-1.9 1.3-3.6 2.1-4.9.1-.2.3-.4.4-.6 0 .1-.1.2-.1.3-.6 1.3-1 3.1-1.5 5-.8 3.8-1.3 8-1.3 9.8v.1c0 1.8.5 3.4 1.4 4.6.2.1.4.3.6.6zm3.8-22.8h-1.6V9.4h1.6v15.2z"/></g></svg>