<svg xmlns="http://www.w3.org/2000/svg" xmlns:xlink="http://www.w3.org/1999/xlink" width="55" height="55" viewBox="2.2 1.7 55 55"><g fill="none" stroke="#A26415" stroke-miterlimit="10"><circle cx="226.6" cy="29.2" r="26.2"/><path d="M238.9 31.2l-3.4 12.9h-19.2l-3.8-12.9M225.7 44.1V31.5M218.9 44.1l-1.7-12.6M222.3 44.1l-.8-12.6M233.2 44.1l1.6-12.6M229.5 44.1l.8-12.6M223 17c-3.4.7-6.2 2.8-7.6 5.6-2.4 1.3-3.9 3.6-3.9 6.3 0 .4 0 .8.1 1.2M239.7 30.1c.9-4.8-1.4-6.2-3.7-7.5-1.2-2.4-3.5-4.3-6.3-5.3M212.5 31.2h26.4M229.6 17.5c0 1.8-1.4 3.2-3.2 3.2s-3.2-1.4-3.2-3.2 1.4-3.2 3.2-3.2c1.7 0 3.2 1.4 3.2 3.2"/><circle cx="235.2" cy="11.4" r="1"/><path d="M226.4 16.1s2.1-6.6 7.6-5.1M216.7 28.6s-.3-2.9 1.7-3.8"/></g><g fill="none" stroke="#A26415" stroke-miterlimit="10"><circle cx="161.1" cy="29.2" r="26.2"/><g stroke-linecap="round"><path d="M163.6 40.3l5.2 4.5c1.2 1.1 3.1 1 4.2-.3l.1-.2c1.1-1.2 1-3.1-.3-4.2l-5.3-4.8c-1.7-5.4-.1-6.3-.1-6.3l5.9-2.6c1.5-.7 2.3-2.2 1.8-3.8l-.1-.2c-.5-1.5-2.2-2.3-3.8-1.8l-5.7 2v-2.2c.8-1 1.4-2.3 1.4-3.7 0-3.2-2.6-5.7-5.7-5.7-3.2 0-5.7 2.6-5.7 5.7 0 1.4.5 2.7 1.4 3.7v2.2l-5.7-2c-1.5-.5-3.2.3-3.8 1.8l-.1.2c-.5 1.5.2 3.1 1.8 3.8L155 29s1.6 1-.1 6.3l-5.3 4.8c-1.2 1.1-1.3 3-.3 4.2l.1.2c1.1 1.2 3 1.3 4.2.3l5.2-4.5h4.8z"/><circle cx="159.3" cy="15.2" r="1"/><circle cx="162.9" cy="15.2" r="1"/><circle cx="161.1" cy="31.7" r="1.5"/><circle cx="161.1" cy="26.1" r="1.5"/><path d="M163.4 18.4c-.3 1-1.2 1.7-2.2 1.7-1.1 0-2-.8-2.2-1.8M154 21.8l-2.6 5.8M150.9 38.9l4 4.1M168.5 21.8l2.5 5.6M171 38.9l-4.1 4.1"/></g></g><circle fill="none" stroke="#A26415" stroke-miterlimit="10" cx="423" cy="29.2" r="26.2"/><path fill="none" stroke="#A26415" stroke-linecap="round" stroke-linejoin="round" stroke-miterlimit="10" d="M407.7 36.7l29.2 8.9V35.3l-29.2-8.6zM419.2 21.3c-3.8.5-8.8 1.9-11.5 5.4M436.9 35.1l-12.5-14h-1.6"/><path fill="none" stroke="#A26415" stroke-linecap="round" stroke-linejoin="round" stroke-miterlimit="10" d="M407.9 30.7c1.6.5 1.2 2 2.8 2.4 1.6.5 2.1-1 3.7-.5s1.2 2 2.8 2.4c1.6.5 2.1-1 3.7-.5s1.2 2 2.8 2.4c1.6.5 2.1-1 3.7-.5s1.2 2 2.8 2.4c1.6.5 2.1-1 3.7-.5s1.2 2 2.8 2.4M419.3 17h3.2v10.4h-3.2zM421 16.7s-2.8-1.6-2-4.1c0 0 1.1-1 2-4 0 0 4.5 4.8 0 8.1z"/><g fill="none" stroke="#A26415" stroke-miterlimit="10"><circle cx="95.7" cy="29.2" r="26.2"/><path stroke-linecap="round" stroke-linejoin="round" d="M115.3 46.5V35.1H76.1v11M111.3 35V22.8H80V35"/><path stroke-linecap="round" stroke-linejoin="round" d="M76.2 44.2c.7.3 1.6.5 2.5.5 2.6 0 4.8-1.7 5.6-4 .8 2.3 3 4 5.6 4s4.8-1.7 5.6-4c.8 2.3 3 4 5.6 4s4.8-1.7 5.6-4c.8 2.3 3 4 5.6 4 1 0 1.9-.2 2.7-.6M80.2 31.1c2.2-.3 4-1.7 4.7-3.7.8 2.2 2.9 3.8 5.4 3.8s4.6-1.6 5.4-3.8c.8 2.2 2.9 3.8 5.4 3.8s4.6-1.6 5.4-3.8c.7 2.1 2.6 3.6 4.9 3.8M90.3 16.5c-.2-.5-.3-.9-.3-1.4 0-1.6 1.3-3 3-3 1.3 0 2.3.8 2.8 1.9.4-1.1 1.5-1.9 2.8-1.9 1.6 0 3 1.3 3 3 0 .5-.1 1-.4 1.4L95.7 22l-5.4-5.5z"/></g><g fill="#A26415"><path d="M29.7 56.7c-15.16 0-27.5-12.34-27.5-27.5S14.54 1.7 29.7 1.7s27.5 12.34 27.5 27.5-12.34 27.5-27.5 27.5zm0-54C15.09 2.7 3.2 14.59 3.2 29.2s11.89 26.5 26.5 26.5 26.5-11.89 26.5-26.5S44.31 2.7 29.7 2.7z"/><path d="M32.89 45.47a.47.47 0 0 1-.35-.15L16.36 29.14a.51.51 0 0 1-.15-.35v-8.86c0-.13.05-.26.15-.35l1.96-1.96c.2-.2.51-.2.71 0s.2.51 0 .71l-1.81 1.81v8.45L32.9 44.26l12.9-12.8-15.59-15.67h-8.23l-.88.97c-.19.21-.5.22-.71.03-.2-.19-.22-.5-.03-.71l1.03-1.13c.09-.1.23-.16.37-.16h8.66c.13 0 .26.05.35.15l16.08 16.18c.09.09.15.22.15.35s-.05.26-.15.35l-13.6 13.5c-.1.1-.23.15-.36.15z"/><path d="M24.96 24.14a.47.47 0 0 1-.35-.15L21.62 21c-.2-.2-.2-.51 0-.71s.51-.2.71 0l2.99 2.99c.2.2.2.51 0 .71-.1.1-.23.15-.36.15z"/><path d="M21.97 21.15a.47.47 0 0 1-.35-.15L10.69 10.08c-.2-.2-.2-.51 0-.71s.51-.2.71 0l10.92 10.92c.2.2.2.51 0 .71a.47.47 0 0 1-.35.15z"/><path d="M24.44 27.43c-2.3 0-4.11-1.8-4.11-4.11 0-1.17.48-2.24 1.31-2.96.21-.18.53-.16.7.05.18.21.16.52-.05.7-.61.52-.96 1.32-.96 2.2 0 1.74 1.36 3.11 3.11 3.11 1.77 0 3.11-1.29 3.11-3 0-1.74-1.36-3.11-3.11-3.11-.28 0-.5-.22-.5-.5s.22-.5.5-.5c2.3 0 4.11 1.8 4.11 4.11 0 2.25-1.8 4.01-4.11 4.01z"/></g><g><defs><circle id="a" cx="292.1" cy="29.2" r="26.2"/></defs><clipPath id="b"><use xlink:href="#a" overflow="visible"/></clipPath><path clip-path="url(#b)" fill="none" stroke="#A26415" stroke-miterlimit="10" d="M294 45.8v-4.3l5.1-.9c3.4-1 5.1-3.3 3.8-6l-8.4-21.9c-1.3-2.8-3.5-2.8-4.9 0l-8.4 21.9c-1.3 2.8-.7 5.1 2.8 6l6.2.9v4.3"/><defs><circle id="c" cx="292.1" cy="29.2" r="26.2"/></defs><clipPath id="d"><use xlink:href="#c" overflow="visible"/></clipPath><path clip-path="url(#d)" fill="none" stroke="#A26415" stroke-miterlimit="10" d="M289.3 45.8h5.5V49h-5.5z"/><g><defs><circle id="e" cx="292.1" cy="29.2" r="26.2"/></defs><clipPath id="f"><use xlink:href="#e" overflow="visible"/></clipPath><path clip-path="url(#f)" fill="none" stroke="#A26415" stroke-miterlimit="10" d="M295.8 73.3h-7.4l.9-24.3h5.5z"/></g><g><defs><circle id="g" cx="292.1" cy="29.2" r="26.2"/></defs><clipPath id="h"><use xlink:href="#g" overflow="visible"/></clipPath><path clip-path="url(#h)" fill="none" stroke="#A26415" stroke-miterlimit="10" d="M292.7 23.9l-7.1 9.9"/></g><g><defs><circle id="i" cx="292.1" cy="29.2" r="26.2"/></defs><clipPath id="j"><use xlink:href="#i" overflow="visible"/></clipPath><path clip-path="url(#j)" fill="none" stroke="#A26415" stroke-miterlimit="10" d="M291.6 29.8l-3.9 5.4"/></g><g><circle fill="none" stroke="#A26415" stroke-miterlimit="10" cx="292.1" cy="29.2" r="26.2"/></g><circle fill="none" stroke="#A26415" stroke-miterlimit="10" cx="292.1" cy="29.2" r="26.2"/></g><g><circle fill="none" stroke="#A26415" stroke-miterlimit="10" cx="357.5" cy="29.2" r="26.2"/><path fill="#A26415" d="M362.6 46.7c1.3-1.2 2.1-2.9 2.1-4.7s-.8-6-2-9.9c-.6-1.9-1.4-3.7-2.2-5.1-.5-.8-1-1.4-1.6-1.8.1-.1.2-.2.2-.3V9c0-.2-.2-.4-.3-.3h-2.3c-.2 0-.3.2-.3.3v15.9c0 .1.1.2.2.3-.6.4-1.1 1.1-1.6 1.9-.8 1.3-1.6 3.2-2.2 5.1-1.2 3.8-2 8-2 9.9 0 3.4 2.7 6.1 6.1 6.6.7.1 1.3.1 1.9 0 1.4-.3 2.9-.9 4-2zm-.5-.4c-.5.4-1.1.8-1.7 1.1.2-.2.4-.4.6-.7.9-1.2 1.4-2.9 1.4-4.7s-.5-6-1.3-9.8c-.4-1.9-.9-3.7-1.5-5 0-.1-.1-.2-.1-.3.1.2.3.4.4.6.8 1.3 1.5 3 2.1 4.9 1.2 3.8 2 8 2 9.6 0 1.7-.7 3.2-1.9 4.3zm-2.3.7c-.4.3-.8.6-1.2.8.2-.3.3-.7.4-1.2.3-1.2.5-2.8.5-4.6s-.2-6-.5-9.8c-.1-1.9-.3-3.7-.5-5-.1-.4-.1-.7-.2-1 .2.3.4.7.6 1.2.5 1.3 1 3 1.4 4.9.8 3.8 1.3 8 1.3 9.7s-.5 3.2-1.3 4.3c0 .3-.2.5-.5.7zm-2 .8l-.2.2c-.1 0-.2-.1-.4-.3-.2-.3-.4-.7-.5-1.3-.3-1.1-.5-2.7-.5-4.4s.2-5.9.5-9.7c.2-1.9.3-3.7.5-5 .1-.6.2-1.2.3-1.5.1.3.2.9.3 1.5.2 1.3.4 3.1.5 5 .3 3.8.5 8 .5 9.7s-.2 3.3-.5 4.4c-.1.6-.3 1-.5 1.3.1 0 0 .1 0 .1zm-1.4 0c-.7-.3-1.3-.8-1.8-1.5-.8-1.1-1.3-2.6-1.3-4.3s.5-5.9 1.3-9.7c.4-1.9.9-3.6 1.4-4.9.2-.5.4-.9.6-1.2-.1.3-.1.6-.2 1-.2 1.3-.4 3.1-.5 5-.3 3.8-.5 8-.5 9.8s.2 3.4.5 4.6c.2.5.4.8.5 1.2zm-1.8-.4c-2.1-1-3.6-3-3.6-5.3 0-1.6.8-5.9 2-9.6.6-1.9 1.3-3.6 2.1-4.9.1-.2.3-.4.4-.6 0 .1-.1.2-.1.3-.6 1.3-1 3.1-1.5 5-.8 3.8-1.3 8-1.3 9.8v.1c0 1.8.5 3.4 1.4 4.6.2.1.4.3.6.6zm3.8-22.8h-1.6V9.4h1.6v15.2z"/></g></svg>