<svg xmlns="http://www.w3.org/2000/svg" xmlns:xlink="http://www.w3.org/1999/xlink" width="55" height="55" viewBox="2.2 1.7 55 55"><g fill="none" stroke="#A26415" stroke-miterlimit="10"><circle cx="-240.2" cy="29.2" r="26.2"/><path d="M-227.9 31.2l-3.4 12.9h-19.2l-3.8-12.9M-241.1 44.1V31.5M-247.9 44.1l-1.6-12.6M-244.4 44.1l-.9-12.6M-233.6 44.1l1.7-12.6M-237.3 44.1l.8-12.6M-243.8 17c-3.4.7-6.2 2.8-7.6 5.6-2.4 1.3-3.9 3.6-3.9 6.3 0 .4 0 .8.1 1.2M-227 30.1c.9-4.8-1.4-6.2-3.7-7.5-1.2-2.4-3.5-4.3-6.3-5.3M-254.3 31.2h26.4M-237.2 17.5c0 1.8-1.4 3.2-3.2 3.2s-3.2-1.4-3.2-3.2 1.4-3.2 3.2-3.2c1.8 0 3.2 1.4 3.2 3.2"/><circle cx="-231.6" cy="11.4" r="1"/><path d="M-240.4 16.1s2.1-6.6 7.6-5.1M-250.1 28.6s-.3-2.9 1.7-3.8"/></g><g fill="none" stroke="#A26415" stroke-miterlimit="10"><circle cx="-171.7" cy="29.2" r="26.2"/><g stroke-linecap="round"><path d="M-169.2 40.3l5.2 4.5c1.2 1.1 3.1 1 4.2-.3l.1-.2c1.1-1.2 1-3.1-.3-4.2l-5.3-4.8c-1.7-5.4-.1-6.3-.1-6.3l5.9-2.6c1.5-.7 2.3-2.2 1.8-3.8l-.1-.2c-.5-1.5-2.2-2.3-3.8-1.8l-5.7 2v-2.2c.8-1 1.4-2.3 1.4-3.7 0-3.2-2.6-5.7-5.7-5.7-3.2 0-5.7 2.6-5.7 5.7 0 1.4.5 2.7 1.4 3.7v2.2l-5.7-2c-1.5-.5-3.2.3-3.8 1.8l-.1.2c-.5 1.5.2 3.1 1.8 3.8l5.9 2.6s1.6 1-.1 6.3l-5.3 4.8c-1.2 1.1-1.3 3-.3 4.2l.1.2c1.1 1.2 3 1.3 4.2.3l5.2-4.5h4.8z"/><circle cx="-173.5" cy="15.2" r="1"/><circle cx="-169.9" cy="15.2" r="1"/><circle cx="-171.7" cy="31.7" r="1.5"/><circle cx="-171.7" cy="26.1" r="1.5"/><path d="M-169.5 18.4c-.3 1-1.2 1.7-2.2 1.7-1.1 0-2-.8-2.2-1.8M-178.8 21.8l-2.6 5.8M-181.9 38.9l4 4.1M-164.3 21.8l2.5 5.6M-161.9 38.9l-4 4.1"/></g></g><circle fill="none" stroke="#A26415" stroke-miterlimit="10" cx="423" cy="29.2" r="26.2"/><path fill="none" stroke="#A26415" stroke-linecap="round" stroke-linejoin="round" stroke-miterlimit="10" d="M407.7 36.7l29.2 8.9V35.3l-29.2-8.6zM419.2 21.3c-3.8.5-8.8 1.9-11.5 5.4M436.9 35.1l-12.5-14h-1.6"/><path fill="none" stroke="#A26415" stroke-linecap="round" stroke-linejoin="round" stroke-miterlimit="10" d="M407.9 30.7c1.6.5 1.2 2 2.8 2.4 1.6.5 2.1-1 3.7-.5s1.2 2 2.8 2.4c1.6.5 2.1-1 3.7-.5s1.2 2 2.8 2.4c1.6.5 2.1-1 3.7-.5s1.2 2 2.8 2.4c1.6.5 2.1-1 3.7-.5s1.2 2 2.8 2.4M419.3 17h3.2v10.4h-3.2zM421 16.7s-2.8-1.6-2-4.1c0 0 1.1-1 2-4 0 0 4.5 4.8 0 8.1z"/><g fill="none" stroke="#A26415" stroke-miterlimit="10"><circle cx="-112.1" cy="29.2" r="26.2"/><path stroke-linecap="round" stroke-linejoin="round" d="M-92.5 46.5V35.1h-39.2v11M-96.4 35V22.8h-31.3V35"/><path stroke-linecap="round" stroke-linejoin="round" d="M-131.5 44.2c.7.3 1.6.5 2.5.5 2.6 0 4.8-1.7 5.6-4 .8 2.3 3 4 5.6 4s4.8-1.7 5.6-4c.8 2.3 3 4 5.6 4s4.8-1.7 5.6-4c.8 2.3 3 4 5.6 4 1 0 1.9-.2 2.7-.6M-127.5 31.1c2.2-.3 4-1.7 4.7-3.7.8 2.2 2.9 3.8 5.4 3.8s4.6-1.6 5.4-3.8c.8 2.2 2.9 3.8 5.4 3.8s4.6-1.6 5.4-3.8c.7 2.1 2.6 3.6 4.9 3.8M-117.4 16.5c-.2-.4-.4-.9-.4-1.4 0-1.6 1.3-3 3-3 1.3 0 2.3.8 2.8 1.9.4-1.1 1.5-1.9 2.8-1.9 1.6 0 3 1.3 3 3 0 .5-.1 1-.4 1.4l-5.3 5.5-5.5-5.5z"/></g><g fill="none" stroke="#A26415" stroke-miterlimit="10"><circle cx="-49.6" cy="29.2" r="26.2"/><g stroke-linecap="round" stroke-linejoin="round"><path d="M-60.2 18.3l-1.9 1.9v8.6l15.7 15.7 13.2-13.1-15.6-15.7h-8.4l-1 1.1M-57 20.9l2.9 2.9M-67.6 10.3L-57 20.9"/><path d="M-54.6 20.1c1.9 0 3.5 1.5 3.5 3.5s-1.5 3.5-3.5 3.5-3.5-1.5-3.5-3.5c0-1 .4-1.9 1.1-2.5"/></g></g><g><defs><circle id="a" cx="-299.8" cy="29.2" r="26.2"/></defs><clipPath id="b"><use xlink:href="#a" overflow="visible"/></clipPath><path clip-path="url(#b)" fill="none" stroke="#A26415" stroke-miterlimit="10" d="M-297.8 45.8v-4.3l5.1-.9c3.4-1 5.1-3.3 3.8-6l-8.4-21.9c-1.3-2.8-3.5-2.8-4.9 0l-8.4 21.9c-1.3 2.8-.7 5.1 2.8 6l6.2.9v4.3"/><defs><circle id="c" cx="-299.8" cy="29.2" r="26.2"/></defs><clipPath id="d"><use xlink:href="#c" overflow="visible"/></clipPath><path clip-path="url(#d)" fill="none" stroke="#A26415" stroke-miterlimit="10" d="M-302.5 45.8h5.5V49h-5.5z"/><g><defs><circle id="e" cx="-299.8" cy="29.2" r="26.2"/></defs><clipPath id="f"><use xlink:href="#e" overflow="visible"/></clipPath><path clip-path="url(#f)" fill="none" stroke="#A26415" stroke-miterlimit="10" d="M-296 73.3h-7.4l.9-24.3h5.5z"/></g><g><defs><circle id="g" cx="-299.8" cy="29.2" r="26.2"/></defs><clipPath id="h"><use xlink:href="#g" overflow="visible"/></clipPath><path clip-path="url(#h)" fill="none" stroke="#A26415" stroke-miterlimit="10" d="M-299.1 23.9l-7.1 9.9"/></g><g><defs><circle id="i" cx="-299.8" cy="29.2" r="26.2"/></defs><clipPath id="j"><use xlink:href="#i" overflow="visible"/></clipPath><path clip-path="url(#j)" fill="none" stroke="#A26415" stroke-miterlimit="10" d="M-300.3 29.8l-3.8 5.4"/></g><g><circle fill="none" stroke="#A26415" stroke-miterlimit="10" cx="-299.8" cy="29.2" r="26.2"/></g><circle fill="none" stroke="#A26415" stroke-miterlimit="10" cx="-299.8" cy="29.2" r="26.2"/></g><g><path fill="#A26415" d="M29.7 56.7c-15.16 0-27.5-12.34-27.5-27.5S14.54 1.7 29.7 1.7s27.5 12.34 27.5 27.5-12.34 27.5-27.5 27.5zm0-54C15.09 2.7 3.2 14.59 3.2 29.2s11.89 26.5 26.5 26.5 26.5-11.89 26.5-26.5S44.31 2.7 29.7 2.7z"/><path fill="#A26415" d="M34.85 47.23c1.34-1.24 2.16-2.99 2.16-4.84 0-1.96-.82-6.18-2.06-10.2-.62-1.96-1.44-3.81-2.27-5.26-.52-.82-1.03-1.44-1.65-1.85.1-.1.21-.21.21-.31V8.38c0-.21-.21-.41-.31-.31h-2.37c-.21 0-.31.21-.31.31v16.39c0 .1.1.21.21.31-.62.41-1.13 1.13-1.65 1.96-.82 1.34-1.65 3.3-2.27 5.26-1.24 3.92-2.06 8.24-2.06 10.2 0 3.5 2.78 6.29 6.29 6.8.72.1 1.34.1 1.96 0 1.44-.31 2.99-.93 4.12-2.07zm-.41-.41c-.52.41-1.13.82-1.75 1.13.21-.21.41-.41.62-.72.93-1.24 1.44-2.99 1.44-4.84s-.52-6.18-1.34-10.1c-.41-1.96-.93-3.81-1.55-5.15 0-.1-.1-.21-.1-.31.1.21.31.41.41.62.82 1.34 1.55 3.09 2.16 5.05 1.24 3.92 2.06 8.24 2.06 9.89.01 1.75-.82 3.3-1.95 4.43zm-2.47.72c-.41.31-.82.62-1.24.82.21-.31.31-.72.41-1.24.31-1.24.52-2.89.52-4.74s-.21-6.18-.52-10.1c-.1-1.96-.31-3.81-.52-5.15-.1-.41-.1-.72-.21-1.03.21.31.41.72.62 1.24.52 1.34 1.03 3.09 1.44 5.05.82 3.92 1.34 8.24 1.34 10 0 1.75-.52 3.3-1.34 4.43.01.31-.19.52-.5.72zm-2.06.83c-.1.21-.21.21-.21.21-.1 0-.21-.1-.41-.31-.21-.31-.41-.72-.52-1.34-.31-1.13-.52-2.78-.52-4.53 0-1.75.21-6.08.52-10 .21-1.96.31-3.81.52-5.15.1-.62.21-1.24.31-1.55.1.31.21.93.31 1.55.21 1.34.41 3.19.52 5.15.31 3.92.52 8.24.52 10 0 1.75-.21 3.4-.52 4.53-.1.62-.31 1.03-.52 1.34.1-.01 0 .1 0 .1zm-1.34 0c-.72-.31-1.34-.82-1.85-1.55-.82-1.13-1.34-2.68-1.34-4.43 0-1.75.52-6.08 1.34-10 .41-1.96.93-3.71 1.44-5.05.21-.52.41-.93.62-1.24-.1.31-.1.62-.21 1.03-.21 1.34-.41 3.19-.52 5.15-.31 3.92-.52 8.24-.52 10.1s.21 3.5.52 4.74c.1.53.31.84.52 1.25zm-1.96-.41c-2.16-1.03-3.71-3.09-3.71-5.46 0-1.65.82-6.08 2.06-9.89.62-1.96 1.34-3.71 2.16-5.05.1-.21.31-.41.41-.62 0 .1-.1.21-.1.31-.62 1.34-1.03 3.19-1.55 5.15-.82 3.92-1.34 8.24-1.34 10.1v.1c0 1.85.52 3.5 1.44 4.74.22.1.42.31.63.62zm3.91-23.5h-1.65V8.8h1.65v15.66z"/></g></svg>