<svg xmlns="http://www.w3.org/2000/svg" xmlns:xlink="http://www.w3.org/1999/xlink" width="62.75" height="62.75" viewBox="0 0 62.75 62.75"><defs><circle id="a" cx="-123.56" cy="31.38" r="30.84"/></defs><clipPath id="b"><use xlink:href="#a" overflow="visible"/></clipPath><path clip-path="url(#b)" fill="none" stroke="#A26415" stroke-width="1.064" stroke-miterlimit="10" d="M-121.31 50.89v-5.05l6.03-1.08c4.04-1.14 6.06-3.82 4.48-7.1l-9.89-25.74c-1.57-3.28-4.14-3.28-5.71 0l-9.89 25.74c-1.57 3.28-.78 5.96 3.26 7.1l7.26 1.08v5.05M-126.76 50.89h6.44v3.71h-6.44zM-119.17 83.15h-8.74l1.15-28.55h6.44zM-122.84 25.08l-8.3 11.62M-124.16 32.03l-4.55 6.36"/><use xlink:href="#a" overflow="visible" fill="none" stroke="#A26415" stroke-width="1.064" stroke-miterlimit="10"/><circle fill="none" stroke="#A26415" stroke-width="1.064" stroke-miterlimit="10" cx="-45.95" cy="31.38" r="30.84"/><circle fill="none" stroke="#A26415" stroke-width="1.064" stroke-miterlimit="10" cx="-123.56" cy="31.38" r="30.84"/><g><path fill="#A26415" d="M-39.98 51.98c1.54-1.42 2.49-3.37 2.49-5.55s-.91-7.1-2.38-11.59c-.74-2.24-1.61-4.37-2.6-5.95-.57-.92-1.21-1.68-1.9-2.17.15-.07.19-.23.18-.35V7.72c0-.23-.2-.42-.41-.41h-2.71a.405.405 0 0 0-.41.41l-.01 18.64c0 .14.08.27.21.35-.7.47-1.32 1.24-1.91 2.18-.99 1.58-1.86 3.71-2.6 5.95-1.47 4.49-2.38 9.41-2.39 11.59 0 3.94 3.15 7.18 7.22 7.73.77.11 1.5.08 2.26.02 1.92-.21 3.66-1 4.96-2.2zm-.56-.59c-.58.51-1.24.96-1.97 1.29.23-.25.45-.49.65-.77 1.02-1.43 1.63-3.36 1.64-5.49-.01-2.13-.6-7.08-1.57-11.56-.48-2.23-1.07-4.33-1.72-5.92-.05-.13-.09-.26-.15-.38.17.24.34.48.5.75.93 1.49 1.8 3.56 2.52 5.76 1.44 4.42 2.34 9.41 2.34 11.34-.01 1.95-.86 3.71-2.24 4.98zm-2.72.9c-.43.41-.89.71-1.4.9.18-.39.36-.85.5-1.41.38-1.39.62-3.27.61-5.35.01-2.09-.21-7.04-.58-11.49-.17-2.23-.39-4.33-.63-5.89-.08-.47-.15-.87-.24-1.22.25.37.49.86.73 1.45.62 1.5 1.19 3.57 1.66 5.77.95 4.43 1.54 9.41 1.54 11.38 0 1.97-.57 3.75-1.48 5.01a5 5 0 0 1-.71.85zm-2.41.96c-.13.15-.24.2-.29.18-.07.01-.23-.06-.42-.38-.21-.33-.42-.83-.6-1.48-.35-1.29-.56-3.13-.57-5.16.01-2.02.23-6.99.59-11.41.19-2.22.39-4.31.64-5.83.12-.76.24-1.39.35-1.79.01-.01.01-.01.01-.03 0 .02 0 .02.01.03.12.41.25 1.03.37 1.79.25 1.52.45 3.62.64 5.83.36 4.43.57 9.39.58 11.41-.01 2.02-.23 3.86-.58 5.16-.17.65-.39 1.15-.6 1.48-.03.09-.1.15-.13.2zm-1.58-.06c-.79-.32-1.53-.91-2.12-1.75-.91-1.26-1.48-3.04-1.48-5.01 0-1.97.59-6.95 1.54-11.38.48-2.21 1.05-4.27 1.67-5.77.24-.59.48-1.08.73-1.45-.08.35-.16.76-.24 1.22-.24 1.55-.45 3.66-.63 5.89-.37 4.46-.6 9.41-.59 11.49-.01 2.09.23 3.96.6 5.35.16.56.34 1.02.52 1.41zm-2.17-.5c-2.5-1.16-4.18-3.52-4.18-6.26 0-1.93.91-6.92 2.34-11.34.72-2.2 1.58-4.27 2.52-5.76.15-.26.32-.48.47-.7-.04.1-.08.21-.13.32-.66 1.58-1.23 3.7-1.72 5.93-.97 4.48-1.56 9.43-1.57 11.56.01.03.01.05.02.08.01 2.11.62 4.01 1.61 5.41.21.27.42.51.64.76zm4.41-26.72h-1.89V8.14l1.9-.02-.01 17.85z"/></g><g fill="#A26415"><path d="M31.39 62.75C14.08 62.75.01 48.68 0 31.38 0 14.08 14.07 0 31.37 0s31.38 14.07 31.39 31.37c0 8.38-3.26 16.26-9.18 22.19-5.94 5.92-13.81 9.19-22.19 9.19zm-.01-61.69c-16.72 0-30.32 13.61-30.31 30.32.01 16.71 13.6 30.3 30.31 30.3v.53l.01-.53c8.1 0 15.71-3.16 21.43-8.88 5.72-5.73 8.87-13.34 8.87-21.44-.01-16.7-13.61-30.3-30.31-30.3z"/><path d="M50.57 27.39h-1.92c-.77-3.05-2.74-5.84-5.6-7.9l.35-6.64a.393.393 0 0 0-.23-.38.383.383 0 0 0-.44.08l-4.61 4.46a20.27 20.27 0 0 0-6.43-1.03c-7.99 0-14.73 4.49-16.73 10.58-1.37-.02-2.64-.7-3.42-1.88-.83-1.26-.94-2.8-.3-4.13.09-.2.01-.43-.18-.52a.407.407 0 0 0-.53.18c-.76 1.58-.63 3.41.36 4.91a4.92 4.92 0 0 0 3.85 2.23c-.25.96-.38 1.96-.38 2.99 0 3.71 1.69 7.2 4.77 9.88l-1.63 3.1c-.39.72-.12 1.63.6 2.02l3.79 2.06c.7.38 1.64.1 2.03-.6l1.61-3.06c4.08 1.29 8.64 1.25 12.65-.09l1.86 3.15a1.502 1.502 0 0 0 2.03.6l3.79-2.06c.35-.19.6-.51.72-.89.11-.38.07-.79-.13-1.15L44.51 40c1.53-1.38 2.7-2.97 3.48-4.73h2.62c.78 0 1.41-.63 1.41-1.41V28.8c-.04-.78-.67-1.41-1.45-1.41zm.62 6.46c0 .34-.28.62-.63.62h-2.88c-.16 0-.3.1-.36.24-.77 1.84-1.99 3.48-3.62 4.9-.14.12-.18.33-.08.5l2.1 3.57c.09.16.11.36.06.54-.05.18-.17.33-.34.42l-3.79 2.06c-.33.18-.78.05-.96-.3l-2.03-3.44a.39.39 0 0 0-.34-.19c-.04 0-.09.01-.13.02-4.03 1.41-8.65 1.46-12.76.09a.393.393 0 0 0-.47.19l-1.76 3.34c-.18.33-.62.47-.96.28l-3.79-2.06a.706.706 0 0 1-.28-.96l1.78-3.38c.09-.16.05-.37-.1-.49-3.05-2.55-4.73-5.92-4.73-9.48 0-7.48 7.43-13.56 16.55-13.56 2.2 0 4.35.36 6.4 1.07.14.05.3.01.4-.09l4.07-3.93-.31 5.85c-.01.14.06.26.17.34 2.89 2.03 4.86 4.82 5.54 7.86.04.18.2.31.38.31h2.23c.35 0 .63.28.63.63l.01 5.05z"/><path d="M41.33 47.68c-.59 0-1.14-.32-1.42-.84l-1.81-3.06c-2.04.67-4.19 1.01-6.4 1.01-2.11 0-4.17-.31-6.13-.92L24 46.83a1.656 1.656 0 0 1-2.19.66l-3.79-2.06c-.38-.2-.65-.54-.78-.96s-.08-.85.13-1.23l1.59-3.01c-3.06-2.69-4.75-6.21-4.75-9.91 0-.96.12-1.93.35-2.88a5.023 5.023 0 0 1-3.8-2.27 5.046 5.046 0 0 1-.36-5.02c.12-.25.43-.36.68-.24.12.06.22.16.26.29.04.13.04.27-.02.39-.62 1.29-.51 2.79.3 4.01a3.986 3.986 0 0 0 3.24 1.82c2.1-6.23 9-10.58 16.82-10.58 2.19 0 4.34.34 6.4 1.02l4.56-4.41a.54.54 0 0 1 .57-.1c.19.09.31.28.3.49l-.34 6.57c2.81 2.04 4.79 4.82 5.57 7.84h1.83c.41 0 .79.16 1.08.45.29.29.45.67.45 1.08v5.05c0 .84-.69 1.53-1.53 1.53h-2.54c-.77 1.72-1.92 3.27-3.4 4.63l1.89 3.21c.21.39.26.83.14 1.24-.12.41-.4.75-.77.96l-3.79 2.06c-.24.15-.5.22-.77.22zm-3.12-4.19l1.91 3.23c.24.45.71.72 1.21.72.23 0 .45-.06.65-.17l3.79-2.06c.32-.17.56-.46.66-.82.1-.35.06-.73-.12-1.06l-1.99-3.38.07-.06c1.52-1.37 2.67-2.95 3.45-4.69l.03-.07h2.69c.71 0 1.29-.58 1.29-1.29V28.8c0-.34-.13-.67-.38-.91-.25-.25-.57-.38-.92-.38h-2.01l-.02-.09c-.76-3.02-2.73-5.8-5.56-7.83l-.05-.04v-.06l.35-6.64a.263.263 0 0 0-.16-.26c-.1-.05-.23-.02-.31.05l-4.66 4.51-.07-.02a20.31 20.31 0 0 0-6.39-1.03c-7.75 0-14.58 4.32-16.62 10.5l-.03.08h-.09a4.292 4.292 0 0 1-3.52-1.93c-.85-1.29-.97-2.88-.31-4.25.03-.07.04-.14.01-.21-.02-.07-.07-.12-.14-.16a.285.285 0 0 0-.37.13c-.74 1.54-.61 3.33.35 4.79.86 1.3 2.23 2.09 3.76 2.17l.15.01-.04.14c-.25.98-.38 1.97-.38 2.96 0 3.66 1.68 7.14 4.74 9.79l.07.06-1.68 3.18c-.17.32-.21.69-.11 1.05s.34.64.66.82l3.79 2.06c.19.1.41.16.63.16.52 0 1-.28 1.24-.71l1.66-3.14.09.03c1.96.62 4.03.94 6.15.94 2.22 0 4.38-.34 6.42-1.02l.11-.06zm3.13 3.4c-.31 0-.6-.17-.74-.44l-2.03-3.43a.29.29 0 0 0-.33-.12c-2.07.73-4.27 1.1-6.54 1.1-2.17 0-4.29-.34-6.29-1.01a.29.29 0 0 0-.33.13l-1.76 3.34c-.14.26-.43.43-.74.43a.72.72 0 0 1-.38-.1l-3.79-2.06a.834.834 0 0 1-.33-1.12l1.78-3.38c.06-.11.03-.26-.07-.34-3.08-2.58-4.78-5.98-4.78-9.58 0-7.54 7.48-13.68 16.67-13.68 2.21 0 4.37.36 6.44 1.07.1.03.21.01.28-.06l4.28-4.14-.32 6.16c0 .09.04.18.12.24 2.92 2.04 4.9 4.86 5.59 7.93.03.12.14.21.27.21h2.23c.41 0 .74.33.74.74v5.05c0 .41-.33.74-.74.74h-2.88c-.11 0-.21.07-.25.17-.78 1.85-2 3.51-3.65 4.94a.29.29 0 0 0-.06.35l2.1 3.57c.11.2.13.42.07.63a.8.8 0 0 1-.39.49l-3.79 2.06a.67.67 0 0 1-.38.11zm-3.01-4.25c.18 0 .35.1.44.25l2.03 3.44c.11.2.31.32.54.32.09 0 .19-.02.27-.07l3.79-2.06c.14-.07.24-.2.28-.35.05-.15.03-.31-.04-.45l-2.1-3.56a.522.522 0 0 1 .11-.65c1.62-1.4 2.82-3.04 3.58-4.86.08-.19.27-.31.47-.31h2.88c.28 0 .51-.23.51-.51V28.8c0-.28-.23-.51-.51-.51h-2.23c-.24 0-.45-.17-.5-.4-.67-3.02-2.62-5.78-5.49-7.79a.524.524 0 0 1-.22-.45l.29-5.55-3.85 3.72a.52.52 0 0 1-.52.12c-2.04-.7-4.18-1.06-6.36-1.06-9.06 0-16.44 6.03-16.44 13.44 0 3.53 1.67 6.86 4.69 9.39.18.15.24.42.12.63l-1.78 3.38c-.16.29-.05.65.23.8l3.79 2.06c.27.14.65.03.8-.24L24.87 43c.11-.22.38-.33.62-.25 1.98.66 4.07 1 6.22 1 2.24 0 4.42-.36 6.46-1.08.04-.02.1-.03.16-.03z"/><path d="M24.57 22.6c-.17 0-.34-.09-.44-.25a.505.505 0 0 1 .18-.69c.26-.15 6.36-3.65 12.61-.73a.504.504 0 0 1-.43.91c-5.75-2.7-11.61.65-11.67.68-.08.06-.16.08-.25.08zM41.85 27.24c-1.13 0-2.05-.92-2.05-2.05s.92-2.05 2.05-2.05 2.05.92 2.05 2.05-.93 2.05-2.05 2.05zm0-3.08c-.57 0-1.04.46-1.04 1.04s.46 1.04 1.04 1.04 1.04-.46 1.04-1.04-.47-1.04-1.04-1.04z"/></g></svg>