<?xml version="1.0" encoding="utf-8"?>
<!-- Generator: Adobe Illustrator 18.0.0, SVG Export Plug-In . SVG Version: 6.00 Build 0)  -->
<!DOCTYPE svg PUBLIC "-//W3C//DTD SVG 1.1//EN" "http://www.w3.org/Graphics/SVG/1.1/DTD/svg11.dtd">
<svg version="1.1" id="Layer_1" xmlns="http://www.w3.org/2000/svg" xmlns:xlink="http://www.w3.org/1999/xlink" x="0px" y="0px"
	 width="192px" height="20.6px" viewBox="0 0 192 20.6" enable-background="new 0 0 192 20.6" xml:space="preserve">
<g>
	<defs>
		<rect id="SVGID_1_" y="0" width="192" height="20.6"/>
	</defs>
	<clipPath id="SVGID_2_">
		<use xlink:href="#SVGID_1_"  overflow="visible"/>
	</clipPath>
	<path clip-path="url(#SVGID_2_)" d="M183.4,19c0.8,1.1,2.1,1.6,3.7,1.6c1.6,0,2.8-0.6,3.7-1.8c0.8-1,1.2-2.4,1.2-3.9
		c0-1.7-0.6-3-1.7-4.1c-0.4-0.4-0.9-0.7-1.3-1c-0.5-0.2-0.8-0.4-1.1-0.5l-0.4-0.2c-0.3-0.1-0.7-0.3-1-0.5c-0.3-0.2-0.6-0.4-0.8-0.6
		c-0.2-0.2-0.4-0.5-0.6-0.9c-0.1-0.3-0.2-0.8-0.2-1.2c0-0.2,0-0.5,0.1-0.8c0-0.4,0.1-0.7,0.3-1.1c0.2-0.4,0.4-0.7,0.7-0.9
		c0.3-0.3,0.7-0.4,1.2-0.4c0.2,0,0.4,0,0.7,0.1c0.3,0,0.5,0.2,0.8,0.3c0.2,0.2,0.4,0.5,0.6,1c0.2,0.4,0.2,1.1,0.2,1.9v1.3h1V5.9
		c0-1.5-0.3-2.5-0.8-3.2c-0.5-0.7-1.4-1-2.4-1c-0.6,0-1.1,0.1-1.5,0.4c-0.4,0.3-0.8,0.6-1,1c-0.3,0.4-0.4,0.9-0.6,1.4
		c-0.1,0.5-0.2,1-0.2,1.5c0,0.7,0.1,1.3,0.3,1.7c0.2,0.5,0.5,0.9,0.9,1.2c0.3,0.3,0.7,0.6,1,0.8c0.4,0.2,0.7,0.3,0.9,0.4l0.4,0.2
		c0.2,0.1,0.6,0.2,1,0.4c0.4,0.2,0.8,0.5,1.2,0.8c0.4,0.4,0.7,0.8,1,1.4c0.3,0.5,0.4,1.2,0.4,2c0,0.7-0.1,1.3-0.3,1.9
		c-0.2,0.6-0.4,1.1-0.7,1.5c-0.3,0.5-0.7,0.8-1.2,1c-0.5,0.2-1.1,0.3-1.7,0.3c-1.3,0-2.3-0.4-3-1.2c-0.6-0.8-1-2-1-3.6v-1.3h-1v1.3
		C182.2,16.6,182.6,18,183.4,19 M183.9,10.1c0.4,0.4,0.9,0.8,1.3,1c0.5,0.2,0.8,0.4,1.1,0.5l0.5,0.2c0.3,0.1,0.6,0.3,0.9,0.4
		c0.3,0.2,0.6,0.4,0.8,0.6c0.2,0.2,0.4,0.5,0.6,0.9c0.1,0.3,0.2,0.7,0.2,1.2c0,0.3,0,0.6-0.1,1c0,0.4-0.1,0.7-0.3,1
		c-0.2,0.3-0.4,0.6-0.7,0.8c-0.3,0.2-0.7,0.3-1.2,0.3c-0.5,0-0.9-0.1-1.1-0.2c-0.2-0.1-0.4-0.3-0.5-0.4c-0.4-0.5-0.6-1.4-0.6-2.6
		v-1.3h-1v1.3c0,1.4,0.3,2.5,0.8,3.2c0.5,0.7,1.3,1,2.4,1c1,0,1.8-0.4,2.4-1.1c0.6-0.7,0.9-1.7,0.9-3c0-0.7-0.1-1.3-0.4-1.7
		c-0.2-0.5-0.5-0.9-0.9-1.2c-0.3-0.3-0.7-0.5-1-0.7c-0.3-0.2-0.6-0.3-0.9-0.4l-0.5-0.2c-0.3-0.1-0.6-0.3-1-0.5
		c-0.4-0.2-0.8-0.5-1.2-0.9c-0.4-0.4-0.7-0.8-1-1.4c-0.3-0.6-0.4-1.2-0.4-2c0-1.4,0.3-2.6,1-3.4c0.7-1,1.7-1.5,3-1.5
		c1.3,0,2.3,0.4,2.9,1.3c0.7,0.8,1,2,1,3.6v1.3h1V5.9c0-1.8-0.4-3.2-1.2-4.3c-0.3-0.4-0.7-0.7-1.3-1.1c-0.6-0.3-1.4-0.5-2.4-0.5
		c-0.7,0-1.4,0.1-2,0.4c-0.6,0.3-1.1,0.7-1.6,1.2c-0.4,0.5-0.8,1.1-1,1.9c-0.2,0.7-0.3,1.5-0.3,2.4C182.2,7.6,182.7,9,183.9,10.1
		 M179.8,10V9h-5.9V2.7h5.9v-1h-6.9V10H179.8z M179.8,18.9v-1h-5.9v-6.3h5.9v-1h-6.9v8.3H179.8z M179.8,20.6v-1h-7.5v-9V10V1h7.5v-1
		h-8.5v20.5H179.8z M168.3,20.6h1.1l-6.1-10.9l6.2-9.6h-1.2l-6.2,9.6L168.3,20.6z M167.6,0h-1.1l-5.8,9V0h-1v12.3L167.6,0z
		 M160.7,20.6v-6.7l1.1-1.7l4.7,8.4h1.1l-5.7-10.3l-2.1,3.3v7H160.7z M158,13.1v7.4h1V0h-1V13.1L158,13.1L158,13.1z M150.5,7.2
		l1.2,5h-2.3L150.5,7.2z M152.9,13.2l-2.4-10.4L148,13.2H152.9z M147.4,20.6l1.3-5.7h3.6l1.3,5.7h1l-1.6-6.7h-5.1l-1.6,6.7H147.4z
		 M145.7,20.6l4.5-19.4h0.6l4.5,19.4h1l-4.8-20.5h-0.2h-0.8h-0.1h-0.8h-0.2l-4.8,20.5H145.7z M137.3,18.9c2.2,0,3.2-1.4,3.2-4.2
		v-1.3h-1v1.3c0,1.2-0.2,2.1-0.6,2.6c-0.1,0.2-0.3,0.3-0.5,0.4c-0.2,0.1-0.6,0.2-1.1,0.2c-0.5,0-0.9-0.1-1.1-0.2
		c-0.2-0.1-0.4-0.3-0.5-0.4c-0.4-0.5-0.6-1.4-0.6-2.6V5.9c0-0.8,0.1-1.4,0.2-1.9c0.2-0.4,0.4-0.8,0.6-1c0.2-0.2,0.5-0.3,0.7-0.3
		c0.2,0,0.5-0.1,0.7-0.1c0.2,0,0.4,0,0.7,0.1c0.3,0,0.5,0.2,0.7,0.3c0.2,0.2,0.4,0.5,0.6,1c0.2,0.4,0.2,1.1,0.2,1.9v1.3h1V5.9
		c0-2.8-1.1-4.2-3.2-4.2c-2.2,0-3.2,1.4-3.2,4.2v8.8C134.1,17.5,135.2,18.9,137.3,18.9 M133.6,18.9c0.1,0.2,0.3,0.4,0.5,0.6
		c0.2,0.2,0.5,0.4,0.8,0.5c0.3,0.2,0.7,0.3,1,0.4c0.4,0.1,0.8,0.2,1.3,0.2c1,0,1.8-0.2,2.4-0.5c0.6-0.4,1-0.7,1.3-1.1
		c0.8-1,1.2-2.4,1.2-4.2v-1.3h-1v1.3c0,1-0.1,1.8-0.4,2.5c-0.2,0.6-0.5,1.1-0.9,1.5c-0.4,0.4-0.8,0.6-1.2,0.7
		c-0.5,0.1-0.9,0.2-1.4,0.2c-0.4,0-0.9-0.1-1.4-0.2c-0.5-0.1-0.9-0.4-1.3-0.7c-0.4-0.4-0.7-0.9-0.9-1.5c-0.2-0.6-0.4-1.5-0.4-2.5
		V5.9c0-1.6,0.3-2.8,1-3.6c0.7-0.8,1.6-1.2,2.9-1.2c1.3,0,2.3,0.4,2.9,1.2c0.6,0.8,1,2,1,3.6v1.3h1V5.9c0-1.8-0.4-3.2-1.2-4.2
		c-0.3-0.4-0.7-0.7-1.3-1.1c-0.6-0.4-1.4-0.5-2.4-0.5c-0.5,0-0.9,0-1.3,0.1c-0.4,0.1-0.7,0.2-1,0.4c-0.3,0.2-0.6,0.3-0.8,0.5
		c-0.2,0.2-0.4,0.4-0.5,0.6c-0.8,1-1.2,2.4-1.2,4.2v8.8C132.4,16.6,132.8,18,133.6,18.9 M120.9,10V9H115V2.7h5.9v-1h-6.9V10H120.9z
		 M120.9,18.9v-1H115v-6.3h5.9v-1h-6.9v8.3H120.9z M120.9,20.6v-1h-7.5v-9V10V1h7.5v-1h-8.5v20.5H120.9z M105.3,18.9
		c2.2,0,3.2-1.4,3.2-4.2v-1.3h-1v1.3c0,1.2-0.2,2.1-0.6,2.6c-0.1,0.2-0.3,0.3-0.5,0.4c-0.2,0.1-0.6,0.2-1.1,0.2
		c-0.5,0-0.9-0.1-1.1-0.2c-0.2-0.1-0.4-0.3-0.5-0.4c-0.4-0.5-0.6-1.4-0.6-2.6V5.9c0-0.8,0.1-1.4,0.2-1.9c0.2-0.4,0.4-0.8,0.6-1
		c0.2-0.2,0.5-0.3,0.7-0.3c0.2,0,0.5-0.1,0.7-0.1c0.2,0,0.4,0,0.7,0.1c0.3,0,0.5,0.2,0.7,0.3c0.2,0.2,0.4,0.5,0.6,1
		c0.2,0.4,0.2,1.1,0.2,1.9v1.3h1V5.9c0-2.8-1.1-4.2-3.2-4.2c-2.2,0-3.2,1.4-3.2,4.2v8.8C102.1,17.5,103.2,18.9,105.3,18.9
		 M101.6,18.9c0.1,0.2,0.3,0.4,0.5,0.6c0.2,0.2,0.5,0.4,0.8,0.5s0.7,0.3,1,0.4c0.4,0.1,0.8,0.2,1.3,0.2c1,0,1.8-0.2,2.4-0.5
		c0.6-0.4,1-0.7,1.3-1.1c0.8-1,1.2-2.4,1.2-4.2v-1.3h-1v1.3c0,1-0.1,1.8-0.4,2.5c-0.2,0.6-0.5,1.1-0.9,1.5c-0.4,0.4-0.8,0.6-1.2,0.7
		c-0.5,0.1-0.9,0.2-1.4,0.2c-0.4,0-0.9-0.1-1.4-0.2c-0.5-0.1-0.9-0.4-1.3-0.7c-0.4-0.4-0.7-0.9-0.9-1.5s-0.4-1.5-0.4-2.5V5.9
		c0-1.6,0.3-2.8,1-3.6c0.7-0.8,1.6-1.2,2.9-1.2c1.3,0,2.3,0.4,2.9,1.2c0.6,0.8,1,2,1,3.6v1.3h1V5.9c0-1.8-0.4-3.2-1.2-4.2
		c-0.3-0.4-0.7-0.7-1.3-1.1c-0.6-0.4-1.4-0.5-2.4-0.5c-0.5,0-0.9,0-1.3,0.1c-0.4,0.1-0.7,0.2-1,0.4c-0.3,0.2-0.6,0.3-0.8,0.5
		c-0.2,0.2-0.4,0.4-0.5,0.6c-0.8,1-1.2,2.4-1.2,4.2v8.8C100.5,16.6,100.9,18,101.6,18.9 M90.7,20.5V8.1l5,12.4H96h0.7h0.1h0.7h0.3V0
		h-1v19.5h-0.6L89.7,3v17.5H90.7z M89,20.5V1h0.6l6.7,16.5V0h-1v12.4L90.3,0h-0.3h-0.7H89h-0.7h-0.3v20.5H89z M80.5,7.2l1.2,5h-2.3
		L80.5,7.2z M82.9,13.2L80.5,2.8l-2.4,10.4H82.9z M77.4,20.6l1.3-5.7h3.6l1.3,5.7h1l-1.6-6.7H78l-1.6,6.7H77.4z M75.7,20.6l4.5-19.4
		h0.6l4.5,19.4h1L81.6,0.1h-0.2h-0.8h-0.1h-0.8h-0.2l-4.8,20.5H75.7z M65.6,2.7h1.5c0.3,0,0.7,0,1,0.1c0.3,0.1,0.6,0.2,0.8,0.4
		c0.2,0.2,0.4,0.6,0.6,1c0.1,0.4,0.2,1,0.2,1.8v8.6c0,0.8-0.1,1.4-0.2,1.8c-0.1,0.4-0.3,0.8-0.6,1c-0.2,0.2-0.5,0.4-0.8,0.4
		c-0.3,0.1-0.6,0.1-1,0.1h-1.5V2.7z M67.1,18.9c1.3,0,2.2-0.3,2.7-1c0.6-0.7,0.9-1.8,0.9-3.3V6c0-1.5-0.3-2.6-0.9-3.3
		c-0.5-0.7-1.4-1.1-2.7-1.1h-2.4v17.2H67.1z M64,1.7h-1v17.2h1V1.7z M67.1,20.6c1.8,0,3.1-0.5,4-1.6c0.8-1,1.2-2.4,1.2-4.3V6
		c0-1.9-0.4-3.3-1.2-4.3c-0.9-1.1-2.2-1.7-4-1.7H63v1h1h0.3h2.8c1.4,0,2.5,0.4,3.2,1.3c0.7,0.8,1,2.1,1,3.7v8.6c0,1.6-0.3,2.8-1,3.7
		c-0.7,0.9-1.8,1.3-3.2,1.3h-2.8H64h-1v1H67.1z M43.4,19c0.8,1.1,2.1,1.6,3.7,1.6c1.6,0,2.8-0.6,3.7-1.8c0.8-1,1.2-2.4,1.2-3.9
		c0-1.7-0.6-3-1.7-4.1c-0.4-0.4-0.9-0.7-1.3-1c-0.5-0.2-0.8-0.4-1.1-0.5l-0.4-0.2c-0.3-0.1-0.7-0.3-1-0.5c-0.3-0.2-0.6-0.4-0.8-0.6
		c-0.2-0.2-0.4-0.5-0.6-0.9c-0.1-0.3-0.2-0.8-0.2-1.2c0-0.2,0-0.5,0.1-0.8c0-0.4,0.1-0.7,0.3-1.1c0.2-0.4,0.4-0.7,0.7-0.9
		c0.3-0.3,0.7-0.4,1.2-0.4c0.2,0,0.4,0,0.7,0.1c0.3,0,0.5,0.2,0.8,0.3c0.2,0.2,0.4,0.5,0.6,1c0.2,0.4,0.2,1.1,0.2,1.9v1.3h1V5.9
		c0-1.5-0.3-2.5-0.8-3.2c-0.5-0.7-1.4-1-2.4-1c-0.6,0-1.1,0.1-1.5,0.4c-0.4,0.3-0.8,0.6-1,1C44.3,3.5,44.2,4,44,4.5
		c-0.1,0.5-0.2,1-0.2,1.5c0,0.7,0.1,1.3,0.3,1.7c0.2,0.5,0.5,0.9,0.9,1.2c0.3,0.3,0.7,0.6,1,0.8c0.4,0.2,0.7,0.3,0.9,0.4l0.4,0.2
		c0.2,0.1,0.6,0.2,1,0.4c0.4,0.2,0.8,0.5,1.2,0.8c0.4,0.4,0.7,0.8,1,1.4c0.3,0.5,0.4,1.2,0.4,2c0,0.7-0.1,1.3-0.3,1.9
		s-0.4,1.1-0.7,1.5c-0.3,0.5-0.7,0.8-1.2,1c-0.5,0.2-1.1,0.3-1.7,0.3c-1.3,0-2.3-0.4-3-1.2c-0.6-0.8-1-2-1-3.6v-1.3h-1v1.3
		C42.2,16.6,42.6,18,43.4,19 M43.9,10.1c0.4,0.4,0.9,0.8,1.3,1c0.5,0.2,0.8,0.4,1.1,0.5l0.5,0.2c0.3,0.1,0.6,0.3,0.9,0.4
		c0.3,0.2,0.6,0.4,0.8,0.6c0.2,0.2,0.4,0.5,0.6,0.9c0.1,0.3,0.2,0.7,0.2,1.2c0,0.3,0,0.6-0.1,1c0,0.4-0.1,0.7-0.3,1
		c-0.2,0.3-0.4,0.6-0.7,0.8C48,17.9,47.6,18,47.1,18c-0.5,0-0.9-0.1-1.1-0.2c-0.2-0.1-0.4-0.3-0.5-0.4c-0.4-0.5-0.6-1.4-0.6-2.6
		v-1.3h-1v1.3c0,1.4,0.3,2.5,0.8,3.2c0.5,0.7,1.3,1,2.4,1c1,0,1.8-0.4,2.4-1.1c0.6-0.7,0.9-1.7,0.9-3c0-0.7-0.1-1.3-0.4-1.7
		c-0.2-0.5-0.5-0.9-0.9-1.2c-0.3-0.3-0.7-0.5-1-0.7c-0.3-0.2-0.6-0.3-0.9-0.4l-0.5-0.2c-0.3-0.1-0.6-0.3-1-0.5
		C45.4,10,45,9.7,44.6,9.3c-0.4-0.4-0.7-0.8-1-1.4c-0.3-0.6-0.4-1.2-0.4-2c0-1.4,0.3-2.6,1-3.4c0.7-1,1.7-1.5,3-1.5
		c1.3,0,2.3,0.4,2.9,1.3c0.7,0.8,1,2,1,3.6v1.3h1V5.9c0-1.8-0.4-3.2-1.2-4.3c-0.3-0.4-0.7-0.7-1.3-1.1c-0.6-0.3-1.4-0.5-2.4-0.5
		c-0.7,0-1.4,0.1-2,0.4c-0.6,0.3-1.1,0.7-1.6,1.2c-0.4,0.5-0.8,1.1-1,1.9c-0.2,0.7-0.3,1.5-0.3,2.4C42.2,7.6,42.8,9,43.9,10.1
		 M39.5,0h-1v20.5h1V0z M37.9,0h-1v20.5h1V0z M26.5,2.7h1.6c0.4,0,0.8,0,1.1,0.1c0.3,0.1,0.6,0.2,0.8,0.5c0.2,0.2,0.4,0.6,0.5,1
		c0.1,0.4,0.2,1,0.2,1.7c0,1.2-0.2,2.1-0.6,2.6c-0.1,0.1-0.2,0.2-0.5,0.4c-0.3,0.2-0.8,0.3-1.5,0.3h-1.3h-0.3V2.7z M27.8,10.1h0.3
		c1.3,0,2.2-0.3,2.7-1c0.6-0.7,0.8-1.7,0.8-3.2c0-1.5-0.3-2.6-0.8-3.2c-0.6-0.7-1.5-1-2.7-1h-2.6v8.4H27.8z M26.5,20.6v-8.8h0.3h1.3
		c1.8,0,2.6,0.9,2.6,2.7v6.1h1v-6.1c0-1.2-0.3-2.1-1-2.8c-0.6-0.6-1.5-1-2.7-1h-0.3h-2.3v9.8H26.5z M24.9,1h0.3h3
		c1.5,0,2.5,0.4,3.2,1.2c0.7,0.8,1,2,1,3.7c0,2.5-0.8,4-2.3,4.6c0.4,0.2,0.8,0.4,1.2,0.7c0.8,0.8,1.2,1.9,1.2,3.3v6.1h1v-6.1
		c0-0.9-0.1-1.6-0.4-2.3c-0.3-0.7-0.6-1.2-1.1-1.7c0.1,0,0.1-0.1,0.1-0.1c0-0.1,0.1-0.1,0.1-0.1c0.8-1,1.2-2.4,1.2-4.3
		c0-1.9-0.4-3.4-1.2-4.3c-0.9-1-2.2-1.6-4-1.6h-4.3v1H24.9z M24.9,1.7h-1v18.9h1V1.7z M21.2,20.6V0h-1V10v0.7v9.9H21.2z M19.5,10V0
		h-1v9h-3.9V0h-1V10H19.5z M14.6,20.6v-8.9h3.9v8.9h1v-9.9h-5.9v9.9H14.6z M12.9,20.6v-9.9V10V0h-1v20.5H12.9z M4.9,18.9
		c2.2,0,3.2-1.4,3.2-4.2v-1.3h-1v1.3c0,1.2-0.2,2.1-0.6,2.6c-0.1,0.2-0.3,0.3-0.5,0.4C5.7,17.9,5.4,18,4.9,18
		c-0.5,0-0.9-0.1-1.1-0.2c-0.2-0.1-0.4-0.3-0.5-0.4c-0.4-0.5-0.6-1.4-0.6-2.6V5.9c0-0.8,0.1-1.4,0.2-1.9c0.2-0.4,0.4-0.8,0.6-1
		c0.2-0.2,0.5-0.3,0.7-0.3c0.2,0,0.5-0.1,0.7-0.1c0.2,0,0.4,0,0.7,0.1c0.3,0,0.5,0.2,0.7,0.3c0.2,0.2,0.4,0.5,0.6,1
		C7,4.5,7.1,5.1,7.1,5.9v1.3h1V5.9c0-2.8-1.1-4.2-3.2-4.2c-2.2,0-3.2,1.4-3.2,4.2v8.8C1.6,17.5,2.7,18.9,4.9,18.9 M1.2,18.9
		c0.1,0.2,0.3,0.4,0.5,0.6c0.2,0.2,0.5,0.4,0.8,0.5c0.3,0.2,0.7,0.3,1,0.4c0.4,0.1,0.8,0.2,1.3,0.2c1,0,1.8-0.2,2.4-0.5
		c0.6-0.4,1-0.7,1.3-1.1c0.8-1,1.2-2.4,1.2-4.2v-1.3h-1v1.3c0,1-0.1,1.8-0.4,2.5c-0.2,0.6-0.5,1.1-0.9,1.5c-0.4,0.4-0.8,0.6-1.2,0.7
		c-0.5,0.1-0.9,0.2-1.4,0.2c-0.4,0-0.9-0.1-1.4-0.2C3,19.3,2.6,19,2.3,18.7c-0.4-0.4-0.7-0.9-0.9-1.5S1,15.7,1,14.7V5.9
		c0-1.6,0.3-2.8,1-3.6C2.6,1.4,3.6,1,4.9,1c1.3,0,2.3,0.4,2.9,1.2c0.6,0.8,1,2,1,3.6v1.3h1V5.9c0-1.8-0.4-3.2-1.2-4.2
		C8.3,1.3,7.8,1,7.2,0.6C6.7,0.2,5.9,0.1,4.9,0.1c-0.5,0-0.9,0-1.3,0.1c-0.4,0.1-0.7,0.2-1,0.4C2.2,0.8,1.9,0.9,1.7,1.1
		C1.5,1.3,1.3,1.5,1.2,1.7C0.4,2.7,0,4.1,0,5.9v8.8C0,16.6,0.4,18,1.2,18.9"/>
</g>
</svg>