<svg xmlns="http://www.w3.org/2000/svg" xmlns:xlink="http://www.w3.org/1999/xlink" width="192" height="20.6" viewBox="0 0 192 20.6"><defs><path id="a" d="M0 0h192v20.6H0z"/></defs><clipPath id="b"><use xlink:href="#a" overflow="visible"/></clipPath><path clip-path="url(#b)" d="M183.4 19c.8 1.1 2.1 1.6 3.7 1.6s2.8-.6 3.7-1.8c.8-1 1.2-2.4 1.2-3.9 0-1.7-.6-3-1.7-4.1-.4-.4-.9-.7-1.3-1-.5-.2-.8-.4-1.1-.5l-.4-.2c-.3-.1-.7-.3-1-.5-.3-.2-.6-.4-.8-.6-.2-.2-.4-.5-.6-.9-.1-.3-.2-.8-.2-1.2 0-.2 0-.5.1-.8 0-.4.1-.7.3-1.1.2-.4.4-.7.7-.9.3-.3.7-.4 1.2-.4.2 0 .4 0 .7.1.3 0 .5.2.8.3.2.2.4.5.6 1 .2.4.2 1.1.2 1.9v1.3h1V5.9c0-1.5-.3-2.5-.8-3.2-.5-.7-1.4-1-2.4-1-.6 0-1.1.1-1.5.4-.4.3-.8.6-1 1-.3.4-.4.9-.6 1.4-.1.5-.2 1-.2 1.5 0 .7.1 1.3.3 1.7.2.5.5.9.9 1.2.3.3.7.6 1 .8.4.2.7.3.9.4l.4.2c.2.1.6.2 1 .4s.8.5 1.2.8c.4.4.7.8 1 1.4.3.5.4 1.2.4 2 0 .7-.1 1.3-.3 1.9-.2.6-.4 1.1-.7 1.5-.3.5-.7.8-1.2 1-.5.2-1.1.3-1.7.3-1.3 0-2.3-.4-3-1.2-.6-.8-1-2-1-3.6v-1.3h-1v1.3c0 1.8.4 3.2 1.2 4.2m.5-8.9c.4.4.9.8 1.3 1 .5.2.8.4 1.1.5l.5.2c.3.1.6.3.9.4.3.2.6.4.8.6.2.2.4.5.6.9.1.3.2.7.2 1.2 0 .3 0 .6-.1 1 0 .4-.1.7-.3 1-.2.3-.4.6-.7.8-.3.2-.7.3-1.2.3s-.9-.1-1.1-.2c-.2-.1-.4-.3-.5-.4-.4-.5-.6-1.4-.6-2.6v-1.3h-1v1.3c0 1.4.3 2.5.8 3.2.5.7 1.3 1 2.4 1 1 0 1.8-.4 2.4-1.1.6-.7.9-1.7.9-3 0-.7-.1-1.3-.4-1.7-.2-.5-.5-.9-.9-1.2-.3-.3-.7-.5-1-.7-.3-.2-.6-.3-.9-.4l-.5-.2c-.3-.1-.6-.3-1-.5s-.8-.5-1.2-.9c-.4-.4-.7-.8-1-1.4-.3-.6-.4-1.2-.4-2 0-1.4.3-2.6 1-3.4.7-1 1.7-1.5 3-1.5s2.3.4 2.9 1.3c.7.8 1 2 1 3.6v1.3h1V5.9c0-1.8-.4-3.2-1.2-4.3-.3-.4-.7-.7-1.3-1.1-.6-.3-1.4-.5-2.4-.5-.7 0-1.4.1-2 .4-.6.3-1.1.7-1.6 1.2-.4.5-.8 1.1-1 1.9-.2.7-.3 1.5-.3 2.4.1 1.7.6 3.1 1.8 4.2m-4.1-.1V9h-5.9V2.7h5.9v-1h-6.9V10h6.9zm0 8.9v-1h-5.9v-6.3h5.9v-1h-6.9v8.3h6.9zm0 1.7v-1h-7.5V1h7.5V0h-8.5v20.5h8.5zm-11.5 0h1.1l-6.1-10.9 6.2-9.6h-1.2l-6.2 9.6 6.2 10.9zM167.6 0h-1.1l-5.8 9V0h-1v12.3L167.6 0zm-6.9 20.6v-6.7l1.1-1.7 4.7 8.4h1.1l-5.7-10.3-2.1 3.3v7h.9zm-2.7-7.5v7.4h1V0h-1v13.1zm-7.5-5.9l1.2 5h-2.3l1.1-5zm2.4 6l-2.4-10.4-2.5 10.4h4.9zm-5.5 7.4l1.3-5.7h3.6l1.3 5.7h1l-1.6-6.7h-5.1l-1.6 6.7h1.1zm-1.7 0l4.5-19.4h.6l4.5 19.4h1L151.5.1h-2.1l-4.8 20.5h1.1zm-8.4-1.7c2.2 0 3.2-1.4 3.2-4.2v-1.3h-1v1.3c0 1.2-.2 2.1-.6 2.6-.1.2-.3.3-.5.4-.2.1-.6.2-1.1.2-.5 0-.9-.1-1.1-.2-.2-.1-.4-.3-.5-.4-.4-.5-.6-1.4-.6-2.6V5.9c0-.8.1-1.4.2-1.9.2-.4.4-.8.6-1 .2-.2.5-.3.7-.3.2 0 .5-.1.7-.1.2 0 .4 0 .7.1.3 0 .5.2.7.3.2.2.4.5.6 1 .2.4.2 1.1.2 1.9v1.3h1V5.9c0-2.8-1.1-4.2-3.2-4.2-2.2 0-3.2 1.4-3.2 4.2v8.8c0 2.8 1.1 4.2 3.2 4.2m-3.7 0c.1.2.3.4.5.6.2.2.5.4.8.5.3.2.7.3 1 .4.4.1.8.2 1.3.2 1 0 1.8-.2 2.4-.5.6-.4 1-.7 1.3-1.1.8-1 1.2-2.4 1.2-4.2v-1.3h-1v1.3c0 1-.1 1.8-.4 2.5-.2.6-.5 1.1-.9 1.5-.4.4-.8.6-1.2.7-.5.1-.9.2-1.4.2-.4 0-.9-.1-1.4-.2-.5-.1-.9-.4-1.3-.7-.4-.4-.7-.9-.9-1.5-.2-.6-.4-1.5-.4-2.5V5.9c0-1.6.3-2.8 1-3.6.7-.8 1.6-1.2 2.9-1.2 1.3 0 2.3.4 2.9 1.2.6.8 1 2 1 3.6v1.3h1V5.9c0-1.8-.4-3.2-1.2-4.2-.3-.4-.7-.7-1.3-1.1-.6-.4-1.4-.5-2.4-.5-.5 0-.9 0-1.3.1s-.7.2-1 .4c-.3.2-.6.3-.8.5-.2.2-.4.4-.5.6-.8 1-1.2 2.4-1.2 4.2v8.8c.1 1.9.5 3.3 1.3 4.2M120.9 10V9H115V2.7h5.9v-1H114V10h6.9zm0 8.9v-1H115v-6.3h5.9v-1H114v8.3h6.9zm0 1.7v-1h-7.5V1h7.5V0h-8.5v20.5h8.5zm-15.6-1.7c2.2 0 3.2-1.4 3.2-4.2v-1.3h-1v1.3c0 1.2-.2 2.1-.6 2.6-.1.2-.3.3-.5.4-.2.1-.6.2-1.1.2-.5 0-.9-.1-1.1-.2-.2-.1-.4-.3-.5-.4-.4-.5-.6-1.4-.6-2.6V5.9c0-.8.1-1.4.2-1.9.2-.4.4-.8.6-1 .2-.2.5-.3.7-.3.2 0 .5-.1.7-.1.2 0 .4 0 .7.1.3 0 .5.2.7.3.2.2.4.5.6 1 .2.4.2 1.1.2 1.9v1.3h1V5.9c0-2.8-1.1-4.2-3.2-4.2-2.2 0-3.2 1.4-3.2 4.2v8.8c0 2.8 1.1 4.2 3.2 4.2m-3.7 0c.1.2.3.4.5.6.2.2.5.4.8.5s.7.3 1 .4c.4.1.8.2 1.3.2 1 0 1.8-.2 2.4-.5.6-.4 1-.7 1.3-1.1.8-1 1.2-2.4 1.2-4.2v-1.3h-1v1.3c0 1-.1 1.8-.4 2.5-.2.6-.5 1.1-.9 1.5-.4.4-.8.6-1.2.7-.5.1-.9.2-1.4.2-.4 0-.9-.1-1.4-.2-.5-.1-.9-.4-1.3-.7-.4-.4-.7-.9-.9-1.5s-.4-1.5-.4-2.5V5.9c0-1.6.3-2.8 1-3.6.7-.8 1.6-1.2 2.9-1.2 1.3 0 2.3.4 2.9 1.2.6.8 1 2 1 3.6v1.3h1V5.9c0-1.8-.4-3.2-1.2-4.2-.3-.4-.7-.7-1.3-1.1-.6-.4-1.4-.5-2.4-.5-.5 0-.9 0-1.3.1s-.7.2-1 .4c-.3.2-.6.3-.8.5-.2.2-.4.4-.5.6-.8 1-1.2 2.4-1.2 4.2v8.8c.2 1.9.6 3.3 1.3 4.2m-10.9 1.6V8.1l5 12.4h2.1V0h-1v19.5h-.6L89.7 3v17.5h1zm-1.7 0V1h.6l6.7 16.5V0h-1v12.4L90.3 0H88v20.5h1zM80.5 7.2l1.2 5h-2.3l1.1-5zm2.4 6L80.5 2.8l-2.4 10.4h4.8zm-5.5 7.4l1.3-5.7h3.6l1.3 5.7h1L83 13.9h-5l-1.6 6.7h1zm-1.7 0l4.5-19.4h.6l4.5 19.4h1L81.6.1h-2.1l-4.8 20.5h1zM65.6 2.7h1.5c.3 0 .7 0 1 .1.3.1.6.2.8.4.2.2.4.6.6 1 .1.4.2 1 .2 1.8v8.6c0 .8-.1 1.4-.2 1.8-.1.4-.3.8-.6 1-.2.2-.5.4-.8.4-.3.1-.6.1-1 .1h-1.5V2.7zm1.5 16.2c1.3 0 2.2-.3 2.7-1 .6-.7.9-1.8.9-3.3V6c0-1.5-.3-2.6-.9-3.3-.5-.7-1.4-1.1-2.7-1.1h-2.4v17.2h2.4zM64 1.7h-1v17.2h1V1.7zm3.1 18.9c1.8 0 3.1-.5 4-1.6.8-1 1.2-2.4 1.2-4.3V6c0-1.9-.4-3.3-1.2-4.3-.9-1.1-2.2-1.7-4-1.7H63v1h4.1c1.4 0 2.5.4 3.2 1.3.7.8 1 2.1 1 3.7v8.6c0 1.6-.3 2.8-1 3.7-.7.9-1.8 1.3-3.2 1.3H63v1h4.1zM43.4 19c.8 1.1 2.1 1.6 3.7 1.6s2.8-.6 3.7-1.8c.8-1 1.2-2.4 1.2-3.9 0-1.7-.6-3-1.7-4.1-.4-.4-.9-.7-1.3-1-.5-.2-.8-.4-1.1-.5l-.4-.2c-.3-.1-.7-.3-1-.5-.3-.2-.6-.4-.8-.6-.2-.2-.4-.5-.6-.9-.1-.3-.2-.8-.2-1.2 0-.2 0-.5.1-.8 0-.4.1-.7.3-1.1.2-.4.4-.7.7-.9.3-.3.7-.4 1.2-.4.2 0 .4 0 .7.1.3 0 .5.2.8.3.2.2.4.5.6 1 .2.4.2 1.1.2 1.9v1.3h1V5.9c0-1.5-.3-2.5-.8-3.2-.5-.7-1.4-1-2.4-1-.6 0-1.1.1-1.5.4-.4.3-.8.6-1 1-.5.4-.6.9-.8 1.4-.1.5-.2 1-.2 1.5 0 .7.1 1.3.3 1.7.2.5.5.9.9 1.2.3.3.7.6 1 .8.4.2.7.3.9.4l.4.2c.2.1.6.2 1 .4s.8.5 1.2.8c.4.4.7.8 1 1.4.3.5.4 1.2.4 2 0 .7-.1 1.3-.3 1.9s-.4 1.1-.7 1.5c-.3.5-.7.8-1.2 1-.5.2-1.1.3-1.7.3-1.3 0-2.3-.4-3-1.2-.6-.8-1-2-1-3.6v-1.3h-1v1.3c.2 1.8.6 3.2 1.4 4.2m.5-8.9c.4.4.9.8 1.3 1 .5.2.8.4 1.1.5l.5.2c.3.1.6.3.9.4.3.2.6.4.8.6.2.2.4.5.6.9.1.3.2.7.2 1.2 0 .3 0 .6-.1 1 0 .4-.1.7-.3 1-.2.3-.4.6-.7.8-.2.2-.6.3-1.1.3-.5 0-.9-.1-1.1-.2-.2-.1-.4-.3-.5-.4-.4-.5-.6-1.4-.6-2.6v-1.3h-1v1.3c0 1.4.3 2.5.8 3.2.5.7 1.3 1 2.4 1 1 0 1.8-.4 2.4-1.1.6-.7.9-1.7.9-3 0-.7-.1-1.3-.4-1.7-.2-.5-.5-.9-.9-1.2-.3-.3-.7-.5-1-.7-.3-.2-.6-.3-.9-.4l-.5-.2c-.3-.1-.6-.3-1-.5-.3-.2-.7-.5-1.1-.9-.4-.4-.7-.8-1-1.4-.3-.6-.4-1.2-.4-2 0-1.4.3-2.6 1-3.4.7-1 1.7-1.5 3-1.5s2.3.4 2.9 1.3c.7.8 1 2 1 3.6v1.3h1V5.9c0-1.8-.4-3.2-1.2-4.3-.3-.4-.7-.7-1.3-1.1-.6-.3-1.4-.5-2.4-.5-.7 0-1.4.1-2 .4-.6.3-1.1.7-1.6 1.2-.4.5-.8 1.1-1 1.9-.2.7-.3 1.5-.3 2.4-.1 1.7.5 3.1 1.6 4.2M39.5 0h-1v20.5h1V0zm-1.6 0h-1v20.5h1V0zM26.5 2.7h1.6c.4 0 .8 0 1.1.1.3.1.6.2.8.5.2.2.4.6.5 1 .1.4.2 1 .2 1.7 0 1.2-.2 2.1-.6 2.6-.1.1-.2.2-.5.4s-.8.3-1.5.3h-1.6V2.7zm1.3 7.4h.3c1.3 0 2.2-.3 2.7-1 .6-.7.8-1.7.8-3.2 0-1.5-.3-2.6-.8-3.2-.6-.7-1.5-1-2.7-1h-2.6v8.4h2.3zm-1.3 10.5v-8.8h1.6c1.8 0 2.6.9 2.6 2.7v6.1h1v-6.1c0-1.2-.3-2.1-1-2.8-.6-.6-1.5-1-2.7-1H25.4v9.8h1.1zM24.9 1h3.3c1.5 0 2.5.4 3.2 1.2.7.8 1 2 1 3.7 0 2.5-.8 4-2.3 4.6.4.2.8.4 1.2.7.8.8 1.2 1.9 1.2 3.3v6.1h1v-6.1c0-.9-.1-1.6-.4-2.3-.3-.7-.6-1.2-1.1-1.7.1 0 .1-.1.1-.1 0-.1.1-.1.1-.1.8-1 1.2-2.4 1.2-4.3s-.4-3.4-1.2-4.3c-.9-1-2.2-1.6-4-1.6h-4.3v1h1zm0 .7h-1v18.9h1V1.7zm-3.7 18.9V0h-1v20.6h1zM19.5 10V0h-1v9h-3.9V0h-1v10h5.9zm-4.9 10.6v-8.9h3.9v8.9h1v-9.9h-5.9v9.9h1zm-1.7 0V0h-1v20.5h1zm-8-1.7c2.2 0 3.2-1.4 3.2-4.2v-1.3h-1v1.3c0 1.2-.2 2.1-.6 2.6-.1.2-.3.3-.5.4-.3.2-.6.3-1.1.3-.5 0-.9-.1-1.1-.2-.2-.1-.4-.3-.5-.4-.4-.5-.6-1.4-.6-2.6V5.9c0-.8.1-1.4.2-1.9.2-.4.4-.8.6-1 .2-.2.5-.3.7-.3.2 0 .5-.1.7-.1.2 0 .4 0 .7.1.3 0 .5.2.7.3.2.2.4.5.6 1 .1.5.2 1.1.2 1.9v1.3h1V5.9c0-2.8-1.1-4.2-3.2-4.2-2.2 0-3.2 1.4-3.2 4.2v8.8c-.1 2.8 1 4.2 3.2 4.2m-3.7 0c.1.2.3.4.5.6.2.2.5.4.8.5.3.2.7.3 1 .4.4.1.8.2 1.3.2 1 0 1.8-.2 2.4-.5.6-.4 1-.7 1.3-1.1.8-1 1.2-2.4 1.2-4.2v-1.3h-1v1.3c0 1-.1 1.8-.4 2.5-.2.6-.5 1.1-.9 1.5-.4.4-.8.6-1.2.7-.5.1-.9.2-1.4.2-.4 0-.9-.1-1.4-.2-.4-.2-.8-.5-1.1-.8-.4-.4-.7-.9-.9-1.5S1 15.7 1 14.7V5.9c0-1.6.3-2.8 1-3.6C2.6 1.4 3.6 1 4.9 1c1.3 0 2.3.4 2.9 1.2.6.8 1 2 1 3.6v1.3h1V5.9c0-1.8-.4-3.2-1.2-4.2-.3-.4-.8-.7-1.4-1.1C6.7.2 5.9.1 4.9.1c-.5 0-.9 0-1.3.1s-.7.2-1 .4c-.4.2-.7.3-.9.5-.2.2-.4.4-.5.6C.4 2.7 0 4.1 0 5.9v8.8c0 1.9.4 3.3 1.2 4.2"/></svg>