<?xml version="1.0" encoding="utf-8"?>
<!-- Generator: Adobe Illustrator 18.0.0, SVG Export Plug-In . SVG Version: 6.00 Build 0)  -->
<!DOCTYPE svg PUBLIC "-//W3C//DTD SVG 1.1//EN" "http://www.w3.org/Graphics/SVG/1.1/DTD/svg11.dtd">
<svg version="1.1" id="Layer_1" xmlns="http://www.w3.org/2000/svg" xmlns:xlink="http://www.w3.org/1999/xlink" x="0px" y="0px"
	 width="62.75px" height="62.75px" viewBox="0 0 62.75 62.75" enable-background="new 0 0 62.75 62.75" xml:space="preserve">
<g>
	<g>
		<defs>
			<circle id="SVGID_1_" cx="-123.56" cy="31.38" r="30.84"/>
		</defs>
		<clipPath id="SVGID_2_">
			<use xlink:href="#SVGID_1_"  overflow="visible"/>
		</clipPath>
		<path clip-path="url(#SVGID_2_)" fill="none" stroke="#A26415" stroke-width="1.064" stroke-miterlimit="10" d="M-121.31,50.89
			v-5.05l6.03-1.08c4.04-1.14,6.06-3.82,4.48-7.1l-9.89-25.74c-1.57-3.28-4.14-3.28-5.71,0l-9.89,25.74
			c-1.57,3.28-0.78,5.96,3.26,7.1l7.26,1.08v5.05"/>
		
			<rect x="-126.76" y="50.89" clip-path="url(#SVGID_2_)" fill="none" stroke="#A26415" stroke-width="1.064" stroke-miterlimit="10" width="6.44" height="3.71"/>
		<polygon clip-path="url(#SVGID_2_)" fill="none" stroke="#A26415" stroke-width="1.064" stroke-miterlimit="10" points="
			-119.17,83.15 -127.91,83.15 -126.76,54.6 -120.32,54.6 		"/>
		
			<line clip-path="url(#SVGID_2_)" fill="none" stroke="#A26415" stroke-width="1.064" stroke-miterlimit="10" x1="-122.84" y1="25.08" x2="-131.14" y2="36.7"/>
		
			<line clip-path="url(#SVGID_2_)" fill="none" stroke="#A26415" stroke-width="1.064" stroke-miterlimit="10" x1="-124.16" y1="32.03" x2="-128.71" y2="38.39"/>
		<use xlink:href="#SVGID_1_"  overflow="visible" fill="none" stroke="#A26415" stroke-width="1.064" stroke-miterlimit="10"/>
	</g>
	<circle fill="none" stroke="#A26415" stroke-width="1.064" stroke-miterlimit="10" cx="-45.95" cy="31.38" r="30.84"/>
	<circle fill="none" stroke="#A26415" stroke-width="1.064" stroke-miterlimit="10" cx="-123.56" cy="31.38" r="30.84"/>
	<g>
		<path fill="#A26415" d="M-39.98,51.98c1.54-1.42,2.49-3.37,2.49-5.55s-0.91-7.1-2.38-11.59c-0.74-2.24-1.61-4.37-2.6-5.95
			c-0.57-0.92-1.21-1.68-1.9-2.17c0.15-0.07,0.19-0.23,0.18-0.35l0-18.65c0-0.23-0.2-0.42-0.41-0.41l-2.71,0
			c-0.22-0.01-0.41,0.18-0.41,0.41l-0.01,18.64c0,0.14,0.08,0.27,0.21,0.35c-0.7,0.47-1.32,1.24-1.91,2.18
			c-0.99,1.58-1.86,3.71-2.6,5.95c-1.47,4.49-2.38,9.41-2.39,11.59c0,3.94,3.15,7.18,7.22,7.73c0.77,0.11,1.5,0.08,2.26,0.02
			C-43.02,53.97-41.28,53.18-39.98,51.98L-39.98,51.98z M-40.54,51.39c-0.58,0.51-1.24,0.96-1.97,1.29
			c0.23-0.25,0.45-0.49,0.65-0.77c1.02-1.43,1.63-3.36,1.64-5.49c-0.01-2.13-0.6-7.08-1.57-11.56c-0.48-2.23-1.07-4.33-1.72-5.92
			c-0.05-0.13-0.09-0.26-0.15-0.38c0.17,0.24,0.34,0.48,0.5,0.75c0.93,1.49,1.8,3.56,2.52,5.76c1.44,4.42,2.34,9.41,2.34,11.34
			C-38.31,48.36-39.16,50.12-40.54,51.39L-40.54,51.39z M-43.26,52.29c-0.43,0.41-0.89,0.71-1.4,0.9c0.18-0.39,0.36-0.85,0.5-1.41
			c0.38-1.39,0.62-3.27,0.61-5.35c0.01-2.09-0.21-7.04-0.58-11.49c-0.17-2.23-0.39-4.33-0.63-5.89c-0.08-0.47-0.15-0.87-0.24-1.22
			c0.25,0.37,0.49,0.86,0.73,1.45c0.62,1.5,1.19,3.57,1.66,5.77c0.95,4.43,1.54,9.41,1.54,11.38c0,1.97-0.57,3.75-1.48,5.01
			C-42.76,51.76-43.01,52.05-43.26,52.29L-43.26,52.29z M-45.67,53.25c-0.13,0.15-0.24,0.2-0.29,0.18
			c-0.07,0.01-0.23-0.06-0.42-0.38c-0.21-0.33-0.42-0.83-0.6-1.48c-0.35-1.29-0.56-3.13-0.57-5.16c0.01-2.02,0.23-6.99,0.59-11.41
			c0.19-2.22,0.39-4.31,0.64-5.83c0.12-0.76,0.24-1.39,0.35-1.79c0.01-0.01,0.01-0.01,0.01-0.03c0,0.02,0,0.02,0.01,0.03
			c0.12,0.41,0.25,1.03,0.37,1.79c0.25,1.52,0.45,3.62,0.64,5.83c0.36,4.43,0.57,9.39,0.58,11.41c-0.01,2.02-0.23,3.86-0.58,5.16
			c-0.17,0.65-0.39,1.15-0.6,1.48C-45.57,53.14-45.64,53.2-45.67,53.25L-45.67,53.25z M-47.25,53.19c-0.79-0.32-1.53-0.91-2.12-1.75
			c-0.91-1.26-1.48-3.04-1.48-5.01c0-1.97,0.59-6.95,1.54-11.38c0.48-2.21,1.05-4.27,1.67-5.77c0.24-0.59,0.48-1.08,0.73-1.45
			c-0.08,0.35-0.16,0.76-0.24,1.22c-0.24,1.55-0.45,3.66-0.63,5.89c-0.37,4.46-0.6,9.41-0.59,11.49c-0.01,2.09,0.23,3.96,0.6,5.35
			C-47.61,52.34-47.43,52.8-47.25,53.19L-47.25,53.19z M-49.42,52.69c-2.5-1.16-4.18-3.52-4.18-6.26c0-1.93,0.91-6.92,2.34-11.34
			c0.72-2.2,1.58-4.27,2.52-5.76c0.15-0.26,0.32-0.48,0.47-0.7c-0.04,0.1-0.08,0.21-0.13,0.32c-0.66,1.58-1.23,3.7-1.72,5.93
			c-0.97,4.48-1.56,9.43-1.57,11.56c0.01,0.03,0.01,0.05,0.02,0.08c0.01,2.11,0.62,4.01,1.61,5.41
			C-49.85,52.2-49.64,52.44-49.42,52.69L-49.42,52.69z M-45.01,25.97l-1.89,0l0-17.83L-45,8.12L-45.01,25.97L-45.01,25.97z"/>
	</g>
	<g>
		<path fill="#A26415" d="M31.39,62.75L31.39,62.75C14.08,62.75,0.01,48.68,0,31.38c0-17.3,14.07-31.38,31.37-31.38
			c17.3,0,31.38,14.07,31.39,31.37c0,8.38-3.26,16.26-9.18,22.19C47.64,59.48,39.77,62.75,31.39,62.75z M31.38,1.06
			c-16.72,0-30.32,13.61-30.31,30.32c0.01,16.71,13.6,30.3,30.31,30.3v0.53l0.01-0.53c8.1,0,15.71-3.16,21.43-8.88
			c5.72-5.73,8.87-13.34,8.87-21.44C61.68,14.66,48.08,1.06,31.38,1.06z"/>
		<g>
			<g>
				<path fill="#A26415" d="M50.57,27.39h-1.92c-0.77-3.05-2.74-5.84-5.6-7.9l0.35-6.64c0.01-0.16-0.08-0.31-0.23-0.38
					c-0.15-0.07-0.32-0.04-0.44,0.08l-4.61,4.46c-2.07-0.69-4.23-1.03-6.43-1.03c-7.99,0-14.73,4.49-16.73,10.58
					c-1.37-0.02-2.64-0.7-3.42-1.88c-0.83-1.26-0.94-2.8-0.3-4.13c0.09-0.2,0.01-0.43-0.18-0.52c-0.2-0.09-0.43-0.01-0.53,0.18
					c-0.76,1.58-0.63,3.41,0.36,4.91c0.88,1.34,2.3,2.14,3.85,2.23c-0.25,0.96-0.38,1.96-0.38,2.99c0,3.71,1.69,7.2,4.77,9.88
					l-1.63,3.1c-0.39,0.72-0.12,1.63,0.6,2.02l3.79,2.06c0.7,0.38,1.64,0.1,2.03-0.6l1.61-3.06c4.08,1.29,8.64,1.25,12.65-0.09
					l1.86,3.15c0.26,0.48,0.77,0.78,1.32,0.78c0.25,0,0.49-0.06,0.71-0.18l3.79-2.06c0.35-0.19,0.6-0.51,0.72-0.89
					c0.11-0.38,0.07-0.79-0.13-1.15l-1.94-3.3c1.53-1.38,2.7-2.97,3.48-4.73h2.62c0.78,0,1.41-0.63,1.41-1.41V28.8
					C51.98,28.02,51.35,27.39,50.57,27.39z M51.19,33.85c0,0.34-0.28,0.62-0.63,0.62h-2.88c-0.16,0-0.3,0.1-0.36,0.24
					c-0.77,1.84-1.99,3.48-3.62,4.9c-0.14,0.12-0.18,0.33-0.08,0.5l2.1,3.57c0.09,0.16,0.11,0.36,0.06,0.54
					c-0.05,0.18-0.17,0.33-0.34,0.42l-3.79,2.06c-0.33,0.18-0.78,0.05-0.96-0.3l-2.03-3.44c-0.07-0.12-0.2-0.19-0.34-0.19
					c-0.04,0-0.09,0.01-0.13,0.02c-4.03,1.41-8.65,1.46-12.76,0.09c-0.18-0.06-0.38,0.02-0.47,0.19l-1.76,3.34
					c-0.18,0.33-0.62,0.47-0.96,0.28l-3.79-2.06c-0.34-0.19-0.47-0.61-0.28-0.96l1.78-3.38c0.09-0.16,0.05-0.37-0.1-0.49
					c-3.05-2.55-4.73-5.92-4.73-9.48c0-7.48,7.43-13.56,16.55-13.56c2.2,0,4.35,0.36,6.4,1.07c0.14,0.05,0.3,0.01,0.4-0.09
					l4.07-3.93l-0.31,5.85c-0.01,0.14,0.06,0.26,0.17,0.34c2.89,2.03,4.86,4.82,5.54,7.86c0.04,0.18,0.2,0.31,0.38,0.31h2.23
					c0.35,0,0.63,0.28,0.63,0.63L51.19,33.85L51.19,33.85z"/>
				<path fill="#A26415" d="M41.33,47.68c-0.59,0-1.14-0.32-1.42-0.84l-1.81-3.06c-2.04,0.67-4.19,1.01-6.4,1.01
					c-2.11,0-4.17-0.31-6.13-0.92L24,46.83c-0.28,0.51-0.84,0.84-1.45,0.84c-0.26,0-0.52-0.06-0.74-0.18l-3.79-2.06
					c-0.38-0.2-0.65-0.54-0.78-0.96s-0.08-0.85,0.13-1.23l1.59-3.01c-3.06-2.69-4.75-6.21-4.75-9.91c0-0.96,0.12-1.93,0.35-2.88
					c-1.55-0.13-2.93-0.95-3.8-2.27c-1.01-1.52-1.14-3.4-0.36-5.02c0.12-0.25,0.43-0.36,0.68-0.24c0.12,0.06,0.22,0.16,0.26,0.29
					c0.04,0.13,0.04,0.27-0.02,0.39c-0.62,1.29-0.51,2.79,0.3,4.01c0.74,1.12,1.92,1.78,3.24,1.82c2.1-6.23,9-10.58,16.82-10.58
					c2.19,0,4.34,0.34,6.4,1.02l4.56-4.41c0.15-0.14,0.38-0.18,0.57-0.1c0.19,0.09,0.31,0.28,0.3,0.49l-0.34,6.57
					c2.81,2.04,4.79,4.82,5.57,7.84h1.83c0.41,0,0.79,0.16,1.08,0.45c0.29,0.29,0.45,0.67,0.45,1.08v5.05
					c0,0.84-0.69,1.53-1.53,1.53h-2.54c-0.77,1.72-1.92,3.27-3.4,4.63l1.89,3.21c0.21,0.39,0.26,0.83,0.14,1.24
					c-0.12,0.41-0.4,0.75-0.77,0.96l-3.79,2.06C41.86,47.61,41.6,47.68,41.33,47.68z M38.21,43.49l1.91,3.23
					c0.24,0.45,0.71,0.72,1.21,0.72c0.23,0,0.45-0.06,0.65-0.17l3.79-2.06c0.32-0.17,0.56-0.46,0.66-0.82
					c0.1-0.35,0.06-0.73-0.12-1.06l-1.99-3.38l0.07-0.06c1.52-1.37,2.67-2.95,3.45-4.69l0.03-0.07h2.69c0.71,0,1.29-0.58,1.29-1.29
					V28.8c0-0.34-0.13-0.67-0.38-0.91c-0.25-0.25-0.57-0.38-0.92-0.38h-2.01l-0.02-0.09c-0.76-3.02-2.73-5.8-5.56-7.83l-0.05-0.04
					l0-0.06l0.35-6.64c0.01-0.11-0.06-0.22-0.16-0.26c-0.1-0.05-0.23-0.02-0.31,0.05l-4.66,4.51l-0.07-0.02
					c-2.05-0.68-4.21-1.03-6.39-1.03c-7.75,0-14.58,4.32-16.62,10.5l-0.03,0.08l-0.09,0c-1.42-0.02-2.73-0.74-3.52-1.93
					c-0.85-1.29-0.97-2.88-0.31-4.25c0.03-0.07,0.04-0.14,0.01-0.21c-0.02-0.07-0.07-0.12-0.14-0.16c-0.13-0.06-0.3-0.01-0.37,0.13
					c-0.74,1.54-0.61,3.33,0.35,4.79c0.86,1.3,2.23,2.09,3.76,2.17l0.15,0.01l-0.04,0.14c-0.25,0.98-0.38,1.97-0.38,2.96
					c0,3.66,1.68,7.14,4.74,9.79l0.07,0.06l-1.68,3.18c-0.17,0.32-0.21,0.69-0.11,1.05s0.34,0.64,0.66,0.82l3.79,2.06
					c0.19,0.1,0.41,0.16,0.63,0.16c0.52,0,1-0.28,1.24-0.71l1.66-3.14l0.09,0.03c1.96,0.62,4.03,0.94,6.15,0.94
					c2.22,0,4.38-0.34,6.42-1.02L38.21,43.49z M41.34,46.89c-0.31,0-0.6-0.17-0.74-0.44l-2.03-3.43c-0.07-0.11-0.21-0.16-0.33-0.12
					c-2.07,0.73-4.27,1.1-6.54,1.1c-2.17,0-4.29-0.34-6.29-1.01c-0.12-0.04-0.27,0.02-0.33,0.13l-1.76,3.34
					c-0.14,0.26-0.43,0.43-0.74,0.43c-0.13,0-0.27-0.03-0.38-0.1l-3.79-2.06c-0.4-0.22-0.54-0.72-0.33-1.12l1.78-3.38
					c0.06-0.11,0.03-0.26-0.07-0.34c-3.08-2.58-4.78-5.98-4.78-9.58c0-7.54,7.48-13.68,16.67-13.68c2.21,0,4.37,0.36,6.44,1.07
					c0.1,0.03,0.21,0.01,0.28-0.06l4.28-4.14l-0.32,6.16c0,0.09,0.04,0.18,0.12,0.24c2.92,2.04,4.9,4.86,5.59,7.93
					c0.03,0.12,0.14,0.21,0.27,0.21h2.23c0.41,0,0.74,0.33,0.74,0.74v5.05c0,0.41-0.33,0.74-0.74,0.74h-2.88
					c-0.11,0-0.21,0.07-0.25,0.17c-0.78,1.85-2,3.51-3.65,4.94c-0.1,0.09-0.12,0.23-0.06,0.35l2.1,3.57
					c0.11,0.2,0.13,0.42,0.07,0.63c-0.06,0.21-0.2,0.39-0.39,0.49l-3.79,2.06C41.6,46.86,41.47,46.89,41.34,46.89z M38.33,42.64
					c0.18,0,0.35,0.1,0.44,0.25l2.03,3.44c0.11,0.2,0.31,0.32,0.54,0.32c0.09,0,0.19-0.02,0.27-0.07l3.79-2.06
					c0.14-0.07,0.24-0.2,0.28-0.35c0.05-0.15,0.03-0.31-0.04-0.45l-2.1-3.56c-0.12-0.21-0.08-0.48,0.11-0.65
					c1.62-1.4,2.82-3.04,3.58-4.86c0.08-0.19,0.27-0.31,0.47-0.31h2.88c0.28,0,0.51-0.23,0.51-0.51V28.8c0-0.28-0.23-0.51-0.51-0.51
					h-2.23c-0.24,0-0.45-0.17-0.5-0.4c-0.67-3.02-2.62-5.78-5.49-7.79c-0.14-0.1-0.23-0.27-0.22-0.45l0.29-5.55l-3.85,3.72
					c-0.13,0.13-0.34,0.18-0.52,0.12c-2.04-0.7-4.18-1.06-6.36-1.06c-9.06,0-16.44,6.03-16.44,13.44c0,3.53,1.67,6.86,4.69,9.39
					c0.18,0.15,0.24,0.42,0.12,0.63l-1.78,3.38c-0.16,0.29-0.05,0.65,0.23,0.8l3.79,2.06c0.27,0.14,0.65,0.03,0.8-0.24l1.76-3.34
					c0.11-0.22,0.38-0.33,0.62-0.25c1.98,0.66,4.07,1,6.22,1c2.24,0,4.42-0.36,6.46-1.08C38.21,42.65,38.27,42.64,38.33,42.64z"/>
			</g>
			<path fill="#A26415" d="M24.57,22.6c-0.17,0-0.34-0.09-0.44-0.25c-0.14-0.24-0.06-0.55,0.18-0.69c0.26-0.15,6.36-3.65,12.61-0.73
				c0.25,0.12,0.36,0.42,0.24,0.67c-0.12,0.25-0.42,0.36-0.67,0.24c-5.75-2.7-11.61,0.65-11.67,0.68
				C24.74,22.58,24.66,22.6,24.57,22.6z"/>
			<path fill="#A26415" d="M41.85,27.24c-1.13,0-2.05-0.92-2.05-2.05s0.92-2.05,2.05-2.05s2.05,0.92,2.05,2.05
				S42.97,27.24,41.85,27.24z M41.85,24.16c-0.57,0-1.04,0.46-1.04,1.04s0.46,1.04,1.04,1.04s1.04-0.46,1.04-1.04
				S42.42,24.16,41.85,24.16z"/>
		</g>
	</g>
</g>
</svg>
