<?xml version="1.0" encoding="utf-8"?>
<!-- Generator: Adobe Illustrator 18.0.0, SVG Export Plug-In . SVG Version: 6.00 Build 0)  -->
<!DOCTYPE svg PUBLIC "-//W3C//DTD SVG 1.1//EN" "http://www.w3.org/Graphics/SVG/1.1/DTD/svg11.dtd">
<svg version="1.1" id="Layer_1" xmlns="http://www.w3.org/2000/svg" xmlns:xlink="http://www.w3.org/1999/xlink" x="0px" y="0px"
	 width="55px" height="55px" viewBox="2.2 1.7 55 55" enable-background="new 2.2 1.7 55 55" xml:space="preserve">
<g>
	<path fill="#A26415" d="M29.7,56.7c-15.16,0-27.5-12.34-27.5-27.5c0-15.16,12.34-27.5,27.5-27.5c15.16,0,27.5,12.34,27.5,27.5
		C57.2,44.36,44.86,56.7,29.7,56.7z M29.7,2.7C15.09,2.7,3.2,14.59,3.2,29.2s11.89,26.5,26.5,26.5s26.5-11.89,26.5-26.5
		S44.31,2.7,29.7,2.7z"/>
	<polygon fill="#A26415" points="39.26,45.05 18.71,45.05 14.69,31.4 15.65,31.12 19.46,44.05 38.48,44.05 41.79,31.14 42.76,31.38 
			"/>
	<rect x="28.17" y="31.57" fill="#A26415" width="1" height="12.98"/>
	
		<rect x="14.34" y="37.56" transform="matrix(0.1337 0.991 -0.991 0.1337 55.8174 12.2729)" fill="#A26415" width="13.1" height="1"/>
	
		<rect x="18.35" y="37.56" transform="matrix(0.0634 0.998 -0.998 0.0634 61.2678 10.8447)" fill="#A26415" width="13.01" height="1"/>
	
		<rect x="36.77" y="31.51" transform="matrix(0.9911 0.1329 -0.1329 0.9911 5.3905 -4.6172)" fill="#A26415" width="1" height="13.1"/>
	<rect x="32.5" y="31.56" transform="matrix(0.998 0.0625 -0.0625 0.998 2.4434 -1.988)" fill="#A26415" width="1" height="13.01"/>
	<path fill="#A26415" d="M13.76,30.25c-0.12-0.47-0.12-0.92-0.12-1.36c0-2.84,1.55-5.39,4.14-6.86c1.54-2.97,4.56-5.17,8.11-5.9
		l0.2,0.98c-3.3,0.68-6.1,2.74-7.49,5.5l-0.07,0.14l-0.14,0.07c-2.39,1.29-3.76,3.5-3.76,6.05c0,0.39,0,0.76,0.09,1.12L13.76,30.25z
		"/>
	<path fill="#A26415" d="M43.69,30.22l-0.98-0.18c0.88-4.69-1.38-5.97-3.57-7.2l-0.13-0.07l-0.07-0.14
		c-1.16-2.32-3.42-4.22-6.21-5.21l0.34-0.94c2.98,1.06,5.41,3.09,6.7,5.57C42,23.3,44.68,24.93,43.69,30.22z"/>
	<rect x="15.17" y="30.76" fill="#A26415" width="27.1" height="1"/>
	<path fill="#A26415" d="M29.39,20.94c-2.13,0-3.8-1.67-3.8-3.8c0-2.13,1.67-3.8,3.8-3.8c2.13,0,3.8,1.67,3.8,3.8
		C33.19,19.27,31.52,20.94,29.39,20.94z M29.39,14.35c-1.57,0-2.8,1.23-2.8,2.8s1.23,2.8,2.8,2.8s2.8-1.23,2.8-2.8
		S30.96,14.35,29.39,14.35z"/>
	<path fill="#A26415" d="M38.56,12.39c-0.84,0-1.53-0.69-1.53-1.53c0-0.84,0.69-1.53,1.53-1.53s1.53,0.69,1.53,1.53
		C40.09,11.7,39.41,12.39,38.56,12.39z M38.56,10.33c-0.29,0-0.53,0.24-0.53,0.53s0.24,0.53,0.53,0.53s0.53-0.24,0.53-0.53
		S38.85,10.33,38.56,10.33z"/>
	<path fill="#A26415" d="M29.87,15.85l-0.95-0.3c0.02-0.07,2.37-7.24,8.44-5.59l-0.26,0.96C31.96,9.53,29.95,15.59,29.87,15.85z"/>
	<path fill="#A26415" d="M19,28.63c-0.01-0.14-0.32-3.36,2.04-4.42l0.41,0.91c-1.7,0.77-1.46,3.38-1.46,3.41L19,28.63z"/>
</g>
<g>
	<circle fill="none" stroke="#A26415" stroke-miterlimit="10" cx="-171.7" cy="29.2" r="26.2"/>
	<g>
		<path fill="none" stroke="#A26415" stroke-linecap="round" stroke-miterlimit="10" d="M-169.2,40.3l5.2,4.5c1.2,1.1,3.1,1,4.2-0.3
			l0.1-0.2c1.1-1.2,1-3.1-0.3-4.2l-5.3-4.8c-1.7-5.4-0.1-6.3-0.1-6.3l5.9-2.6c1.5-0.7,2.3-2.2,1.8-3.8l-0.1-0.2
			c-0.5-1.5-2.2-2.3-3.8-1.8l-5.7,2v-2.2c0.8-1,1.4-2.3,1.4-3.7c0-3.2-2.6-5.7-5.7-5.7c-3.2,0-5.7,2.6-5.7,5.7
			c0,1.4,0.5,2.7,1.4,3.7v2.2l-5.7-2c-1.5-0.5-3.2,0.3-3.8,1.8l-0.1,0.2c-0.5,1.5,0.2,3.1,1.8,3.8l5.9,2.6c0,0,1.6,1-0.1,6.3
			l-5.3,4.8c-1.2,1.1-1.3,3-0.3,4.2l0.1,0.2c1.1,1.2,3,1.3,4.2,0.3l5.2-4.5H-169.2z"/>
		<g>
			<circle fill="none" stroke="#A26415" stroke-linecap="round" stroke-miterlimit="10" cx="-173.5" cy="15.2" r="1"/>
			<circle fill="none" stroke="#A26415" stroke-linecap="round" stroke-miterlimit="10" cx="-169.9" cy="15.2" r="1"/>
		</g>
		<circle fill="none" stroke="#A26415" stroke-linecap="round" stroke-miterlimit="10" cx="-171.7" cy="31.7" r="1.5"/>
		<circle fill="none" stroke="#A26415" stroke-linecap="round" stroke-miterlimit="10" cx="-171.7" cy="26.1" r="1.5"/>
		<path fill="none" stroke="#A26415" stroke-linecap="round" stroke-miterlimit="10" d="M-169.5,18.4c-0.3,1-1.2,1.7-2.2,1.7
			c-1.1,0-2-0.8-2.2-1.8"/>
		<g>
			
				<line fill="none" stroke="#A26415" stroke-linecap="round" stroke-miterlimit="10" x1="-178.8" y1="21.8" x2="-181.4" y2="27.6"/>
			<line fill="none" stroke="#A26415" stroke-linecap="round" stroke-miterlimit="10" x1="-181.9" y1="38.9" x2="-177.9" y2="43"/>
		</g>
		<line fill="none" stroke="#A26415" stroke-linecap="round" stroke-miterlimit="10" x1="-164.3" y1="21.8" x2="-161.8" y2="27.4"/>
		<line fill="none" stroke="#A26415" stroke-linecap="round" stroke-miterlimit="10" x1="-161.9" y1="38.9" x2="-165.9" y2="43"/>
	</g>
</g>
<g>
	<circle fill="none" stroke="#A26415" stroke-miterlimit="10" cx="423" cy="29.2" r="26.2"/>
	<polygon fill="none" stroke="#A26415" stroke-linecap="round" stroke-linejoin="round" stroke-miterlimit="10" points="407.7,36.7 
		436.9,45.6 436.9,35.3 407.7,26.7 	"/>
	<path fill="none" stroke="#A26415" stroke-linecap="round" stroke-linejoin="round" stroke-miterlimit="10" d="M419.2,21.3
		c-3.8,0.5-8.8,1.9-11.5,5.4"/>
	<path fill="none" stroke="#A26415" stroke-linecap="round" stroke-linejoin="round" stroke-miterlimit="10" d="M436.9,35.1
		l-12.5-14c0,0-0.6,0-1.6,0"/>
	<g>
		<path fill="none" stroke="#A26415" stroke-linecap="round" stroke-linejoin="round" stroke-miterlimit="10" d="M407.9,30.7
			c1.6,0.5,1.2,2,2.8,2.4c1.6,0.5,2.1-1,3.7-0.5s1.2,2,2.8,2.4c1.6,0.5,2.1-1,3.7-0.5s1.2,2,2.8,2.4c1.6,0.5,2.1-1,3.7-0.5
			s1.2,2,2.8,2.4c1.6,0.5,2.1-1,3.7-0.5s1.2,2,2.8,2.4"/>
	</g>
	
		<rect x="419.3" y="17" fill="none" stroke="#A26415" stroke-linecap="round" stroke-linejoin="round" stroke-miterlimit="10" width="3.2" height="10.4"/>
	<path fill="none" stroke="#A26415" stroke-linecap="round" stroke-linejoin="round" stroke-miterlimit="10" d="M421,16.7
		c0,0-2.8-1.6-2-4.1c0,0,1.1-1,2-4C421,8.6,425.5,13.4,421,16.7z"/>
</g>
<g>
	<circle fill="none" stroke="#A26415" stroke-miterlimit="10" cx="-112.1" cy="29.2" r="26.2"/>
	<polyline fill="none" stroke="#A26415" stroke-linecap="round" stroke-linejoin="round" stroke-miterlimit="10" points="
		-92.5,46.5 -92.5,35.1 -131.7,35.1 -131.7,46.1 	"/>
	<polyline fill="none" stroke="#A26415" stroke-linecap="round" stroke-linejoin="round" stroke-miterlimit="10" points="-96.4,35 
		-96.4,22.8 -127.7,22.8 -127.7,35 	"/>
	<path fill="none" stroke="#A26415" stroke-linecap="round" stroke-linejoin="round" stroke-miterlimit="10" d="M-131.5,44.2
		c0.7,0.3,1.6,0.5,2.5,0.5c2.6,0,4.8-1.7,5.6-4c0.8,2.3,3,4,5.6,4s4.8-1.7,5.6-4c0.8,2.3,3,4,5.6,4s4.8-1.7,5.6-4c0.8,2.3,3,4,5.6,4
		c1,0,1.9-0.2,2.7-0.6"/>
	<path fill="none" stroke="#A26415" stroke-linecap="round" stroke-linejoin="round" stroke-miterlimit="10" d="M-127.5,31.1
		c2.2-0.3,4-1.7,4.7-3.7c0.8,2.2,2.9,3.8,5.4,3.8s4.6-1.6,5.4-3.8c0.8,2.2,2.9,3.8,5.4,3.8s4.6-1.6,5.4-3.8c0.7,2.1,2.6,3.6,4.9,3.8
		"/>
	<path fill="none" stroke="#A26415" stroke-linecap="round" stroke-linejoin="round" stroke-miterlimit="10" d="M-117.4,16.5
		c-0.2-0.4-0.4-0.9-0.4-1.4c0-1.6,1.3-3,3-3c1.3,0,2.3,0.8,2.8,1.9c0.4-1.1,1.5-1.9,2.8-1.9c1.6,0,3,1.3,3,3c0,0.5-0.1,1-0.4,1.4
		l-5.3,5.5L-117.4,16.5z"/>
</g>
<g>
	<circle fill="none" stroke="#A26415" stroke-miterlimit="10" cx="-49.6" cy="29.2" r="26.2"/>
	<g>
		<polyline fill="none" stroke="#A26415" stroke-linecap="round" stroke-linejoin="round" stroke-miterlimit="10" points="
			-60.2,18.3 -62.1,20.2 -62.1,28.8 -46.4,44.5 -33.2,31.4 -48.8,15.7 -57.2,15.7 -58.2,16.8 		"/>
		
			<line fill="none" stroke="#A26415" stroke-linecap="round" stroke-linejoin="round" stroke-miterlimit="10" x1="-57" y1="20.9" x2="-54.1" y2="23.8"/>
		
			<line fill="none" stroke="#A26415" stroke-linecap="round" stroke-linejoin="round" stroke-miterlimit="10" x1="-67.6" y1="10.3" x2="-57" y2="20.9"/>
		<path fill="none" stroke="#A26415" stroke-linecap="round" stroke-linejoin="round" stroke-miterlimit="10" d="M-54.6,20.1
			c1.9,0,3.5,1.5,3.5,3.5s-1.5,3.5-3.5,3.5s-3.5-1.5-3.5-3.5c0-1,0.4-1.9,1.1-2.5"/>
	</g>
</g>
<g>
	<g>
		<g>
			<defs>
				<circle id="SVGID_2_" cx="292.1" cy="29.2" r="26.2"/>
			</defs>
			<clipPath id="SVGID_3_">
				<use xlink:href="#SVGID_2_"  overflow="visible"/>
			</clipPath>
			<path clip-path="url(#SVGID_3_)" fill="none" stroke="#A26415" stroke-miterlimit="10" d="M294,45.8v-4.3l5.1-0.9
				c3.4-1,5.1-3.3,3.8-6l-8.4-21.9c-1.3-2.8-3.5-2.8-4.9,0l-8.4,21.9c-1.3,2.8-0.7,5.1,2.8,6l6.2,0.9v4.3"/>
		</g>
		<g>
			<defs>
				<circle id="SVGID_4_" cx="292.1" cy="29.2" r="26.2"/>
			</defs>
			<clipPath id="SVGID_5_">
				<use xlink:href="#SVGID_4_"  overflow="visible"/>
			</clipPath>
			
				<rect x="289.3" y="45.8" clip-path="url(#SVGID_5_)" fill="none" stroke="#A26415" stroke-miterlimit="10" width="5.5" height="3.2"/>
		</g>
		<g>
			<defs>
				<circle id="SVGID_6_" cx="292.1" cy="29.2" r="26.2"/>
			</defs>
			<clipPath id="SVGID_7_">
				<use xlink:href="#SVGID_6_"  overflow="visible"/>
			</clipPath>
			<polygon clip-path="url(#SVGID_7_)" fill="none" stroke="#A26415" stroke-miterlimit="10" points="295.8,73.3 288.4,73.3 
				289.3,49 294.8,49 			"/>
		</g>
		<g>
			<defs>
				<circle id="SVGID_8_" cx="292.1" cy="29.2" r="26.2"/>
			</defs>
			<clipPath id="SVGID_9_">
				<use xlink:href="#SVGID_8_"  overflow="visible"/>
			</clipPath>
			
				<line clip-path="url(#SVGID_9_)" fill="none" stroke="#A26415" stroke-miterlimit="10" x1="292.7" y1="23.9" x2="285.6" y2="33.8"/>
		</g>
		<g>
			<defs>
				<circle id="SVGID_10_" cx="292.1" cy="29.2" r="26.2"/>
			</defs>
			<clipPath id="SVGID_11_">
				<use xlink:href="#SVGID_10_"  overflow="visible"/>
			</clipPath>
			
				<line clip-path="url(#SVGID_11_)" fill="none" stroke="#A26415" stroke-miterlimit="10" x1="291.6" y1="29.8" x2="287.7" y2="35.2"/>
		</g>
		<g>
			<circle id="SVGID_1_" fill="none" stroke="#A26415" stroke-miterlimit="10" cx="292.1" cy="29.2" r="26.2"/>
		</g>
	</g>
	<circle fill="none" stroke="#A26415" stroke-miterlimit="10" cx="292.1" cy="29.2" r="26.2"/>
</g>
<g>
	<circle fill="none" stroke="#A26415" stroke-miterlimit="10" cx="357.5" cy="29.2" r="26.2"/>
	<g>
		<path fill="#A26415" d="M362.6,46.7c1.3-1.2,2.1-2.9,2.1-4.7s-0.8-6-2-9.9c-0.6-1.9-1.4-3.7-2.2-5.1c-0.5-0.8-1-1.4-1.6-1.8
			c0.1-0.1,0.2-0.2,0.2-0.3V9c0-0.2-0.2-0.4-0.3-0.3h-2.3c-0.2,0-0.3,0.2-0.3,0.3v15.9c0,0.1,0.1,0.2,0.2,0.3
			c-0.6,0.4-1.1,1.1-1.6,1.9c-0.8,1.3-1.6,3.2-2.2,5.1c-1.2,3.8-2,8-2,9.9c0,3.4,2.7,6.1,6.1,6.6c0.7,0.1,1.3,0.1,1.9,0
			C360,48.4,361.5,47.8,362.6,46.7L362.6,46.7z M362.1,46.3c-0.5,0.4-1.1,0.8-1.7,1.1c0.2-0.2,0.4-0.4,0.6-0.7
			c0.9-1.2,1.4-2.9,1.4-4.7s-0.5-6-1.3-9.8c-0.4-1.9-0.9-3.7-1.5-5c0-0.1-0.1-0.2-0.1-0.3c0.1,0.2,0.3,0.4,0.4,0.6
			c0.8,1.3,1.5,3,2.1,4.9c1.2,3.8,2,8,2,9.6C364,43.7,363.3,45.2,362.1,46.3L362.1,46.3z M359.8,47c-0.4,0.3-0.8,0.6-1.2,0.8
			c0.2-0.3,0.3-0.7,0.4-1.2c0.3-1.2,0.5-2.8,0.5-4.6s-0.2-6-0.5-9.8c-0.1-1.9-0.3-3.7-0.5-5c-0.1-0.4-0.1-0.7-0.2-1
			c0.2,0.3,0.4,0.7,0.6,1.2c0.5,1.3,1,3,1.4,4.9c0.8,3.8,1.3,8,1.3,9.7s-0.5,3.2-1.3,4.3C360.3,46.6,360.1,46.8,359.8,47L359.8,47z
			 M357.8,47.8c-0.1,0.1-0.2,0.2-0.2,0.2c-0.1,0-0.2-0.1-0.4-0.3c-0.2-0.3-0.4-0.7-0.5-1.3c-0.3-1.1-0.5-2.7-0.5-4.4
			s0.2-5.9,0.5-9.7c0.2-1.9,0.3-3.7,0.5-5c0.1-0.6,0.2-1.2,0.3-1.5l0,0l0,0c0.1,0.3,0.2,0.9,0.3,1.5c0.2,1.3,0.4,3.1,0.5,5
			c0.3,3.8,0.5,8,0.5,9.7s-0.2,3.3-0.5,4.4c-0.1,0.6-0.3,1-0.5,1.3C357.9,47.7,357.8,47.8,357.8,47.8L357.8,47.8z M356.4,47.8
			c-0.7-0.3-1.3-0.8-1.8-1.5c-0.8-1.1-1.3-2.6-1.3-4.3s0.5-5.9,1.3-9.7c0.4-1.9,0.9-3.6,1.4-4.9c0.2-0.5,0.4-0.9,0.6-1.2
			c-0.1,0.3-0.1,0.6-0.2,1c-0.2,1.3-0.4,3.1-0.5,5c-0.3,3.8-0.5,8-0.5,9.8s0.2,3.4,0.5,4.6C356.1,47.1,356.3,47.4,356.4,47.8
			L356.4,47.8z M354.6,47.4c-2.1-1-3.6-3-3.6-5.3c0-1.6,0.8-5.9,2-9.6c0.6-1.9,1.3-3.6,2.1-4.9c0.1-0.2,0.3-0.4,0.4-0.6
			c0,0.1-0.1,0.2-0.1,0.3c-0.6,1.3-1,3.1-1.5,5c-0.8,3.8-1.3,8-1.3,9.8c0,0,0,0,0,0.1c0,1.8,0.5,3.4,1.4,4.6
			C354.2,46.9,354.4,47.1,354.6,47.4L354.6,47.4z M358.4,24.6h-1.6V9.4h1.6V24.6L358.4,24.6z"/>
	</g>
</g>
</svg>
