<?xml version="1.0" encoding="utf-8"?>
<!-- Generator: Adobe Illustrator 18.0.0, SVG Export Plug-In . SVG Version: 6.00 Build 0)  -->
<!DOCTYPE svg PUBLIC "-//W3C//DTD SVG 1.1//EN" "http://www.w3.org/Graphics/SVG/1.1/DTD/svg11.dtd">
<svg version="1.1" id="Layer_1" xmlns="http://www.w3.org/2000/svg" xmlns:xlink="http://www.w3.org/1999/xlink" x="0px" y="0px"
	 width="55px" height="55px" viewBox="2.2 1.7 55 55" enable-background="new 2.2 1.7 55 55" xml:space="preserve">
<g>
	<circle fill="none" stroke="#A26415" stroke-miterlimit="10" cx="-240.2" cy="29.2" r="26.2"/>
	<polyline fill="none" stroke="#A26415" stroke-miterlimit="10" points="-227.9,31.2 -231.3,44.1 -250.5,44.1 -254.3,31.2 	"/>
	<line fill="none" stroke="#A26415" stroke-miterlimit="10" x1="-241.1" y1="44.1" x2="-241.1" y2="31.5"/>
	<line fill="none" stroke="#A26415" stroke-miterlimit="10" x1="-247.9" y1="44.1" x2="-249.5" y2="31.5"/>
	<line fill="none" stroke="#A26415" stroke-miterlimit="10" x1="-244.4" y1="44.1" x2="-245.3" y2="31.5"/>
	<line fill="none" stroke="#A26415" stroke-miterlimit="10" x1="-233.6" y1="44.1" x2="-231.9" y2="31.5"/>
	<line fill="none" stroke="#A26415" stroke-miterlimit="10" x1="-237.3" y1="44.1" x2="-236.5" y2="31.5"/>
	<path fill="none" stroke="#A26415" stroke-miterlimit="10" d="M-243.8,17c-3.4,0.7-6.2,2.8-7.6,5.6c-2.4,1.3-3.9,3.6-3.9,6.3
		c0,0.4,0,0.8,0.1,1.2"/>
	<path fill="none" stroke="#A26415" stroke-miterlimit="10" d="M-227,30.1c0.9-4.8-1.4-6.2-3.7-7.5c-1.2-2.4-3.5-4.3-6.3-5.3"/>
	<line fill="none" stroke="#A26415" stroke-miterlimit="10" x1="-254.3" y1="31.2" x2="-227.9" y2="31.2"/>
	<path fill="none" stroke="#A26415" stroke-miterlimit="10" d="M-237.2,17.5c0,1.8-1.4,3.2-3.2,3.2s-3.2-1.4-3.2-3.2
		s1.4-3.2,3.2-3.2C-238.6,14.3-237.2,15.7-237.2,17.5"/>
	<circle fill="none" stroke="#A26415" stroke-miterlimit="10" cx="-231.6" cy="11.4" r="1"/>
	<path fill="none" stroke="#A26415" stroke-miterlimit="10" d="M-240.4,16.1c0,0,2.1-6.6,7.6-5.1"/>
	<path fill="none" stroke="#A26415" stroke-miterlimit="10" d="M-250.1,28.6c0,0-0.3-2.9,1.7-3.8"/>
</g>
<g>
	<circle fill="none" stroke="#A26415" stroke-miterlimit="10" cx="-171.7" cy="29.2" r="26.2"/>
	<g>
		<path fill="none" stroke="#A26415" stroke-linecap="round" stroke-miterlimit="10" d="M-169.2,40.3l5.2,4.5c1.2,1.1,3.1,1,4.2-0.3
			l0.1-0.2c1.1-1.2,1-3.1-0.3-4.2l-5.3-4.8c-1.7-5.4-0.1-6.3-0.1-6.3l5.9-2.6c1.5-0.7,2.3-2.2,1.8-3.8l-0.1-0.2
			c-0.5-1.5-2.2-2.3-3.8-1.8l-5.7,2v-2.2c0.8-1,1.4-2.3,1.4-3.7c0-3.2-2.6-5.7-5.7-5.7c-3.2,0-5.7,2.6-5.7,5.7
			c0,1.4,0.5,2.7,1.4,3.7v2.2l-5.7-2c-1.5-0.5-3.2,0.3-3.8,1.8l-0.1,0.2c-0.5,1.5,0.2,3.1,1.8,3.8l5.9,2.6c0,0,1.6,1-0.1,6.3
			l-5.3,4.8c-1.2,1.1-1.3,3-0.3,4.2l0.1,0.2c1.1,1.2,3,1.3,4.2,0.3l5.2-4.5H-169.2z"/>
		<g>
			<circle fill="none" stroke="#A26415" stroke-linecap="round" stroke-miterlimit="10" cx="-173.5" cy="15.2" r="1"/>
			<circle fill="none" stroke="#A26415" stroke-linecap="round" stroke-miterlimit="10" cx="-169.9" cy="15.2" r="1"/>
		</g>
		<circle fill="none" stroke="#A26415" stroke-linecap="round" stroke-miterlimit="10" cx="-171.7" cy="31.7" r="1.5"/>
		<circle fill="none" stroke="#A26415" stroke-linecap="round" stroke-miterlimit="10" cx="-171.7" cy="26.1" r="1.5"/>
		<path fill="none" stroke="#A26415" stroke-linecap="round" stroke-miterlimit="10" d="M-169.5,18.4c-0.3,1-1.2,1.7-2.2,1.7
			c-1.1,0-2-0.8-2.2-1.8"/>
		<g>
			
				<line fill="none" stroke="#A26415" stroke-linecap="round" stroke-miterlimit="10" x1="-178.8" y1="21.8" x2="-181.4" y2="27.6"/>
			<line fill="none" stroke="#A26415" stroke-linecap="round" stroke-miterlimit="10" x1="-181.9" y1="38.9" x2="-177.9" y2="43"/>
		</g>
		<line fill="none" stroke="#A26415" stroke-linecap="round" stroke-miterlimit="10" x1="-164.3" y1="21.8" x2="-161.8" y2="27.4"/>
		<line fill="none" stroke="#A26415" stroke-linecap="round" stroke-miterlimit="10" x1="-161.9" y1="38.9" x2="-165.9" y2="43"/>
	</g>
</g>
<g>
	<circle fill="none" stroke="#A26415" stroke-miterlimit="10" cx="423" cy="29.2" r="26.2"/>
	<polygon fill="none" stroke="#A26415" stroke-linecap="round" stroke-linejoin="round" stroke-miterlimit="10" points="407.7,36.7 
		436.9,45.6 436.9,35.3 407.7,26.7 	"/>
	<path fill="none" stroke="#A26415" stroke-linecap="round" stroke-linejoin="round" stroke-miterlimit="10" d="M419.2,21.3
		c-3.8,0.5-8.8,1.9-11.5,5.4"/>
	<path fill="none" stroke="#A26415" stroke-linecap="round" stroke-linejoin="round" stroke-miterlimit="10" d="M436.9,35.1
		l-12.5-14c0,0-0.6,0-1.6,0"/>
	<g>
		<path fill="none" stroke="#A26415" stroke-linecap="round" stroke-linejoin="round" stroke-miterlimit="10" d="M407.9,30.7
			c1.6,0.5,1.2,2,2.8,2.4c1.6,0.5,2.1-1,3.7-0.5s1.2,2,2.8,2.4c1.6,0.5,2.1-1,3.7-0.5s1.2,2,2.8,2.4c1.6,0.5,2.1-1,3.7-0.5
			s1.2,2,2.8,2.4c1.6,0.5,2.1-1,3.7-0.5s1.2,2,2.8,2.4"/>
	</g>
	
		<rect x="419.3" y="17" fill="none" stroke="#A26415" stroke-linecap="round" stroke-linejoin="round" stroke-miterlimit="10" width="3.2" height="10.4"/>
	<path fill="none" stroke="#A26415" stroke-linecap="round" stroke-linejoin="round" stroke-miterlimit="10" d="M421,16.7
		c0,0-2.8-1.6-2-4.1c0,0,1.1-1,2-4C421,8.6,425.5,13.4,421,16.7z"/>
</g>
<g>
	<circle fill="none" stroke="#A26415" stroke-miterlimit="10" cx="-112.1" cy="29.2" r="26.2"/>
	<polyline fill="none" stroke="#A26415" stroke-linecap="round" stroke-linejoin="round" stroke-miterlimit="10" points="
		-92.5,46.5 -92.5,35.1 -131.7,35.1 -131.7,46.1 	"/>
	<polyline fill="none" stroke="#A26415" stroke-linecap="round" stroke-linejoin="round" stroke-miterlimit="10" points="-96.4,35 
		-96.4,22.8 -127.7,22.8 -127.7,35 	"/>
	<path fill="none" stroke="#A26415" stroke-linecap="round" stroke-linejoin="round" stroke-miterlimit="10" d="M-131.5,44.2
		c0.7,0.3,1.6,0.5,2.5,0.5c2.6,0,4.8-1.7,5.6-4c0.8,2.3,3,4,5.6,4s4.8-1.7,5.6-4c0.8,2.3,3,4,5.6,4s4.8-1.7,5.6-4c0.8,2.3,3,4,5.6,4
		c1,0,1.9-0.2,2.7-0.6"/>
	<path fill="none" stroke="#A26415" stroke-linecap="round" stroke-linejoin="round" stroke-miterlimit="10" d="M-127.5,31.1
		c2.2-0.3,4-1.7,4.7-3.7c0.8,2.2,2.9,3.8,5.4,3.8s4.6-1.6,5.4-3.8c0.8,2.2,2.9,3.8,5.4,3.8s4.6-1.6,5.4-3.8c0.7,2.1,2.6,3.6,4.9,3.8
		"/>
	<path fill="none" stroke="#A26415" stroke-linecap="round" stroke-linejoin="round" stroke-miterlimit="10" d="M-117.4,16.5
		c-0.2-0.4-0.4-0.9-0.4-1.4c0-1.6,1.3-3,3-3c1.3,0,2.3,0.8,2.8,1.9c0.4-1.1,1.5-1.9,2.8-1.9c1.6,0,3,1.3,3,3c0,0.5-0.1,1-0.4,1.4
		l-5.3,5.5L-117.4,16.5z"/>
</g>
<g>
	<circle fill="none" stroke="#A26415" stroke-miterlimit="10" cx="-49.6" cy="29.2" r="26.2"/>
	<g>
		<polyline fill="none" stroke="#A26415" stroke-linecap="round" stroke-linejoin="round" stroke-miterlimit="10" points="
			-60.2,18.3 -62.1,20.2 -62.1,28.8 -46.4,44.5 -33.2,31.4 -48.8,15.7 -57.2,15.7 -58.2,16.8 		"/>
		
			<line fill="none" stroke="#A26415" stroke-linecap="round" stroke-linejoin="round" stroke-miterlimit="10" x1="-57" y1="20.9" x2="-54.1" y2="23.8"/>
		
			<line fill="none" stroke="#A26415" stroke-linecap="round" stroke-linejoin="round" stroke-miterlimit="10" x1="-67.6" y1="10.3" x2="-57" y2="20.9"/>
		<path fill="none" stroke="#A26415" stroke-linecap="round" stroke-linejoin="round" stroke-miterlimit="10" d="M-54.6,20.1
			c1.9,0,3.5,1.5,3.5,3.5s-1.5,3.5-3.5,3.5s-3.5-1.5-3.5-3.5c0-1,0.4-1.9,1.1-2.5"/>
	</g>
</g>
<g>
	<g>
		<g>
			<path fill="#A26415" d="M32.16,46.31h-1v-4.85l5.67-1c1.84-0.54,3.18-1.5,3.7-2.69c0.38-0.85,0.33-1.79-0.15-2.79l-8.67-22.61
				c-0.54-1.15-1.27-1.83-2-1.84c-0.74,0.02-1.53,0.68-2.13,1.89l-8.64,22.52c-0.68,1.47-0.8,2.66-0.36,3.58
				c0.43,0.9,1.4,1.55,2.91,1.94l6.77,0.98v4.86h-1v-4l-5.96-0.87c-1.86-0.47-3.05-1.31-3.61-2.49c-0.57-1.2-0.45-2.68,0.35-4.4
				l8.64-22.54c0.81-1.64,1.89-2.52,3.06-2.48c1.15,0.02,2.18,0.89,2.91,2.45l8.67,22.6c0.59,1.22,0.64,2.47,0.15,3.59
				c-0.65,1.46-2.21,2.61-4.39,3.25l-4.9,0.87V46.31z"/>
		</g>
		<g>
			<path fill="#A26415" d="M32.98,50.1h-6.67v-4.3h6.67V50.1z M27.31,49.1h4.67v-2.3h-4.67V49.1z"/>
		</g>
		<g>
			<polygon fill="#A26415" points="32.25,56.05 32,50.1 27.3,50.1 27.08,56.04 26.08,56 26.33,49.1 32.96,49.1 33.25,56.01 			"/>
		</g>
		<g>
			
				<rect x="26.16" y="22.56" transform="matrix(0.8129 0.5823 -0.5823 0.8129 21.7814 -10.1307)" fill="#A26415" width="1" height="12.56"/>
		</g>
		<g>
			
				<rect x="26.62" y="29.2" transform="matrix(0.8173 0.5761 -0.5761 0.8173 23.7371 -9.6725)" fill="#A26415" width="1" height="6.8"/>
		</g>
	</g>
	<path fill="#A26415" d="M29.7,56.7c-15.16,0-27.5-12.34-27.5-27.5c0-15.16,12.34-27.5,27.5-27.5c15.16,0,27.5,12.34,27.5,27.5
		C57.2,44.36,44.86,56.7,29.7,56.7z M29.7,2.7C15.09,2.7,3.2,14.59,3.2,29.2s11.89,26.5,26.5,26.5s26.5-11.89,26.5-26.5
		S44.31,2.7,29.7,2.7z"/>
</g>
<g>
	<circle fill="none" stroke="#A26415" stroke-miterlimit="10" cx="357.5" cy="29.2" r="26.2"/>
	<g>
		<path fill="#A26415" d="M362.6,46.7c1.3-1.2,2.1-2.9,2.1-4.7s-0.8-6-2-9.9c-0.6-1.9-1.4-3.7-2.2-5.1c-0.5-0.8-1-1.4-1.6-1.8
			c0.1-0.1,0.2-0.2,0.2-0.3V9c0-0.2-0.2-0.4-0.3-0.3h-2.3c-0.2,0-0.3,0.2-0.3,0.3v15.9c0,0.1,0.1,0.2,0.2,0.3
			c-0.6,0.4-1.1,1.1-1.6,1.9c-0.8,1.3-1.6,3.2-2.2,5.1c-1.2,3.8-2,8-2,9.9c0,3.4,2.7,6.1,6.1,6.6c0.7,0.1,1.3,0.1,1.9,0
			C360,48.4,361.5,47.8,362.6,46.7L362.6,46.7z M362.1,46.3c-0.5,0.4-1.1,0.8-1.7,1.1c0.2-0.2,0.4-0.4,0.6-0.7
			c0.9-1.2,1.4-2.9,1.4-4.7s-0.5-6-1.3-9.8c-0.4-1.9-0.9-3.7-1.5-5c0-0.1-0.1-0.2-0.1-0.3c0.1,0.2,0.3,0.4,0.4,0.6
			c0.8,1.3,1.5,3,2.1,4.9c1.2,3.8,2,8,2,9.6C364,43.7,363.3,45.2,362.1,46.3L362.1,46.3z M359.8,47c-0.4,0.3-0.8,0.6-1.2,0.8
			c0.2-0.3,0.3-0.7,0.4-1.2c0.3-1.2,0.5-2.8,0.5-4.6s-0.2-6-0.5-9.8c-0.1-1.9-0.3-3.7-0.5-5c-0.1-0.4-0.1-0.7-0.2-1
			c0.2,0.3,0.4,0.7,0.6,1.2c0.5,1.3,1,3,1.4,4.9c0.8,3.8,1.3,8,1.3,9.7s-0.5,3.2-1.3,4.3C360.3,46.6,360.1,46.8,359.8,47L359.8,47z
			 M357.8,47.8c-0.1,0.1-0.2,0.2-0.2,0.2c-0.1,0-0.2-0.1-0.4-0.3c-0.2-0.3-0.4-0.7-0.5-1.3c-0.3-1.1-0.5-2.7-0.5-4.4
			s0.2-5.9,0.5-9.7c0.2-1.9,0.3-3.7,0.5-5c0.1-0.6,0.2-1.2,0.3-1.5l0,0l0,0c0.1,0.3,0.2,0.9,0.3,1.5c0.2,1.3,0.4,3.1,0.5,5
			c0.3,3.8,0.5,8,0.5,9.7s-0.2,3.3-0.5,4.4c-0.1,0.6-0.3,1-0.5,1.3C357.9,47.7,357.8,47.8,357.8,47.8L357.8,47.8z M356.4,47.8
			c-0.7-0.3-1.3-0.8-1.8-1.5c-0.8-1.1-1.3-2.6-1.3-4.3s0.5-5.9,1.3-9.7c0.4-1.9,0.9-3.6,1.4-4.9c0.2-0.5,0.4-0.9,0.6-1.2
			c-0.1,0.3-0.1,0.6-0.2,1c-0.2,1.3-0.4,3.1-0.5,5c-0.3,3.8-0.5,8-0.5,9.8s0.2,3.4,0.5,4.6C356.1,47.1,356.3,47.4,356.4,47.8
			L356.4,47.8z M354.6,47.4c-2.1-1-3.6-3-3.6-5.3c0-1.6,0.8-5.9,2-9.6c0.6-1.9,1.3-3.6,2.1-4.9c0.1-0.2,0.3-0.4,0.4-0.6
			c0,0.1-0.1,0.2-0.1,0.3c-0.6,1.3-1,3.1-1.5,5c-0.8,3.8-1.3,8-1.3,9.8c0,0,0,0,0,0.1c0,1.8,0.5,3.4,1.4,4.6
			C354.2,46.9,354.4,47.1,354.6,47.4L354.6,47.4z M358.4,24.6h-1.6V9.4h1.6V24.6L358.4,24.6z"/>
	</g>
</g>
</svg>
