<?xml version="1.0" encoding="utf-8"?>
<!-- Generator: Adobe Illustrator 18.0.0, SVG Export Plug-In . SVG Version: 6.00 Build 0)  -->
<!DOCTYPE svg PUBLIC "-//W3C//DTD SVG 1.1//EN" "http://www.w3.org/Graphics/SVG/1.1/DTD/svg11.dtd">
<svg version="1.1" id="Layer_1" xmlns="http://www.w3.org/2000/svg" xmlns:xlink="http://www.w3.org/1999/xlink" x="0px" y="0px"
	 width="55px" height="55px" viewBox="2.2 1.7 55 55" enable-background="new 2.2 1.7 55 55" xml:space="preserve">
<g>
	<circle fill="none" stroke="#A26415" stroke-miterlimit="10" cx="226.6" cy="29.2" r="26.2"/>
	<polyline fill="none" stroke="#A26415" stroke-miterlimit="10" points="238.9,31.2 235.5,44.1 216.3,44.1 212.5,31.2 	"/>
	<line fill="none" stroke="#A26415" stroke-miterlimit="10" x1="225.7" y1="44.1" x2="225.7" y2="31.5"/>
	<line fill="none" stroke="#A26415" stroke-miterlimit="10" x1="218.9" y1="44.1" x2="217.2" y2="31.5"/>
	<line fill="none" stroke="#A26415" stroke-miterlimit="10" x1="222.3" y1="44.1" x2="221.5" y2="31.5"/>
	<line fill="none" stroke="#A26415" stroke-miterlimit="10" x1="233.2" y1="44.1" x2="234.8" y2="31.5"/>
	<line fill="none" stroke="#A26415" stroke-miterlimit="10" x1="229.5" y1="44.1" x2="230.3" y2="31.5"/>
	<path fill="none" stroke="#A26415" stroke-miterlimit="10" d="M223,17c-3.4,0.7-6.2,2.8-7.6,5.6c-2.4,1.3-3.9,3.6-3.9,6.3
		c0,0.4,0,0.8,0.1,1.2"/>
	<path fill="none" stroke="#A26415" stroke-miterlimit="10" d="M239.7,30.1c0.9-4.8-1.4-6.2-3.7-7.5c-1.2-2.4-3.5-4.3-6.3-5.3"/>
	<line fill="none" stroke="#A26415" stroke-miterlimit="10" x1="212.5" y1="31.2" x2="238.9" y2="31.2"/>
	<path fill="none" stroke="#A26415" stroke-miterlimit="10" d="M229.6,17.5c0,1.8-1.4,3.2-3.2,3.2s-3.2-1.4-3.2-3.2s1.4-3.2,3.2-3.2
		C228.1,14.3,229.6,15.7,229.6,17.5"/>
	<circle fill="none" stroke="#A26415" stroke-miterlimit="10" cx="235.2" cy="11.4" r="1"/>
	<path fill="none" stroke="#A26415" stroke-miterlimit="10" d="M226.4,16.1c0,0,2.1-6.6,7.6-5.1"/>
	<path fill="none" stroke="#A26415" stroke-miterlimit="10" d="M216.7,28.6c0,0-0.3-2.9,1.7-3.8"/>
</g>
<g>
	<circle fill="none" stroke="#A26415" stroke-miterlimit="10" cx="161.1" cy="29.2" r="26.2"/>
	<g>
		<path fill="none" stroke="#A26415" stroke-linecap="round" stroke-miterlimit="10" d="M163.6,40.3l5.2,4.5c1.2,1.1,3.1,1,4.2-0.3
			l0.1-0.2c1.1-1.2,1-3.1-0.3-4.2l-5.3-4.8c-1.7-5.4-0.1-6.3-0.1-6.3l5.9-2.6c1.5-0.7,2.3-2.2,1.8-3.8l-0.1-0.2
			c-0.5-1.5-2.2-2.3-3.8-1.8l-5.7,2v-2.2c0.8-1,1.4-2.3,1.4-3.7c0-3.2-2.6-5.7-5.7-5.7c-3.2,0-5.7,2.6-5.7,5.7
			c0,1.4,0.5,2.7,1.4,3.7v2.2l-5.7-2c-1.5-0.5-3.2,0.3-3.8,1.8l-0.1,0.2c-0.5,1.5,0.2,3.1,1.8,3.8L155,29c0,0,1.6,1-0.1,6.3
			l-5.3,4.8c-1.2,1.1-1.3,3-0.3,4.2l0.1,0.2c1.1,1.2,3,1.3,4.2,0.3l5.2-4.5H163.6z"/>
		<g>
			<circle fill="none" stroke="#A26415" stroke-linecap="round" stroke-miterlimit="10" cx="159.3" cy="15.2" r="1"/>
			<circle fill="none" stroke="#A26415" stroke-linecap="round" stroke-miterlimit="10" cx="162.9" cy="15.2" r="1"/>
		</g>
		<circle fill="none" stroke="#A26415" stroke-linecap="round" stroke-miterlimit="10" cx="161.1" cy="31.7" r="1.5"/>
		<circle fill="none" stroke="#A26415" stroke-linecap="round" stroke-miterlimit="10" cx="161.1" cy="26.1" r="1.5"/>
		<path fill="none" stroke="#A26415" stroke-linecap="round" stroke-miterlimit="10" d="M163.4,18.4c-0.3,1-1.2,1.7-2.2,1.7
			c-1.1,0-2-0.8-2.2-1.8"/>
		<g>
			<line fill="none" stroke="#A26415" stroke-linecap="round" stroke-miterlimit="10" x1="154" y1="21.8" x2="151.4" y2="27.6"/>
			<line fill="none" stroke="#A26415" stroke-linecap="round" stroke-miterlimit="10" x1="150.9" y1="38.9" x2="154.9" y2="43"/>
		</g>
		<line fill="none" stroke="#A26415" stroke-linecap="round" stroke-miterlimit="10" x1="168.5" y1="21.8" x2="171" y2="27.4"/>
		<line fill="none" stroke="#A26415" stroke-linecap="round" stroke-miterlimit="10" x1="171" y1="38.9" x2="166.9" y2="43"/>
	</g>
</g>
<g>
	<circle fill="none" stroke="#A26415" stroke-miterlimit="10" cx="423" cy="29.2" r="26.2"/>
	<polygon fill="none" stroke="#A26415" stroke-linecap="round" stroke-linejoin="round" stroke-miterlimit="10" points="407.7,36.7 
		436.9,45.6 436.9,35.3 407.7,26.7 	"/>
	<path fill="none" stroke="#A26415" stroke-linecap="round" stroke-linejoin="round" stroke-miterlimit="10" d="M419.2,21.3
		c-3.8,0.5-8.8,1.9-11.5,5.4"/>
	<path fill="none" stroke="#A26415" stroke-linecap="round" stroke-linejoin="round" stroke-miterlimit="10" d="M436.9,35.1
		l-12.5-14c0,0-0.6,0-1.6,0"/>
	<g>
		<path fill="none" stroke="#A26415" stroke-linecap="round" stroke-linejoin="round" stroke-miterlimit="10" d="M407.9,30.7
			c1.6,0.5,1.2,2,2.8,2.4c1.6,0.5,2.1-1,3.7-0.5s1.2,2,2.8,2.4c1.6,0.5,2.1-1,3.7-0.5s1.2,2,2.8,2.4c1.6,0.5,2.1-1,3.7-0.5
			s1.2,2,2.8,2.4c1.6,0.5,2.1-1,3.7-0.5s1.2,2,2.8,2.4"/>
	</g>
	
		<rect x="419.3" y="17" fill="none" stroke="#A26415" stroke-linecap="round" stroke-linejoin="round" stroke-miterlimit="10" width="3.2" height="10.4"/>
	<path fill="none" stroke="#A26415" stroke-linecap="round" stroke-linejoin="round" stroke-miterlimit="10" d="M421,16.7
		c0,0-2.8-1.6-2-4.1c0,0,1.1-1,2-4C421,8.6,425.5,13.4,421,16.7z"/>
</g>
<g>
	<circle fill="none" stroke="#A26415" stroke-miterlimit="10" cx="95.7" cy="29.2" r="26.2"/>
	<polyline fill="none" stroke="#A26415" stroke-linecap="round" stroke-linejoin="round" stroke-miterlimit="10" points="
		115.3,46.5 115.3,35.1 76.1,35.1 76.1,46.1 	"/>
	<polyline fill="none" stroke="#A26415" stroke-linecap="round" stroke-linejoin="round" stroke-miterlimit="10" points="111.3,35 
		111.3,22.8 80,22.8 80,35 	"/>
	<path fill="none" stroke="#A26415" stroke-linecap="round" stroke-linejoin="round" stroke-miterlimit="10" d="M76.2,44.2
		c0.7,0.3,1.6,0.5,2.5,0.5c2.6,0,4.8-1.7,5.6-4c0.8,2.3,3,4,5.6,4s4.8-1.7,5.6-4c0.8,2.3,3,4,5.6,4s4.8-1.7,5.6-4c0.8,2.3,3,4,5.6,4
		c1,0,1.9-0.2,2.7-0.6"/>
	<path fill="none" stroke="#A26415" stroke-linecap="round" stroke-linejoin="round" stroke-miterlimit="10" d="M80.2,31.1
		c2.2-0.3,4-1.7,4.7-3.7c0.8,2.2,2.9,3.8,5.4,3.8s4.6-1.6,5.4-3.8c0.8,2.2,2.9,3.8,5.4,3.8s4.6-1.6,5.4-3.8c0.7,2.1,2.6,3.6,4.9,3.8
		"/>
	<path fill="none" stroke="#A26415" stroke-linecap="round" stroke-linejoin="round" stroke-miterlimit="10" d="M90.3,16.5
		C90.1,16,90,15.6,90,15.1c0-1.6,1.3-3,3-3c1.3,0,2.3,0.8,2.8,1.9c0.4-1.1,1.5-1.9,2.8-1.9c1.6,0,3,1.3,3,3c0,0.5-0.1,1-0.4,1.4
		L95.7,22L90.3,16.5z"/>
</g>
<g>
	<path fill="#A26415" d="M29.7,56.7c-15.16,0-27.5-12.34-27.5-27.5c0-15.16,12.34-27.5,27.5-27.5c15.16,0,27.5,12.34,27.5,27.5
		C57.2,44.36,44.86,56.7,29.7,56.7z M29.7,2.7C15.09,2.7,3.2,14.59,3.2,29.2s11.89,26.5,26.5,26.5s26.5-11.89,26.5-26.5
		S44.31,2.7,29.7,2.7z"/>
	<g>
		<path fill="#A26415" d="M32.89,45.47c-0.13,0-0.26-0.05-0.35-0.15L16.36,29.14c-0.09-0.09-0.15-0.22-0.15-0.35v-8.86
			c0-0.13,0.05-0.26,0.15-0.35l1.96-1.96c0.2-0.2,0.51-0.2,0.71,0s0.2,0.51,0,0.71l-1.81,1.81v8.45L32.9,44.26l12.9-12.8
			L30.21,15.79h-8.23l-0.88,0.97c-0.19,0.21-0.5,0.22-0.71,0.03c-0.2-0.19-0.22-0.5-0.03-0.71l1.03-1.13
			c0.09-0.1,0.23-0.16,0.37-0.16h8.66c0.13,0,0.26,0.05,0.35,0.15l16.08,16.18c0.09,0.09,0.15,0.22,0.15,0.35s-0.05,0.26-0.15,0.35
			l-13.6,13.5C33.15,45.42,33.02,45.47,32.89,45.47z"/>
		<path fill="#A26415" d="M24.96,24.14c-0.13,0-0.26-0.05-0.35-0.15L21.62,21c-0.2-0.2-0.2-0.51,0-0.71s0.51-0.2,0.71,0l2.99,2.99
			c0.2,0.2,0.2,0.51,0,0.71C25.22,24.09,25.09,24.14,24.96,24.14z"/>
		<path fill="#A26415" d="M21.97,21.15c-0.13,0-0.26-0.05-0.35-0.15L10.69,10.08c-0.2-0.2-0.2-0.51,0-0.71s0.51-0.2,0.71,0
			l10.92,10.92c0.2,0.2,0.2,0.51,0,0.71C22.23,21.1,22.1,21.15,21.97,21.15z"/>
		<path fill="#A26415" d="M24.44,27.43c-2.3,0-4.11-1.8-4.11-4.11c0-1.17,0.48-2.24,1.31-2.96c0.21-0.18,0.53-0.16,0.7,0.05
			c0.18,0.21,0.16,0.52-0.05,0.7c-0.61,0.52-0.96,1.32-0.96,2.2c0,1.74,1.36,3.11,3.11,3.11c1.77,0,3.11-1.29,3.11-3
			c0-1.74-1.36-3.11-3.11-3.11c-0.28,0-0.5-0.22-0.5-0.5s0.22-0.5,0.5-0.5c2.3,0,4.11,1.8,4.11,4.11
			C28.55,25.67,26.75,27.43,24.44,27.43z"/>
	</g>
</g>
<g>
	<g>
		<g>
			<defs>
				<circle id="SVGID_2_" cx="292.1" cy="29.2" r="26.2"/>
			</defs>
			<clipPath id="SVGID_3_">
				<use xlink:href="#SVGID_2_"  overflow="visible"/>
			</clipPath>
			<path clip-path="url(#SVGID_3_)" fill="none" stroke="#A26415" stroke-miterlimit="10" d="M294,45.8v-4.3l5.1-0.9
				c3.4-1,5.1-3.3,3.8-6l-8.4-21.9c-1.3-2.8-3.5-2.8-4.9,0l-8.4,21.9c-1.3,2.8-0.7,5.1,2.8,6l6.2,0.9v4.3"/>
		</g>
		<g>
			<defs>
				<circle id="SVGID_4_" cx="292.1" cy="29.2" r="26.2"/>
			</defs>
			<clipPath id="SVGID_5_">
				<use xlink:href="#SVGID_4_"  overflow="visible"/>
			</clipPath>
			
				<rect x="289.3" y="45.8" clip-path="url(#SVGID_5_)" fill="none" stroke="#A26415" stroke-miterlimit="10" width="5.5" height="3.2"/>
		</g>
		<g>
			<defs>
				<circle id="SVGID_6_" cx="292.1" cy="29.2" r="26.2"/>
			</defs>
			<clipPath id="SVGID_7_">
				<use xlink:href="#SVGID_6_"  overflow="visible"/>
			</clipPath>
			<polygon clip-path="url(#SVGID_7_)" fill="none" stroke="#A26415" stroke-miterlimit="10" points="295.8,73.3 288.4,73.3 
				289.3,49 294.8,49 			"/>
		</g>
		<g>
			<defs>
				<circle id="SVGID_8_" cx="292.1" cy="29.2" r="26.2"/>
			</defs>
			<clipPath id="SVGID_9_">
				<use xlink:href="#SVGID_8_"  overflow="visible"/>
			</clipPath>
			
				<line clip-path="url(#SVGID_9_)" fill="none" stroke="#A26415" stroke-miterlimit="10" x1="292.7" y1="23.9" x2="285.6" y2="33.8"/>
		</g>
		<g>
			<defs>
				<circle id="SVGID_10_" cx="292.1" cy="29.2" r="26.2"/>
			</defs>
			<clipPath id="SVGID_11_">
				<use xlink:href="#SVGID_10_"  overflow="visible"/>
			</clipPath>
			
				<line clip-path="url(#SVGID_11_)" fill="none" stroke="#A26415" stroke-miterlimit="10" x1="291.6" y1="29.8" x2="287.7" y2="35.2"/>
		</g>
		<g>
			<circle id="SVGID_1_" fill="none" stroke="#A26415" stroke-miterlimit="10" cx="292.1" cy="29.2" r="26.2"/>
		</g>
	</g>
	<circle fill="none" stroke="#A26415" stroke-miterlimit="10" cx="292.1" cy="29.2" r="26.2"/>
</g>
<g>
	<circle fill="none" stroke="#A26415" stroke-miterlimit="10" cx="357.5" cy="29.2" r="26.2"/>
	<g>
		<path fill="#A26415" d="M362.6,46.7c1.3-1.2,2.1-2.9,2.1-4.7s-0.8-6-2-9.9c-0.6-1.9-1.4-3.7-2.2-5.1c-0.5-0.8-1-1.4-1.6-1.8
			c0.1-0.1,0.2-0.2,0.2-0.3V9c0-0.2-0.2-0.4-0.3-0.3h-2.3c-0.2,0-0.3,0.2-0.3,0.3v15.9c0,0.1,0.1,0.2,0.2,0.3
			c-0.6,0.4-1.1,1.1-1.6,1.9c-0.8,1.3-1.6,3.2-2.2,5.1c-1.2,3.8-2,8-2,9.9c0,3.4,2.7,6.1,6.1,6.6c0.7,0.1,1.3,0.1,1.9,0
			C360,48.4,361.5,47.8,362.6,46.7L362.6,46.7z M362.1,46.3c-0.5,0.4-1.1,0.8-1.7,1.1c0.2-0.2,0.4-0.4,0.6-0.7
			c0.9-1.2,1.4-2.9,1.4-4.7s-0.5-6-1.3-9.8c-0.4-1.9-0.9-3.7-1.5-5c0-0.1-0.1-0.2-0.1-0.3c0.1,0.2,0.3,0.4,0.4,0.6
			c0.8,1.3,1.5,3,2.1,4.9c1.2,3.8,2,8,2,9.6C364,43.7,363.3,45.2,362.1,46.3L362.1,46.3z M359.8,47c-0.4,0.3-0.8,0.6-1.2,0.8
			c0.2-0.3,0.3-0.7,0.4-1.2c0.3-1.2,0.5-2.8,0.5-4.6s-0.2-6-0.5-9.8c-0.1-1.9-0.3-3.7-0.5-5c-0.1-0.4-0.1-0.7-0.2-1
			c0.2,0.3,0.4,0.7,0.6,1.2c0.5,1.3,1,3,1.4,4.9c0.8,3.8,1.3,8,1.3,9.7s-0.5,3.2-1.3,4.3C360.3,46.6,360.1,46.8,359.8,47L359.8,47z
			 M357.8,47.8c-0.1,0.1-0.2,0.2-0.2,0.2c-0.1,0-0.2-0.1-0.4-0.3c-0.2-0.3-0.4-0.7-0.5-1.3c-0.3-1.1-0.5-2.7-0.5-4.4
			s0.2-5.9,0.5-9.7c0.2-1.9,0.3-3.7,0.5-5c0.1-0.6,0.2-1.2,0.3-1.5l0,0l0,0c0.1,0.3,0.2,0.9,0.3,1.5c0.2,1.3,0.4,3.1,0.5,5
			c0.3,3.8,0.5,8,0.5,9.7s-0.2,3.3-0.5,4.4c-0.1,0.6-0.3,1-0.5,1.3C357.9,47.7,357.8,47.8,357.8,47.8L357.8,47.8z M356.4,47.8
			c-0.7-0.3-1.3-0.8-1.8-1.5c-0.8-1.1-1.3-2.6-1.3-4.3s0.5-5.9,1.3-9.7c0.4-1.9,0.9-3.6,1.4-4.9c0.2-0.5,0.4-0.9,0.6-1.2
			c-0.1,0.3-0.1,0.6-0.2,1c-0.2,1.3-0.4,3.1-0.5,5c-0.3,3.8-0.5,8-0.5,9.8s0.2,3.4,0.5,4.6C356.1,47.1,356.3,47.4,356.4,47.8
			L356.4,47.8z M354.6,47.4c-2.1-1-3.6-3-3.6-5.3c0-1.6,0.8-5.9,2-9.6c0.6-1.9,1.3-3.6,2.1-4.9c0.1-0.2,0.3-0.4,0.4-0.6
			c0,0.1-0.1,0.2-0.1,0.3c-0.6,1.3-1,3.1-1.5,5c-0.8,3.8-1.3,8-1.3,9.8c0,0,0,0,0,0.1c0,1.8,0.5,3.4,1.4,4.6
			C354.2,46.9,354.4,47.1,354.6,47.4L354.6,47.4z M358.4,24.6h-1.6V9.4h1.6V24.6L358.4,24.6z"/>
	</g>
</g>
</svg>
