<?xml version="1.0" encoding="utf-8"?>
<!-- Generator: Adobe Illustrator 18.0.0, SVG Export Plug-In . SVG Version: 6.00 Build 0)  -->
<!DOCTYPE svg PUBLIC "-//W3C//DTD SVG 1.1//EN" "http://www.w3.org/Graphics/SVG/1.1/DTD/svg11.dtd">
<svg version="1.1" id="Layer_1" xmlns="http://www.w3.org/2000/svg" xmlns:xlink="http://www.w3.org/1999/xlink" x="0px" y="0px"
	 width="55px" height="55px" viewBox="2.2 1.7 55 55" enable-background="new 2.2 1.7 55 55" xml:space="preserve">
<g>
	<circle fill="none" stroke="#A26415" stroke-miterlimit="10" cx="-240.2" cy="29.2" r="26.2"/>
	<polyline fill="none" stroke="#A26415" stroke-miterlimit="10" points="-227.9,31.2 -231.3,44.1 -250.5,44.1 -254.3,31.2 	"/>
	<line fill="none" stroke="#A26415" stroke-miterlimit="10" x1="-241.1" y1="44.1" x2="-241.1" y2="31.5"/>
	<line fill="none" stroke="#A26415" stroke-miterlimit="10" x1="-247.9" y1="44.1" x2="-249.5" y2="31.5"/>
	<line fill="none" stroke="#A26415" stroke-miterlimit="10" x1="-244.4" y1="44.1" x2="-245.3" y2="31.5"/>
	<line fill="none" stroke="#A26415" stroke-miterlimit="10" x1="-233.6" y1="44.1" x2="-231.9" y2="31.5"/>
	<line fill="none" stroke="#A26415" stroke-miterlimit="10" x1="-237.3" y1="44.1" x2="-236.5" y2="31.5"/>
	<path fill="none" stroke="#A26415" stroke-miterlimit="10" d="M-243.8,17c-3.4,0.7-6.2,2.8-7.6,5.6c-2.4,1.3-3.9,3.6-3.9,6.3
		c0,0.4,0,0.8,0.1,1.2"/>
	<path fill="none" stroke="#A26415" stroke-miterlimit="10" d="M-227,30.1c0.9-4.8-1.4-6.2-3.7-7.5c-1.2-2.4-3.5-4.3-6.3-5.3"/>
	<line fill="none" stroke="#A26415" stroke-miterlimit="10" x1="-254.3" y1="31.2" x2="-227.9" y2="31.2"/>
	<path fill="none" stroke="#A26415" stroke-miterlimit="10" d="M-237.2,17.5c0,1.8-1.4,3.2-3.2,3.2s-3.2-1.4-3.2-3.2
		s1.4-3.2,3.2-3.2C-238.6,14.3-237.2,15.7-237.2,17.5"/>
	<circle fill="none" stroke="#A26415" stroke-miterlimit="10" cx="-231.6" cy="11.4" r="1"/>
	<path fill="none" stroke="#A26415" stroke-miterlimit="10" d="M-240.4,16.1c0,0,2.1-6.6,7.6-5.1"/>
	<path fill="none" stroke="#A26415" stroke-miterlimit="10" d="M-250.1,28.6c0,0-0.3-2.9,1.7-3.8"/>
</g>
<g>
	<circle fill="none" stroke="#A26415" stroke-miterlimit="10" cx="-171.7" cy="29.2" r="26.2"/>
	<g>
		<path fill="none" stroke="#A26415" stroke-linecap="round" stroke-miterlimit="10" d="M-169.2,40.3l5.2,4.5c1.2,1.1,3.1,1,4.2-0.3
			l0.1-0.2c1.1-1.2,1-3.1-0.3-4.2l-5.3-4.8c-1.7-5.4-0.1-6.3-0.1-6.3l5.9-2.6c1.5-0.7,2.3-2.2,1.8-3.8l-0.1-0.2
			c-0.5-1.5-2.2-2.3-3.8-1.8l-5.7,2v-2.2c0.8-1,1.4-2.3,1.4-3.7c0-3.2-2.6-5.7-5.7-5.7c-3.2,0-5.7,2.6-5.7,5.7
			c0,1.4,0.5,2.7,1.4,3.7v2.2l-5.7-2c-1.5-0.5-3.2,0.3-3.8,1.8l-0.1,0.2c-0.5,1.5,0.2,3.1,1.8,3.8l5.9,2.6c0,0,1.6,1-0.1,6.3
			l-5.3,4.8c-1.2,1.1-1.3,3-0.3,4.2l0.1,0.2c1.1,1.2,3,1.3,4.2,0.3l5.2-4.5H-169.2z"/>
		<g>
			<circle fill="none" stroke="#A26415" stroke-linecap="round" stroke-miterlimit="10" cx="-173.5" cy="15.2" r="1"/>
			<circle fill="none" stroke="#A26415" stroke-linecap="round" stroke-miterlimit="10" cx="-169.9" cy="15.2" r="1"/>
		</g>
		<circle fill="none" stroke="#A26415" stroke-linecap="round" stroke-miterlimit="10" cx="-171.7" cy="31.7" r="1.5"/>
		<circle fill="none" stroke="#A26415" stroke-linecap="round" stroke-miterlimit="10" cx="-171.7" cy="26.1" r="1.5"/>
		<path fill="none" stroke="#A26415" stroke-linecap="round" stroke-miterlimit="10" d="M-169.5,18.4c-0.3,1-1.2,1.7-2.2,1.7
			c-1.1,0-2-0.8-2.2-1.8"/>
		<g>
			
				<line fill="none" stroke="#A26415" stroke-linecap="round" stroke-miterlimit="10" x1="-178.8" y1="21.8" x2="-181.4" y2="27.6"/>
			<line fill="none" stroke="#A26415" stroke-linecap="round" stroke-miterlimit="10" x1="-181.9" y1="38.9" x2="-177.9" y2="43"/>
		</g>
		<line fill="none" stroke="#A26415" stroke-linecap="round" stroke-miterlimit="10" x1="-164.3" y1="21.8" x2="-161.8" y2="27.4"/>
		<line fill="none" stroke="#A26415" stroke-linecap="round" stroke-miterlimit="10" x1="-161.9" y1="38.9" x2="-165.9" y2="43"/>
	</g>
</g>
<g>
	<circle fill="none" stroke="#A26415" stroke-miterlimit="10" cx="423" cy="29.2" r="26.2"/>
	<polygon fill="none" stroke="#A26415" stroke-linecap="round" stroke-linejoin="round" stroke-miterlimit="10" points="407.7,36.7 
		436.9,45.6 436.9,35.3 407.7,26.7 	"/>
	<path fill="none" stroke="#A26415" stroke-linecap="round" stroke-linejoin="round" stroke-miterlimit="10" d="M419.2,21.3
		c-3.8,0.5-8.8,1.9-11.5,5.4"/>
	<path fill="none" stroke="#A26415" stroke-linecap="round" stroke-linejoin="round" stroke-miterlimit="10" d="M436.9,35.1
		l-12.5-14c0,0-0.6,0-1.6,0"/>
	<g>
		<path fill="none" stroke="#A26415" stroke-linecap="round" stroke-linejoin="round" stroke-miterlimit="10" d="M407.9,30.7
			c1.6,0.5,1.2,2,2.8,2.4c1.6,0.5,2.1-1,3.7-0.5s1.2,2,2.8,2.4c1.6,0.5,2.1-1,3.7-0.5s1.2,2,2.8,2.4c1.6,0.5,2.1-1,3.7-0.5
			s1.2,2,2.8,2.4c1.6,0.5,2.1-1,3.7-0.5s1.2,2,2.8,2.4"/>
	</g>
	
		<rect x="419.3" y="17" fill="none" stroke="#A26415" stroke-linecap="round" stroke-linejoin="round" stroke-miterlimit="10" width="3.2" height="10.4"/>
	<path fill="none" stroke="#A26415" stroke-linecap="round" stroke-linejoin="round" stroke-miterlimit="10" d="M421,16.7
		c0,0-2.8-1.6-2-4.1c0,0,1.1-1,2-4C421,8.6,425.5,13.4,421,16.7z"/>
</g>
<g>
	<circle fill="none" stroke="#A26415" stroke-miterlimit="10" cx="-112.1" cy="29.2" r="26.2"/>
	<polyline fill="none" stroke="#A26415" stroke-linecap="round" stroke-linejoin="round" stroke-miterlimit="10" points="
		-92.5,46.5 -92.5,35.1 -131.7,35.1 -131.7,46.1 	"/>
	<polyline fill="none" stroke="#A26415" stroke-linecap="round" stroke-linejoin="round" stroke-miterlimit="10" points="-96.4,35 
		-96.4,22.8 -127.7,22.8 -127.7,35 	"/>
	<path fill="none" stroke="#A26415" stroke-linecap="round" stroke-linejoin="round" stroke-miterlimit="10" d="M-131.5,44.2
		c0.7,0.3,1.6,0.5,2.5,0.5c2.6,0,4.8-1.7,5.6-4c0.8,2.3,3,4,5.6,4s4.8-1.7,5.6-4c0.8,2.3,3,4,5.6,4s4.8-1.7,5.6-4c0.8,2.3,3,4,5.6,4
		c1,0,1.9-0.2,2.7-0.6"/>
	<path fill="none" stroke="#A26415" stroke-linecap="round" stroke-linejoin="round" stroke-miterlimit="10" d="M-127.5,31.1
		c2.2-0.3,4-1.7,4.7-3.7c0.8,2.2,2.9,3.8,5.4,3.8s4.6-1.6,5.4-3.8c0.8,2.2,2.9,3.8,5.4,3.8s4.6-1.6,5.4-3.8c0.7,2.1,2.6,3.6,4.9,3.8
		"/>
	<path fill="none" stroke="#A26415" stroke-linecap="round" stroke-linejoin="round" stroke-miterlimit="10" d="M-117.4,16.5
		c-0.2-0.4-0.4-0.9-0.4-1.4c0-1.6,1.3-3,3-3c1.3,0,2.3,0.8,2.8,1.9c0.4-1.1,1.5-1.9,2.8-1.9c1.6,0,3,1.3,3,3c0,0.5-0.1,1-0.4,1.4
		l-5.3,5.5L-117.4,16.5z"/>
</g>
<g>
	<circle fill="none" stroke="#A26415" stroke-miterlimit="10" cx="-49.6" cy="29.2" r="26.2"/>
	<g>
		<polyline fill="none" stroke="#A26415" stroke-linecap="round" stroke-linejoin="round" stroke-miterlimit="10" points="
			-60.2,18.3 -62.1,20.2 -62.1,28.8 -46.4,44.5 -33.2,31.4 -48.8,15.7 -57.2,15.7 -58.2,16.8 		"/>
		
			<line fill="none" stroke="#A26415" stroke-linecap="round" stroke-linejoin="round" stroke-miterlimit="10" x1="-57" y1="20.9" x2="-54.1" y2="23.8"/>
		
			<line fill="none" stroke="#A26415" stroke-linecap="round" stroke-linejoin="round" stroke-miterlimit="10" x1="-67.6" y1="10.3" x2="-57" y2="20.9"/>
		<path fill="none" stroke="#A26415" stroke-linecap="round" stroke-linejoin="round" stroke-miterlimit="10" d="M-54.6,20.1
			c1.9,0,3.5,1.5,3.5,3.5s-1.5,3.5-3.5,3.5s-3.5-1.5-3.5-3.5c0-1,0.4-1.9,1.1-2.5"/>
	</g>
</g>
<g>
	<g>
		<g>
			<defs>
				<circle id="SVGID_2_" cx="-299.8" cy="29.2" r="26.2"/>
			</defs>
			<clipPath id="SVGID_3_">
				<use xlink:href="#SVGID_2_"  overflow="visible"/>
			</clipPath>
			<path clip-path="url(#SVGID_3_)" fill="none" stroke="#A26415" stroke-miterlimit="10" d="M-297.8,45.8v-4.3l5.1-0.9
				c3.4-1,5.1-3.3,3.8-6l-8.4-21.9c-1.3-2.8-3.5-2.8-4.9,0l-8.4,21.9c-1.3,2.8-0.7,5.1,2.8,6l6.2,0.9v4.3"/>
		</g>
		<g>
			<defs>
				<circle id="SVGID_4_" cx="-299.8" cy="29.2" r="26.2"/>
			</defs>
			<clipPath id="SVGID_5_">
				<use xlink:href="#SVGID_4_"  overflow="visible"/>
			</clipPath>
			
				<rect x="-302.5" y="45.8" clip-path="url(#SVGID_5_)" fill="none" stroke="#A26415" stroke-miterlimit="10" width="5.5" height="3.2"/>
		</g>
		<g>
			<defs>
				<circle id="SVGID_6_" cx="-299.8" cy="29.2" r="26.2"/>
			</defs>
			<clipPath id="SVGID_7_">
				<use xlink:href="#SVGID_6_"  overflow="visible"/>
			</clipPath>
			<polygon clip-path="url(#SVGID_7_)" fill="none" stroke="#A26415" stroke-miterlimit="10" points="-296,73.3 -303.4,73.3 
				-302.5,49 -297,49 			"/>
		</g>
		<g>
			<defs>
				<circle id="SVGID_8_" cx="-299.8" cy="29.2" r="26.2"/>
			</defs>
			<clipPath id="SVGID_9_">
				<use xlink:href="#SVGID_8_"  overflow="visible"/>
			</clipPath>
			
				<line clip-path="url(#SVGID_9_)" fill="none" stroke="#A26415" stroke-miterlimit="10" x1="-299.1" y1="23.9" x2="-306.2" y2="33.8"/>
		</g>
		<g>
			<defs>
				<circle id="SVGID_10_" cx="-299.8" cy="29.2" r="26.2"/>
			</defs>
			<clipPath id="SVGID_11_">
				<use xlink:href="#SVGID_10_"  overflow="visible"/>
			</clipPath>
			
				<line clip-path="url(#SVGID_11_)" fill="none" stroke="#A26415" stroke-miterlimit="10" x1="-300.3" y1="29.8" x2="-304.1" y2="35.2"/>
		</g>
		<g>
			<circle id="SVGID_1_" fill="none" stroke="#A26415" stroke-miterlimit="10" cx="-299.8" cy="29.2" r="26.2"/>
		</g>
	</g>
	<circle fill="none" stroke="#A26415" stroke-miterlimit="10" cx="-299.8" cy="29.2" r="26.2"/>
</g>
<g>
	<path fill="#A26415" d="M29.7,56.7c-15.16,0-27.5-12.34-27.5-27.5c0-15.16,12.34-27.5,27.5-27.5c15.16,0,27.5,12.34,27.5,27.5
		C57.2,44.36,44.86,56.7,29.7,56.7z M29.7,2.7C15.09,2.7,3.2,14.59,3.2,29.2s11.89,26.5,26.5,26.5s26.5-11.89,26.5-26.5
		S44.31,2.7,29.7,2.7z"/>
	<g>
		<path fill="#A26415" d="M34.85,47.23c1.34-1.24,2.16-2.99,2.16-4.84c0-1.96-0.82-6.18-2.06-10.2c-0.62-1.96-1.44-3.81-2.27-5.26
			c-0.52-0.82-1.03-1.44-1.65-1.85c0.1-0.1,0.21-0.21,0.21-0.31V8.38c0-0.21-0.21-0.41-0.31-0.31h-2.37c-0.21,0-0.31,0.21-0.31,0.31
			v16.39c0,0.1,0.1,0.21,0.21,0.31c-0.62,0.41-1.13,1.13-1.65,1.96c-0.82,1.34-1.65,3.3-2.27,5.26c-1.24,3.92-2.06,8.24-2.06,10.2
			c0,3.5,2.78,6.29,6.29,6.8c0.72,0.1,1.34,0.1,1.96,0C32.17,48.99,33.72,48.37,34.85,47.23L34.85,47.23z M34.44,46.82
			c-0.52,0.41-1.13,0.82-1.75,1.13c0.21-0.21,0.41-0.41,0.62-0.72c0.93-1.24,1.44-2.99,1.44-4.84s-0.52-6.18-1.34-10.1
			c-0.41-1.96-0.93-3.81-1.55-5.15c0-0.1-0.1-0.21-0.1-0.31c0.1,0.21,0.31,0.41,0.41,0.62c0.82,1.34,1.55,3.09,2.16,5.05
			c1.24,3.92,2.06,8.24,2.06,9.89C36.4,44.14,35.57,45.69,34.44,46.82L34.44,46.82z M31.97,47.54c-0.41,0.31-0.82,0.62-1.24,0.82
			c0.21-0.31,0.31-0.72,0.41-1.24c0.31-1.24,0.52-2.89,0.52-4.74s-0.21-6.18-0.52-10.1c-0.1-1.96-0.31-3.81-0.52-5.15
			c-0.1-0.41-0.1-0.72-0.21-1.03c0.21,0.31,0.41,0.72,0.62,1.24c0.52,1.34,1.03,3.09,1.44,5.05c0.82,3.92,1.34,8.24,1.34,10
			c0,1.75-0.52,3.3-1.34,4.43C32.48,47.13,32.28,47.34,31.97,47.54L31.97,47.54z M29.91,48.37c-0.1,0.21-0.21,0.21-0.21,0.21
			c-0.1,0-0.21-0.1-0.41-0.31c-0.21-0.31-0.41-0.72-0.52-1.34c-0.31-1.13-0.52-2.78-0.52-4.53c0-1.75,0.21-6.08,0.52-10
			c0.21-1.96,0.31-3.81,0.52-5.15c0.1-0.62,0.21-1.24,0.31-1.55l0,0l0,0c0.1,0.31,0.21,0.93,0.31,1.55
			c0.21,1.34,0.41,3.19,0.52,5.15c0.31,3.92,0.52,8.24,0.52,10c0,1.75-0.21,3.4-0.52,4.53c-0.1,0.62-0.31,1.03-0.52,1.34
			C30.01,48.26,29.91,48.37,29.91,48.37L29.91,48.37z M28.57,48.37c-0.72-0.31-1.34-0.82-1.85-1.55c-0.82-1.13-1.34-2.68-1.34-4.43
			c0-1.75,0.52-6.08,1.34-10c0.41-1.96,0.93-3.71,1.44-5.05c0.21-0.52,0.41-0.93,0.62-1.24c-0.1,0.31-0.1,0.62-0.21,1.03
			c-0.21,1.34-0.41,3.19-0.52,5.15c-0.31,3.92-0.52,8.24-0.52,10.1s0.21,3.5,0.52,4.74C28.15,47.65,28.36,47.96,28.57,48.37
			L28.57,48.37z M26.61,47.96c-2.16-1.03-3.71-3.09-3.71-5.46c0-1.65,0.82-6.08,2.06-9.89c0.62-1.96,1.34-3.71,2.16-5.05
			c0.1-0.21,0.31-0.41,0.41-0.62c0,0.1-0.1,0.21-0.1,0.31c-0.62,1.34-1.03,3.19-1.55,5.15c-0.82,3.92-1.34,8.24-1.34,10.1
			c0,0,0,0,0,0.1c0,1.85,0.52,3.5,1.44,4.74C26.2,47.44,26.4,47.65,26.61,47.96L26.61,47.96z M30.52,24.46h-1.65V8.8h1.65V24.46
			L30.52,24.46z"/>
	</g>
</g>
</svg>
