<?xml version="1.0" encoding="utf-8"?>
<!-- Generator: Adobe Illustrator 18.0.0, SVG Export Plug-In . SVG Version: 6.00 Build 0)  -->
<!DOCTYPE svg PUBLIC "-//W3C//DTD SVG 1.1//EN" "http://www.w3.org/Graphics/SVG/1.1/DTD/svg11.dtd">
<svg version="1.1" id="Layer_1" xmlns="http://www.w3.org/2000/svg" xmlns:xlink="http://www.w3.org/1999/xlink" x="0px" y="0px"
	 width="55px" height="55px" viewBox="2.2 1.7 55 55" enable-background="new 2.2 1.7 55 55" xml:space="preserve">
<g>
	<circle fill="none" stroke="#A26415" stroke-miterlimit="10" cx="226.6" cy="29.2" r="26.2"/>
	<polyline fill="none" stroke="#A26415" stroke-miterlimit="10" points="238.9,31.2 235.5,44.1 216.3,44.1 212.5,31.2 	"/>
	<line fill="none" stroke="#A26415" stroke-miterlimit="10" x1="225.7" y1="44.1" x2="225.7" y2="31.5"/>
	<line fill="none" stroke="#A26415" stroke-miterlimit="10" x1="218.9" y1="44.1" x2="217.2" y2="31.5"/>
	<line fill="none" stroke="#A26415" stroke-miterlimit="10" x1="222.3" y1="44.1" x2="221.5" y2="31.5"/>
	<line fill="none" stroke="#A26415" stroke-miterlimit="10" x1="233.2" y1="44.1" x2="234.8" y2="31.5"/>
	<line fill="none" stroke="#A26415" stroke-miterlimit="10" x1="229.5" y1="44.1" x2="230.3" y2="31.5"/>
	<path fill="none" stroke="#A26415" stroke-miterlimit="10" d="M223,17c-3.4,0.7-6.2,2.8-7.6,5.6c-2.4,1.3-3.9,3.6-3.9,6.3
		c0,0.4,0,0.8,0.1,1.2"/>
	<path fill="none" stroke="#A26415" stroke-miterlimit="10" d="M239.7,30.1c0.9-4.8-1.4-6.2-3.7-7.5c-1.2-2.4-3.5-4.3-6.3-5.3"/>
	<line fill="none" stroke="#A26415" stroke-miterlimit="10" x1="212.5" y1="31.2" x2="238.9" y2="31.2"/>
	<path fill="none" stroke="#A26415" stroke-miterlimit="10" d="M229.6,17.5c0,1.8-1.4,3.2-3.2,3.2s-3.2-1.4-3.2-3.2s1.4-3.2,3.2-3.2
		C228.1,14.3,229.6,15.7,229.6,17.5"/>
	<circle fill="none" stroke="#A26415" stroke-miterlimit="10" cx="235.2" cy="11.4" r="1"/>
	<path fill="none" stroke="#A26415" stroke-miterlimit="10" d="M226.4,16.1c0,0,2.1-6.6,7.6-5.1"/>
	<path fill="none" stroke="#A26415" stroke-miterlimit="10" d="M216.7,28.6c0,0-0.3-2.9,1.7-3.8"/>
</g>
<g>
	<path fill="#A26415" d="M29.7,56.7c-15.16,0-27.5-12.34-27.5-27.5c0-15.16,12.34-27.5,27.5-27.5c15.16,0,27.5,12.34,27.5,27.5
		C57.2,44.36,44.86,56.7,29.7,56.7z M29.7,2.7C15.09,2.7,3.2,14.59,3.2,29.2s11.89,26.5,26.5,26.5s26.5-11.89,26.5-26.5
		S44.31,2.7,29.7,2.7z"/>
	<g>
		<path fill="#A26415" d="M19.78,46.58c-1.04,0-2.02-0.43-2.71-1.17l-0.16-0.27c-1.18-1.47-1.01-3.68,0.39-4.97l5.47-4.86
			c1.5-4.76,0.27-5.79,0.25-5.8l-6-2.63c-1.84-0.8-2.73-2.71-2.13-4.53l0.13-0.27c0.54-1.35,1.92-2.28,3.41-2.28
			c0.38,0,0.75,0.06,1.11,0.18l5.22,1.83v-1.38c-0.93-1.11-1.44-2.52-1.44-4c0-3.46,2.92-6.37,6.37-6.37c3.51,0,6.37,2.86,6.37,6.37
			c0,1.36-0.51,2.77-1.44,3.99v1.39l5.21-1.83c1.96-0.61,3.97,0.41,4.56,2.17l0.08,0.14c0.61,1.92-0.25,3.73-2.09,4.59l-6.09,2.68
			c0,0,0,0,0,0c0.02,0-1.13,1,0.34,5.75l5.36,4.75c0.74,0.63,1.19,1.51,1.25,2.47c0.06,0.93-0.24,1.82-0.86,2.51l-0.14,0.25
			c-0.68,0.8-1.67,1.27-2.7,1.27c-0.87,0-1.7-0.32-2.34-0.91l-5.09-4.4h-4.8l-5.22,4.51C21.45,46.29,20.63,46.58,19.78,46.58z
			 M17.85,44.78c0.91,0.94,2.6,1.04,3.59,0.21l5.49-4.75h4.74v-0.7l6.19,5.35c1.01,0.92,2.67,0.81,3.58-0.21l0.15-0.26
			c0.46-0.5,0.69-1.15,0.64-1.83c-0.04-0.69-0.37-1.33-0.91-1.78l-5.57-4.94l-0.04-0.13c-1.78-5.66-0.21-6.89,0.13-7.08l6.12-2.7
			c1.36-0.64,2-1.97,1.58-3.31l-0.07-0.13c-0.45-1.33-1.95-2.03-3.32-1.6l-6.52,2.29v-3.15l0.11-0.14c0.86-1.07,1.33-2.32,1.33-3.5
			c0-2.96-2.41-5.37-5.37-5.37c-2.91,0-5.37,2.46-5.37,5.37c0,1.3,0.47,2.54,1.31,3.48l0.13,0.14v3.16l-6.54-2.29
			c-0.25-0.08-0.51-0.12-0.78-0.12c-1.09,0-2.1,0.68-2.5,1.69l-0.12,0.24c-0.42,1.27,0.23,2.63,1.61,3.23l6.08,2.68
			c0.27,0.16,1.99,1.43,0.17,7.1l-0.04,0.13l-5.67,5.04c-1.01,0.92-1.13,2.59-0.26,3.63L17.85,44.78z"/>
		<g>
			<path fill="#A26415" d="M27.74,16.3c-0.84,0-1.53-0.69-1.53-1.53c0-0.84,0.69-1.53,1.53-1.53c0.84,0,1.53,0.69,1.53,1.53
				C29.27,15.62,28.59,16.3,27.74,16.3z M27.74,14.24c-0.29,0-0.53,0.24-0.53,0.53s0.24,0.53,0.53,0.53s0.53-0.24,0.53-0.53
				S28.03,14.24,27.74,14.24z"/>
			<path fill="#A26415" d="M31.45,16.3c-0.84,0-1.53-0.69-1.53-1.53c0-0.84,0.69-1.53,1.53-1.53c0.84,0,1.53,0.69,1.53,1.53
				C32.98,15.62,32.3,16.3,31.45,16.3z M31.45,14.24c-0.29,0-0.53,0.24-0.53,0.53s0.24,0.53,0.53,0.53c0.29,0,0.53-0.24,0.53-0.53
				S31.74,14.24,31.45,14.24z"/>
		</g>
		<path fill="#A26415" d="M29.7,33.82c-1.13,0-2.05-0.92-2.05-2.05s0.92-2.05,2.05-2.05s2.05,0.92,2.05,2.05S30.83,33.82,29.7,33.82
			z M29.7,30.73c-0.58,0-1.05,0.47-1.05,1.05s0.47,1.05,1.05,1.05s1.05-0.47,1.05-1.05S30.28,30.73,29.7,30.73z"/>
		<path fill="#A26415" d="M29.7,28.05c-1.13,0-2.05-0.92-2.05-2.05s0.92-2.05,2.05-2.05s2.05,0.92,2.05,2.05S30.83,28.05,29.7,28.05
			z M29.7,24.96c-0.58,0-1.05,0.47-1.05,1.05s0.47,1.05,1.05,1.05s1.05-0.47,1.05-1.05S30.28,24.96,29.7,24.96z"/>
		<path fill="#A26415" d="M29.7,20.32c-1.34,0-2.5-0.95-2.76-2.26c-0.05-0.27,0.12-0.53,0.39-0.59c0.27-0.06,0.53,0.12,0.59,0.39
			c0.17,0.84,0.92,1.45,1.78,1.45c0.81,0,1.54-0.57,1.79-1.4c0.08-0.26,0.36-0.41,0.62-0.34c0.26,0.08,0.42,0.36,0.33,0.62
			C32.07,19.46,30.94,20.32,29.7,20.32z"/>
		<g>
			<path fill="#A26415" d="M19.6,28.05c-0.07,0-0.14-0.02-0.21-0.05c-0.25-0.12-0.36-0.41-0.24-0.66l2.78-5.98
				c0.12-0.25,0.41-0.36,0.66-0.24c0.25,0.12,0.36,0.41,0.24,0.66l-2.78,5.98C19.97,27.94,19.79,28.05,19.6,28.05z"/>
			<path fill="#A26415" d="M23.31,43.92c-0.13,0-0.26-0.05-0.35-0.15l-4.23-4.22c-0.2-0.2-0.2-0.51,0-0.71s0.51-0.2,0.71,0
				l4.23,4.22c0.2,0.2,0.2,0.51,0,0.71C23.57,43.87,23.44,43.92,23.31,43.92z"/>
		</g>
		<path fill="#A26415" d="M39.9,27.85c-0.19,0-0.37-0.11-0.45-0.29l-2.68-5.77c-0.12-0.25-0.01-0.55,0.24-0.66
			c0.25-0.12,0.55-0.01,0.66,0.24l2.68,5.77c0.12,0.25,0.01,0.55-0.24,0.66C40.04,27.83,39.97,27.85,39.9,27.85z"/>
		<path fill="#A26415" d="M35.57,43.92c-0.13,0-0.26-0.05-0.35-0.15c-0.2-0.2-0.2-0.51,0-0.71l4.22-4.22c0.2-0.2,0.51-0.2,0.71,0
			s0.2,0.51,0,0.71l-4.22,4.22C35.83,43.87,35.7,43.92,35.57,43.92z"/>
	</g>
</g>
<g>
	<circle fill="none" stroke="#A26415" stroke-miterlimit="10" cx="423" cy="29.2" r="26.2"/>
	<polygon fill="none" stroke="#A26415" stroke-linecap="round" stroke-linejoin="round" stroke-miterlimit="10" points="407.7,36.7 
		436.9,45.6 436.9,35.3 407.7,26.7 	"/>
	<path fill="none" stroke="#A26415" stroke-linecap="round" stroke-linejoin="round" stroke-miterlimit="10" d="M419.2,21.3
		c-3.8,0.5-8.8,1.9-11.5,5.4"/>
	<path fill="none" stroke="#A26415" stroke-linecap="round" stroke-linejoin="round" stroke-miterlimit="10" d="M436.9,35.1
		l-12.5-14c0,0-0.6,0-1.6,0"/>
	<g>
		<path fill="none" stroke="#A26415" stroke-linecap="round" stroke-linejoin="round" stroke-miterlimit="10" d="M407.9,30.7
			c1.6,0.5,1.2,2,2.8,2.4c1.6,0.5,2.1-1,3.7-0.5s1.2,2,2.8,2.4c1.6,0.5,2.1-1,3.7-0.5s1.2,2,2.8,2.4c1.6,0.5,2.1-1,3.7-0.5
			s1.2,2,2.8,2.4c1.6,0.5,2.1-1,3.7-0.5s1.2,2,2.8,2.4"/>
	</g>
	
		<rect x="419.3" y="17" fill="none" stroke="#A26415" stroke-linecap="round" stroke-linejoin="round" stroke-miterlimit="10" width="3.2" height="10.4"/>
	<path fill="none" stroke="#A26415" stroke-linecap="round" stroke-linejoin="round" stroke-miterlimit="10" d="M421,16.7
		c0,0-2.8-1.6-2-4.1c0,0,1.1-1,2-4C421,8.6,425.5,13.4,421,16.7z"/>
</g>
<g>
	<circle fill="none" stroke="#A26415" stroke-miterlimit="10" cx="-112.1" cy="29.2" r="26.2"/>
	<polyline fill="none" stroke="#A26415" stroke-linecap="round" stroke-linejoin="round" stroke-miterlimit="10" points="
		-92.5,46.5 -92.5,35.1 -131.7,35.1 -131.7,46.1 	"/>
	<polyline fill="none" stroke="#A26415" stroke-linecap="round" stroke-linejoin="round" stroke-miterlimit="10" points="-96.4,35 
		-96.4,22.8 -127.7,22.8 -127.7,35 	"/>
	<path fill="none" stroke="#A26415" stroke-linecap="round" stroke-linejoin="round" stroke-miterlimit="10" d="M-131.5,44.2
		c0.7,0.3,1.6,0.5,2.5,0.5c2.6,0,4.8-1.7,5.6-4c0.8,2.3,3,4,5.6,4s4.8-1.7,5.6-4c0.8,2.3,3,4,5.6,4s4.8-1.7,5.6-4c0.8,2.3,3,4,5.6,4
		c1,0,1.9-0.2,2.7-0.6"/>
	<path fill="none" stroke="#A26415" stroke-linecap="round" stroke-linejoin="round" stroke-miterlimit="10" d="M-127.5,31.1
		c2.2-0.3,4-1.7,4.7-3.7c0.8,2.2,2.9,3.8,5.4,3.8s4.6-1.6,5.4-3.8c0.8,2.2,2.9,3.8,5.4,3.8s4.6-1.6,5.4-3.8c0.7,2.1,2.6,3.6,4.9,3.8
		"/>
	<path fill="none" stroke="#A26415" stroke-linecap="round" stroke-linejoin="round" stroke-miterlimit="10" d="M-117.4,16.5
		c-0.2-0.4-0.4-0.9-0.4-1.4c0-1.6,1.3-3,3-3c1.3,0,2.3,0.8,2.8,1.9c0.4-1.1,1.5-1.9,2.8-1.9c1.6,0,3,1.3,3,3c0,0.5-0.1,1-0.4,1.4
		l-5.3,5.5L-117.4,16.5z"/>
</g>
<g>
	<circle fill="none" stroke="#A26415" stroke-miterlimit="10" cx="-49.6" cy="29.2" r="26.2"/>
	<g>
		<polyline fill="none" stroke="#A26415" stroke-linecap="round" stroke-linejoin="round" stroke-miterlimit="10" points="
			-60.2,18.3 -62.1,20.2 -62.1,28.8 -46.4,44.5 -33.2,31.4 -48.8,15.7 -57.2,15.7 -58.2,16.8 		"/>
		
			<line fill="none" stroke="#A26415" stroke-linecap="round" stroke-linejoin="round" stroke-miterlimit="10" x1="-57" y1="20.9" x2="-54.1" y2="23.8"/>
		
			<line fill="none" stroke="#A26415" stroke-linecap="round" stroke-linejoin="round" stroke-miterlimit="10" x1="-67.6" y1="10.3" x2="-57" y2="20.9"/>
		<path fill="none" stroke="#A26415" stroke-linecap="round" stroke-linejoin="round" stroke-miterlimit="10" d="M-54.6,20.1
			c1.9,0,3.5,1.5,3.5,3.5s-1.5,3.5-3.5,3.5s-3.5-1.5-3.5-3.5c0-1,0.4-1.9,1.1-2.5"/>
	</g>
</g>
<g>
	<g>
		<g>
			<defs>
				<circle id="SVGID_2_" cx="292.1" cy="29.2" r="26.2"/>
			</defs>
			<clipPath id="SVGID_3_">
				<use xlink:href="#SVGID_2_"  overflow="visible"/>
			</clipPath>
			<path clip-path="url(#SVGID_3_)" fill="none" stroke="#A26415" stroke-miterlimit="10" d="M294,45.8v-4.3l5.1-0.9
				c3.4-1,5.1-3.3,3.8-6l-8.4-21.9c-1.3-2.8-3.5-2.8-4.9,0l-8.4,21.9c-1.3,2.8-0.7,5.1,2.8,6l6.2,0.9v4.3"/>
		</g>
		<g>
			<defs>
				<circle id="SVGID_4_" cx="292.1" cy="29.2" r="26.2"/>
			</defs>
			<clipPath id="SVGID_5_">
				<use xlink:href="#SVGID_4_"  overflow="visible"/>
			</clipPath>
			
				<rect x="289.3" y="45.8" clip-path="url(#SVGID_5_)" fill="none" stroke="#A26415" stroke-miterlimit="10" width="5.5" height="3.2"/>
		</g>
		<g>
			<defs>
				<circle id="SVGID_6_" cx="292.1" cy="29.2" r="26.2"/>
			</defs>
			<clipPath id="SVGID_7_">
				<use xlink:href="#SVGID_6_"  overflow="visible"/>
			</clipPath>
			<polygon clip-path="url(#SVGID_7_)" fill="none" stroke="#A26415" stroke-miterlimit="10" points="295.8,73.3 288.4,73.3 
				289.3,49 294.8,49 			"/>
		</g>
		<g>
			<defs>
				<circle id="SVGID_8_" cx="292.1" cy="29.2" r="26.2"/>
			</defs>
			<clipPath id="SVGID_9_">
				<use xlink:href="#SVGID_8_"  overflow="visible"/>
			</clipPath>
			
				<line clip-path="url(#SVGID_9_)" fill="none" stroke="#A26415" stroke-miterlimit="10" x1="292.7" y1="23.9" x2="285.6" y2="33.8"/>
		</g>
		<g>
			<defs>
				<circle id="SVGID_10_" cx="292.1" cy="29.2" r="26.2"/>
			</defs>
			<clipPath id="SVGID_11_">
				<use xlink:href="#SVGID_10_"  overflow="visible"/>
			</clipPath>
			
				<line clip-path="url(#SVGID_11_)" fill="none" stroke="#A26415" stroke-miterlimit="10" x1="291.6" y1="29.8" x2="287.7" y2="35.2"/>
		</g>
		<g>
			<circle id="SVGID_1_" fill="none" stroke="#A26415" stroke-miterlimit="10" cx="292.1" cy="29.2" r="26.2"/>
		</g>
	</g>
	<circle fill="none" stroke="#A26415" stroke-miterlimit="10" cx="292.1" cy="29.2" r="26.2"/>
</g>
<g>
	<circle fill="none" stroke="#A26415" stroke-miterlimit="10" cx="357.5" cy="29.2" r="26.2"/>
	<g>
		<path fill="#A26415" d="M362.6,46.7c1.3-1.2,2.1-2.9,2.1-4.7s-0.8-6-2-9.9c-0.6-1.9-1.4-3.7-2.2-5.1c-0.5-0.8-1-1.4-1.6-1.8
			c0.1-0.1,0.2-0.2,0.2-0.3V9c0-0.2-0.2-0.4-0.3-0.3h-2.3c-0.2,0-0.3,0.2-0.3,0.3v15.9c0,0.1,0.1,0.2,0.2,0.3
			c-0.6,0.4-1.1,1.1-1.6,1.9c-0.8,1.3-1.6,3.2-2.2,5.1c-1.2,3.8-2,8-2,9.9c0,3.4,2.7,6.1,6.1,6.6c0.7,0.1,1.3,0.1,1.9,0
			C360,48.4,361.5,47.8,362.6,46.7L362.6,46.7z M362.1,46.3c-0.5,0.4-1.1,0.8-1.7,1.1c0.2-0.2,0.4-0.4,0.6-0.7
			c0.9-1.2,1.4-2.9,1.4-4.7s-0.5-6-1.3-9.8c-0.4-1.9-0.9-3.7-1.5-5c0-0.1-0.1-0.2-0.1-0.3c0.1,0.2,0.3,0.4,0.4,0.6
			c0.8,1.3,1.5,3,2.1,4.9c1.2,3.8,2,8,2,9.6C364,43.7,363.3,45.2,362.1,46.3L362.1,46.3z M359.8,47c-0.4,0.3-0.8,0.6-1.2,0.8
			c0.2-0.3,0.3-0.7,0.4-1.2c0.3-1.2,0.5-2.8,0.5-4.6s-0.2-6-0.5-9.8c-0.1-1.9-0.3-3.7-0.5-5c-0.1-0.4-0.1-0.7-0.2-1
			c0.2,0.3,0.4,0.7,0.6,1.2c0.5,1.3,1,3,1.4,4.9c0.8,3.8,1.3,8,1.3,9.7s-0.5,3.2-1.3,4.3C360.3,46.6,360.1,46.8,359.8,47L359.8,47z
			 M357.8,47.8c-0.1,0.1-0.2,0.2-0.2,0.2c-0.1,0-0.2-0.1-0.4-0.3c-0.2-0.3-0.4-0.7-0.5-1.3c-0.3-1.1-0.5-2.7-0.5-4.4
			s0.2-5.9,0.5-9.7c0.2-1.9,0.3-3.7,0.5-5c0.1-0.6,0.2-1.2,0.3-1.5l0,0l0,0c0.1,0.3,0.2,0.9,0.3,1.5c0.2,1.3,0.4,3.1,0.5,5
			c0.3,3.8,0.5,8,0.5,9.7s-0.2,3.3-0.5,4.4c-0.1,0.6-0.3,1-0.5,1.3C357.9,47.7,357.8,47.8,357.8,47.8L357.8,47.8z M356.4,47.8
			c-0.7-0.3-1.3-0.8-1.8-1.5c-0.8-1.1-1.3-2.6-1.3-4.3s0.5-5.9,1.3-9.7c0.4-1.9,0.9-3.6,1.4-4.9c0.2-0.5,0.4-0.9,0.6-1.2
			c-0.1,0.3-0.1,0.6-0.2,1c-0.2,1.3-0.4,3.1-0.5,5c-0.3,3.8-0.5,8-0.5,9.8s0.2,3.4,0.5,4.6C356.1,47.1,356.3,47.4,356.4,47.8
			L356.4,47.8z M354.6,47.4c-2.1-1-3.6-3-3.6-5.3c0-1.6,0.8-5.9,2-9.6c0.6-1.9,1.3-3.6,2.1-4.9c0.1-0.2,0.3-0.4,0.4-0.6
			c0,0.1-0.1,0.2-0.1,0.3c-0.6,1.3-1,3.1-1.5,5c-0.8,3.8-1.3,8-1.3,9.8c0,0,0,0,0,0.1c0,1.8,0.5,3.4,1.4,4.6
			C354.2,46.9,354.4,47.1,354.6,47.4L354.6,47.4z M358.4,24.6h-1.6V9.4h1.6V24.6L358.4,24.6z"/>
	</g>
</g>
</svg>
