<?xml version="1.0" encoding="utf-8"?>
<!-- Generator: Adobe Illustrator 18.0.0, SVG Export Plug-In . SVG Version: 6.00 Build 0)  -->
<!DOCTYPE svg PUBLIC "-//W3C//DTD SVG 1.1//EN" "http://www.w3.org/Graphics/SVG/1.1/DTD/svg11.dtd">
<svg version="1.1" id="Layer_1" xmlns="http://www.w3.org/2000/svg" xmlns:xlink="http://www.w3.org/1999/xlink" x="0px" y="0px"
	 width="55px" height="55px" viewBox="2.2 1.7 55 55" enable-background="new 2.2 1.7 55 55" xml:space="preserve">
<g>
	<circle fill="none" stroke="#A26415" stroke-miterlimit="10" cx="-240.2" cy="29.2" r="26.2"/>
	<polyline fill="none" stroke="#A26415" stroke-miterlimit="10" points="-227.9,31.2 -231.3,44.1 -250.5,44.1 -254.3,31.2 	"/>
	<line fill="none" stroke="#A26415" stroke-miterlimit="10" x1="-241.1" y1="44.1" x2="-241.1" y2="31.5"/>
	<line fill="none" stroke="#A26415" stroke-miterlimit="10" x1="-247.9" y1="44.1" x2="-249.5" y2="31.5"/>
	<line fill="none" stroke="#A26415" stroke-miterlimit="10" x1="-244.4" y1="44.1" x2="-245.3" y2="31.5"/>
	<line fill="none" stroke="#A26415" stroke-miterlimit="10" x1="-233.6" y1="44.1" x2="-231.9" y2="31.5"/>
	<line fill="none" stroke="#A26415" stroke-miterlimit="10" x1="-237.3" y1="44.1" x2="-236.5" y2="31.5"/>
	<path fill="none" stroke="#A26415" stroke-miterlimit="10" d="M-243.8,17c-3.4,0.7-6.2,2.8-7.6,5.6c-2.4,1.3-3.9,3.6-3.9,6.3
		c0,0.4,0,0.8,0.1,1.2"/>
	<path fill="none" stroke="#A26415" stroke-miterlimit="10" d="M-227,30.1c0.9-4.8-1.4-6.2-3.7-7.5c-1.2-2.4-3.5-4.3-6.3-5.3"/>
	<line fill="none" stroke="#A26415" stroke-miterlimit="10" x1="-254.3" y1="31.2" x2="-227.9" y2="31.2"/>
	<path fill="none" stroke="#A26415" stroke-miterlimit="10" d="M-237.2,17.5c0,1.8-1.4,3.2-3.2,3.2s-3.2-1.4-3.2-3.2
		s1.4-3.2,3.2-3.2C-238.6,14.3-237.2,15.7-237.2,17.5"/>
	<circle fill="none" stroke="#A26415" stroke-miterlimit="10" cx="-231.6" cy="11.4" r="1"/>
	<path fill="none" stroke="#A26415" stroke-miterlimit="10" d="M-240.4,16.1c0,0,2.1-6.6,7.6-5.1"/>
	<path fill="none" stroke="#A26415" stroke-miterlimit="10" d="M-250.1,28.6c0,0-0.3-2.9,1.7-3.8"/>
</g>
<g>
	<circle fill="none" stroke="#A26415" stroke-miterlimit="10" cx="-171.7" cy="29.2" r="26.2"/>
	<g>
		<path fill="none" stroke="#A26415" stroke-linecap="round" stroke-miterlimit="10" d="M-169.2,40.3l5.2,4.5c1.2,1.1,3.1,1,4.2-0.3
			l0.1-0.2c1.1-1.2,1-3.1-0.3-4.2l-5.3-4.8c-1.7-5.4-0.1-6.3-0.1-6.3l5.9-2.6c1.5-0.7,2.3-2.2,1.8-3.8l-0.1-0.2
			c-0.5-1.5-2.2-2.3-3.8-1.8l-5.7,2v-2.2c0.8-1,1.4-2.3,1.4-3.7c0-3.2-2.6-5.7-5.7-5.7c-3.2,0-5.7,2.6-5.7,5.7
			c0,1.4,0.5,2.7,1.4,3.7v2.2l-5.7-2c-1.5-0.5-3.2,0.3-3.8,1.8l-0.1,0.2c-0.5,1.5,0.2,3.1,1.8,3.8l5.9,2.6c0,0,1.6,1-0.1,6.3
			l-5.3,4.8c-1.2,1.1-1.3,3-0.3,4.2l0.1,0.2c1.1,1.2,3,1.3,4.2,0.3l5.2-4.5H-169.2z"/>
		<g>
			<circle fill="none" stroke="#A26415" stroke-linecap="round" stroke-miterlimit="10" cx="-173.5" cy="15.2" r="1"/>
			<circle fill="none" stroke="#A26415" stroke-linecap="round" stroke-miterlimit="10" cx="-169.9" cy="15.2" r="1"/>
		</g>
		<circle fill="none" stroke="#A26415" stroke-linecap="round" stroke-miterlimit="10" cx="-171.7" cy="31.7" r="1.5"/>
		<circle fill="none" stroke="#A26415" stroke-linecap="round" stroke-miterlimit="10" cx="-171.7" cy="26.1" r="1.5"/>
		<path fill="none" stroke="#A26415" stroke-linecap="round" stroke-miterlimit="10" d="M-169.5,18.4c-0.3,1-1.2,1.7-2.2,1.7
			c-1.1,0-2-0.8-2.2-1.8"/>
		<g>
			
				<line fill="none" stroke="#A26415" stroke-linecap="round" stroke-miterlimit="10" x1="-178.8" y1="21.8" x2="-181.4" y2="27.6"/>
			<line fill="none" stroke="#A26415" stroke-linecap="round" stroke-miterlimit="10" x1="-181.9" y1="38.9" x2="-177.9" y2="43"/>
		</g>
		<line fill="none" stroke="#A26415" stroke-linecap="round" stroke-miterlimit="10" x1="-164.3" y1="21.8" x2="-161.8" y2="27.4"/>
		<line fill="none" stroke="#A26415" stroke-linecap="round" stroke-miterlimit="10" x1="-161.9" y1="38.9" x2="-165.9" y2="43"/>
	</g>
</g>
<g>
	<path fill="#A26415" d="M29.7,56.7c-15.16,0-27.5-12.34-27.5-27.5c0-15.16,12.34-27.5,27.5-27.5c15.16,0,27.5,12.34,27.5,27.5
		C57.2,44.36,44.86,56.7,29.7,56.7z M29.7,2.7C15.09,2.7,3.2,14.59,3.2,29.2s11.89,26.5,26.5,26.5s26.5-11.89,26.5-26.5
		S44.31,2.7,29.7,2.7z"/>
	<path fill="#A26415" d="M43.92,46.6c-0.05,0-0.1-0.01-0.15-0.02l-30.09-9.17c-0.21-0.06-0.35-0.26-0.35-0.48V26.62
		c0-0.16,0.07-0.31,0.2-0.4s0.29-0.12,0.44-0.08l30.09,8.86c0.21,0.06,0.36,0.26,0.36,0.48V46.1c0,0.16-0.08,0.31-0.2,0.4
		C44.13,46.57,44.03,46.6,43.92,46.6z M14.33,36.56l29.09,8.87v-9.57l-29.09-8.57V36.56z"/>
	<path fill="#A26415" d="M13.83,27.12c-0.11,0-0.21-0.03-0.3-0.1c-0.22-0.17-0.26-0.48-0.09-0.7c3.1-4.02,8.96-5.33,12.18-5.76
		c0.28-0.04,0.52,0.16,0.56,0.43c0.04,0.27-0.16,0.52-0.43,0.56c-3.07,0.4-8.64,1.64-11.52,5.37
		C14.13,27.06,13.98,27.12,13.83,27.12z"/>
	<path fill="#A26415" d="M43.92,35.78c-0.14,0-0.27-0.06-0.37-0.17L30.82,21.35h-1.43c-0.28,0-0.5-0.22-0.5-0.5s0.22-0.5,0.5-0.5
		h1.65c0.14,0,0.28,0.06,0.37,0.17l12.88,14.43c0.18,0.21,0.17,0.52-0.04,0.71C44.16,35.74,44.04,35.78,43.92,35.78z"/>
	<g>
		<path fill="#A26415" d="M43.82,41.55c-0.04,0-0.08,0-0.12-0.01c-1.03-0.26-1.43-0.91-1.76-1.44c-0.29-0.47-0.52-0.84-1.16-1.04
			c-0.64-0.2-1.04-0.01-1.54,0.23c-0.56,0.27-1.26,0.6-2.27,0.28c-1-0.25-1.41-0.91-1.73-1.43c-0.29-0.47-0.52-0.84-1.16-1.04
			c-0.64-0.2-1.04-0.01-1.54,0.23c-0.56,0.27-1.26,0.6-2.27,0.28c-1-0.25-1.41-0.91-1.73-1.43c-0.29-0.47-0.52-0.84-1.16-1.04
			c-0.64-0.2-1.04-0.01-1.54,0.23c-0.56,0.27-1.26,0.6-2.27,0.28c-1-0.25-1.41-0.91-1.73-1.43c-0.29-0.47-0.52-0.84-1.16-1.04
			c-0.64-0.2-1.04-0.01-1.54,0.23c-0.56,0.27-1.26,0.6-2.27,0.28c-1-0.25-1.41-0.91-1.73-1.43c-0.29-0.47-0.52-0.84-1.15-1.04
			c-0.26-0.08-0.41-0.36-0.33-0.63c0.08-0.26,0.36-0.41,0.63-0.33c0.99,0.31,1.39,0.96,1.71,1.47c0.3,0.48,0.51,0.83,1.15,0.99
			c0.67,0.21,1.06,0.02,1.57-0.22c0.56-0.27,1.26-0.6,2.27-0.28c0.99,0.31,1.39,0.96,1.71,1.47c0.3,0.48,0.51,0.83,1.15,0.99
			c0.67,0.21,1.06,0.02,1.57-0.22c0.56-0.27,1.26-0.6,2.27-0.28c0.99,0.31,1.39,0.96,1.71,1.47c0.3,0.48,0.51,0.83,1.15,0.99
			c0.66,0.21,1.06,0.02,1.57-0.22c0.56-0.27,1.26-0.6,2.27-0.28c0.99,0.31,1.39,0.96,1.71,1.47c0.3,0.48,0.51,0.83,1.15,0.99
			c0.66,0.21,1.06,0.02,1.57-0.22c0.56-0.27,1.26-0.6,2.27-0.28c0.99,0.31,1.39,0.96,1.71,1.47c0.3,0.48,0.51,0.83,1.15,0.99
			c0.27,0.07,0.43,0.34,0.36,0.61C44.25,41.4,44.04,41.55,43.82,41.55z"/>
	</g>
	<path fill="#A26415" d="M29.18,27.85h-3.3c-0.28,0-0.5-0.22-0.5-0.5V16.63c0-0.28,0.22-0.5,0.5-0.5h3.3c0.28,0,0.5,0.22,0.5,0.5
		v10.72C29.68,27.62,29.46,27.85,29.18,27.85z M26.39,26.85h2.3v-9.72h-2.3V26.85z"/>
	<path fill="#A26415" d="M27.64,16.82c-0.09,0-0.17-0.02-0.25-0.07c-1.12-0.64-3.04-2.47-2.29-4.81c0.03-0.08,0.07-0.16,0.14-0.22
		c0.01-0.01,1.05-1.01,1.92-3.9c0.05-0.17,0.19-0.3,0.37-0.34c0.18-0.04,0.36,0.02,0.48,0.15c0.1,0.11,2.39,2.64,2.13,5.46
		c-0.13,1.41-0.87,2.63-2.19,3.62C27.85,16.78,27.75,16.82,27.64,16.82z M26.02,12.35c-0.46,1.67,0.97,2.9,1.59,3.35
		c0.92-0.77,1.43-1.68,1.53-2.7c0.15-1.58-0.71-3.12-1.32-3.98C27.09,11.07,26.3,12.05,26.02,12.35z"/>
</g>
<g>
	<circle fill="none" stroke="#A26415" stroke-miterlimit="10" cx="-112.1" cy="29.2" r="26.2"/>
	<polyline fill="none" stroke="#A26415" stroke-linecap="round" stroke-linejoin="round" stroke-miterlimit="10" points="
		-92.5,46.5 -92.5,35.1 -131.7,35.1 -131.7,46.1 	"/>
	<polyline fill="none" stroke="#A26415" stroke-linecap="round" stroke-linejoin="round" stroke-miterlimit="10" points="-96.4,35 
		-96.4,22.8 -127.7,22.8 -127.7,35 	"/>
	<path fill="none" stroke="#A26415" stroke-linecap="round" stroke-linejoin="round" stroke-miterlimit="10" d="M-131.5,44.2
		c0.7,0.3,1.6,0.5,2.5,0.5c2.6,0,4.8-1.7,5.6-4c0.8,2.3,3,4,5.6,4s4.8-1.7,5.6-4c0.8,2.3,3,4,5.6,4s4.8-1.7,5.6-4c0.8,2.3,3,4,5.6,4
		c1,0,1.9-0.2,2.7-0.6"/>
	<path fill="none" stroke="#A26415" stroke-linecap="round" stroke-linejoin="round" stroke-miterlimit="10" d="M-127.5,31.1
		c2.2-0.3,4-1.7,4.7-3.7c0.8,2.2,2.9,3.8,5.4,3.8s4.6-1.6,5.4-3.8c0.8,2.2,2.9,3.8,5.4,3.8s4.6-1.6,5.4-3.8c0.7,2.1,2.6,3.6,4.9,3.8
		"/>
	<path fill="none" stroke="#A26415" stroke-linecap="round" stroke-linejoin="round" stroke-miterlimit="10" d="M-117.4,16.5
		c-0.2-0.4-0.4-0.9-0.4-1.4c0-1.6,1.3-3,3-3c1.3,0,2.3,0.8,2.8,1.9c0.4-1.1,1.5-1.9,2.8-1.9c1.6,0,3,1.3,3,3c0,0.5-0.1,1-0.4,1.4
		l-5.3,5.5L-117.4,16.5z"/>
</g>
<g>
	<circle fill="none" stroke="#A26415" stroke-miterlimit="10" cx="-49.6" cy="29.2" r="26.2"/>
	<g>
		<polyline fill="none" stroke="#A26415" stroke-linecap="round" stroke-linejoin="round" stroke-miterlimit="10" points="
			-60.2,18.3 -62.1,20.2 -62.1,28.8 -46.4,44.5 -33.2,31.4 -48.8,15.7 -57.2,15.7 -58.2,16.8 		"/>
		
			<line fill="none" stroke="#A26415" stroke-linecap="round" stroke-linejoin="round" stroke-miterlimit="10" x1="-57" y1="20.9" x2="-54.1" y2="23.8"/>
		
			<line fill="none" stroke="#A26415" stroke-linecap="round" stroke-linejoin="round" stroke-miterlimit="10" x1="-67.6" y1="10.3" x2="-57" y2="20.9"/>
		<path fill="none" stroke="#A26415" stroke-linecap="round" stroke-linejoin="round" stroke-miterlimit="10" d="M-54.6,20.1
			c1.9,0,3.5,1.5,3.5,3.5s-1.5,3.5-3.5,3.5s-3.5-1.5-3.5-3.5c0-1,0.4-1.9,1.1-2.5"/>
	</g>
</g>
<g>
	<g>
		<g>
			<defs>
				<circle id="SVGID_2_" cx="-299.8" cy="29.2" r="26.2"/>
			</defs>
			<clipPath id="SVGID_3_">
				<use xlink:href="#SVGID_2_"  overflow="visible"/>
			</clipPath>
			<path clip-path="url(#SVGID_3_)" fill="none" stroke="#A26415" stroke-miterlimit="10" d="M-297.8,45.8v-4.3l5.1-0.9
				c3.4-1,5.1-3.3,3.8-6l-8.4-21.9c-1.3-2.8-3.5-2.8-4.9,0l-8.4,21.9c-1.3,2.8-0.7,5.1,2.8,6l6.2,0.9v4.3"/>
		</g>
		<g>
			<defs>
				<circle id="SVGID_4_" cx="-299.8" cy="29.2" r="26.2"/>
			</defs>
			<clipPath id="SVGID_5_">
				<use xlink:href="#SVGID_4_"  overflow="visible"/>
			</clipPath>
			
				<rect x="-302.5" y="45.8" clip-path="url(#SVGID_5_)" fill="none" stroke="#A26415" stroke-miterlimit="10" width="5.5" height="3.2"/>
		</g>
		<g>
			<defs>
				<circle id="SVGID_6_" cx="-299.8" cy="29.2" r="26.2"/>
			</defs>
			<clipPath id="SVGID_7_">
				<use xlink:href="#SVGID_6_"  overflow="visible"/>
			</clipPath>
			<polygon clip-path="url(#SVGID_7_)" fill="none" stroke="#A26415" stroke-miterlimit="10" points="-296,73.3 -303.4,73.3 
				-302.5,49 -297,49 			"/>
		</g>
		<g>
			<defs>
				<circle id="SVGID_8_" cx="-299.8" cy="29.2" r="26.2"/>
			</defs>
			<clipPath id="SVGID_9_">
				<use xlink:href="#SVGID_8_"  overflow="visible"/>
			</clipPath>
			
				<line clip-path="url(#SVGID_9_)" fill="none" stroke="#A26415" stroke-miterlimit="10" x1="-299.1" y1="23.9" x2="-306.2" y2="33.8"/>
		</g>
		<g>
			<defs>
				<circle id="SVGID_10_" cx="-299.8" cy="29.2" r="26.2"/>
			</defs>
			<clipPath id="SVGID_11_">
				<use xlink:href="#SVGID_10_"  overflow="visible"/>
			</clipPath>
			
				<line clip-path="url(#SVGID_11_)" fill="none" stroke="#A26415" stroke-miterlimit="10" x1="-300.3" y1="29.8" x2="-304.1" y2="35.2"/>
		</g>
		<g>
			<circle id="SVGID_1_" fill="none" stroke="#A26415" stroke-miterlimit="10" cx="-299.8" cy="29.2" r="26.2"/>
		</g>
	</g>
	<circle fill="none" stroke="#A26415" stroke-miterlimit="10" cx="-299.8" cy="29.2" r="26.2"/>
</g>
<g>
	<circle fill="none" stroke="#A26415" stroke-miterlimit="10" cx="-362.8" cy="29.2" r="26.2"/>
	<g>
		<path fill="#A26415" d="M-357.7,46.7c1.3-1.2,2.1-2.9,2.1-4.7s-0.8-6-2-9.9c-0.6-1.9-1.4-3.7-2.2-5.1c-0.5-0.8-1-1.4-1.6-1.8
			c0.1-0.1,0.2-0.2,0.2-0.3V9c0-0.2-0.2-0.4-0.3-0.3h-2.3c-0.2,0-0.3,0.2-0.3,0.3v15.9c0,0.1,0.1,0.2,0.2,0.3
			c-0.6,0.4-1.1,1.1-1.6,1.9c-0.8,1.3-1.6,3.2-2.2,5.1c-1.2,3.8-2,8-2,9.9c0,3.4,2.7,6.1,6.1,6.6c0.7,0.1,1.3,0.1,1.9,0
			C-360.3,48.4-358.8,47.8-357.7,46.7L-357.7,46.7z M-358.2,46.3c-0.5,0.4-1.1,0.8-1.7,1.1c0.2-0.2,0.4-0.4,0.6-0.7
			c0.9-1.2,1.4-2.9,1.4-4.7s-0.5-6-1.3-9.8c-0.4-1.9-0.9-3.7-1.5-5c0-0.1-0.1-0.2-0.1-0.3c0.1,0.2,0.3,0.4,0.4,0.6
			c0.8,1.3,1.5,3,2.1,4.9c1.2,3.8,2,8,2,9.6C-356.3,43.7-357,45.2-358.2,46.3L-358.2,46.3z M-360.5,47c-0.4,0.3-0.8,0.6-1.2,0.8
			c0.2-0.3,0.3-0.7,0.4-1.2c0.3-1.2,0.5-2.8,0.5-4.6s-0.2-6-0.5-9.8c-0.1-1.9-0.3-3.7-0.5-5c-0.1-0.4-0.1-0.7-0.2-1
			c0.2,0.3,0.4,0.7,0.6,1.2c0.5,1.3,1,3,1.4,4.9c0.8,3.8,1.3,8,1.3,9.7s-0.5,3.2-1.3,4.3C-360.1,46.6-360.3,46.8-360.5,47L-360.5,47
			z M-362.5,47.8c-0.1,0.1-0.2,0.2-0.2,0.2c-0.1,0-0.2-0.1-0.4-0.3c-0.2-0.3-0.4-0.7-0.5-1.3c-0.3-1.1-0.5-2.7-0.5-4.4
			s0.2-5.9,0.5-9.7c0.2-1.9,0.3-3.7,0.5-5c0.1-0.6,0.2-1.2,0.3-1.5l0,0l0,0c0.1,0.3,0.2,0.9,0.3,1.5c0.2,1.3,0.4,3.1,0.5,5
			c0.3,3.8,0.5,8,0.5,9.7s-0.2,3.3-0.5,4.4c-0.1,0.6-0.3,1-0.5,1.3C-362.4,47.7-362.5,47.8-362.5,47.8L-362.5,47.8z M-363.9,47.8
			c-0.7-0.3-1.3-0.8-1.8-1.5c-0.8-1.1-1.3-2.6-1.3-4.3s0.5-5.9,1.3-9.7c0.4-1.9,0.9-3.6,1.4-4.9c0.2-0.5,0.4-0.9,0.6-1.2
			c-0.1,0.3-0.1,0.6-0.2,1c-0.2,1.3-0.4,3.1-0.5,5c-0.3,3.8-0.5,8-0.5,9.8s0.2,3.4,0.5,4.6C-364.2,47.1-364,47.4-363.9,47.8
			L-363.9,47.8z M-365.7,47.4c-2.1-1-3.6-3-3.6-5.3c0-1.6,0.8-5.9,2-9.6c0.6-1.9,1.3-3.6,2.1-4.9c0.1-0.2,0.3-0.4,0.4-0.6
			c0,0.1-0.1,0.2-0.1,0.3c-0.6,1.3-1,3.1-1.5,5c-0.8,3.8-1.3,8-1.3,9.8c0,0,0,0,0,0.1c0,1.8,0.5,3.4,1.4,4.6
			C-366.1,46.9-365.9,47.1-365.7,47.4L-365.7,47.4z M-362,24.6h-1.6V9.4h1.6V24.6L-362,24.6z"/>
	</g>
</g>
</svg>
