<?xml version="1.0" encoding="utf-8"?>
<!-- Generator: Adobe Illustrator 18.0.0, SVG Export Plug-In . SVG Version: 6.00 Build 0)  -->
<!DOCTYPE svg PUBLIC "-//W3C//DTD SVG 1.1//EN" "http://www.w3.org/Graphics/SVG/1.1/DTD/svg11.dtd">
<svg version="1.1" id="Layer_1" xmlns="http://www.w3.org/2000/svg" xmlns:xlink="http://www.w3.org/1999/xlink" x="0px" y="0px"
	 width="192px" height="20.6px" viewBox="0 0 192 20.6" enable-background="new 0 0 192 20.6" xml:space="preserve">
<g>
	<path d="M191.9,4.8C191.6,2,190,0,187.2,0c-3.3,0-5.2,1.8-5.2,4.9c0,5.6,6.8,6.6,6.8,10.5c0,1.2-0.8,1.8-2,1.8c-1.1,0-1.9-1-2-3
		l-3.2,0.5c0.1,2.9,1.9,5.4,5,5.4c3.1,0,5.3-1.8,5.3-5c0-5.3-6.8-6.9-6.8-10.3c0-1.2,0.6-1.9,1.7-1.9c0.8,0,1.7,0.5,1.8,2.2
		L191.9,4.8z M180.2,19.9v-2.9h-6v-5.8h4.3V8.3h-4.3v-5h5.6V0.3h-9v19.6H180.2z M162.2,19.9v-6.9l1.2-2.2h0.1l2.7,9.1h3.4l-4.1-12.3
		l3.6-7.3h-3.4l-3.5,7.2h-0.1V0.3h-3.4v19.6H162.2z M149.8,15.5h3.7l0.6,4.3h3.3l-3.6-19.6h-4.2l-3.6,19.6h3.3L149.8,15.5z
		 M151.6,4.2L151.6,4.2l1.4,8.4h-2.7L151.6,4.2z M144.1,6.8V5.4c0-2.9-1.6-5.4-5-5.4c-3.5,0-5.2,2.3-5.2,5v10.1c0,2.8,1.6,5,5.2,5
		c3.4,0,5-2.3,5-5v-2.3h-3.4v2.4c0,1.3-0.4,2-1.6,2c-1.4,0-1.8-0.7-1.8-2.2V5.1c0-1.5,0.4-2.2,1.8-2.2c0.9,0,1.6,0.7,1.6,2.4v1.5
		H144.1z M125.8,19.9v-2.9h-6v-5.8h4.3V8.3h-4.3v-5h5.6V0.3h-9v19.6H125.8z M113.2,6.8V5.4c0-2.9-1.6-5.4-5-5.4
		c-3.5,0-5.2,2.3-5.2,5v10.1c0,2.8,1.6,5,5.2,5c3.4,0,5-2.3,5-5v-2.3h-3.4v2.4c0,1.3-0.4,2-1.6,2c-1.4,0-1.8-0.7-1.8-2.2V5.1
		c0-1.5,0.4-2.2,1.8-2.2c0.9,0,1.6,0.7,1.6,2.4v1.5H113.2z M92.8,19.9V7.6h0.1l4.3,12.2h2.9V0.3h-3v11.2H97L92.9,0.3h-3.1v19.6H92.8
		z M80.6,15.5h3.7l0.6,4.3h3.3L84.5,0.3h-4.2l-3.6,19.6H80L80.6,15.5z M82.4,4.2L82.4,4.2l1.4,8.4H81L82.4,4.2z M64.7,19.9h5
		c3.5,0,5.3-1.9,5.3-5.9V6.2c0-4-1.8-5.9-5.3-5.9h-5V19.9z M68.1,3h1.2c1.8,0,2.4,0.7,2.4,2.7v8.6c0,2.1-0.6,2.7-2.4,2.7h-1.2V3z
		 M56.5,4.8C56.2,2,54.6,0,51.8,0c-3.3,0-5.2,1.8-5.2,4.9c0,5.6,6.8,6.6,6.8,10.5c0,1.2-0.8,1.8-2,1.8c-1.1,0-1.9-1-2-3l-3.2,0.5
		c0.1,2.9,1.9,5.4,5,5.4c3.1,0,5.3-1.8,5.3-5c0-5.3-6.8-6.9-6.8-10.3c0-1.2,0.6-1.9,1.7-1.9c0.8,0,1.7,0.5,1.8,2.2L56.5,4.8z
		 M43.7,0.3h-3.4v19.6h3.4V0.3z M30,11.8c0.6,0,1.3,0,1.7-0.1l2.4,8.1h3.4L34.7,11c1.1-0.5,2.4-1.8,2.4-4.9c0-4.2-1.9-5.8-5.7-5.8
		h-4.7v19.6H30V11.8z M30,3h1.2c1.8,0,2.5,0.7,2.5,3s-0.7,3-2.5,3H30V3z M16.7,19.9v-8.7h3.6v8.7h3.4V0.3h-3.4v8h-3.6v-8h-3.4v19.6
		H16.7z M10.2,6.8V5.4c0-2.9-1.6-5.4-5-5.4C1.6,0,0,2.3,0,5v10.1c0,2.8,1.6,5,5.2,5c3.4,0,5-2.3,5-5v-2.3H6.8v2.4c0,1.3-0.4,2-1.6,2
		c-1.4,0-1.8-0.7-1.8-2.2V5.1c0-1.5,0.4-2.2,1.8-2.2c0.9,0,1.6,0.7,1.6,2.4v1.5H10.2z"/>
</g>
</svg>
